%TF.GenerationSoftware,KiCad,Pcbnew,6.0.6*%
%TF.CreationDate,2022-11-11T11:54:06+01:00*%
%TF.ProjectId,KnxBoard,4b6e7842-6f61-4726-942e-6b696361645f,rev?*%
%TF.SameCoordinates,Original*%
%TF.FileFunction,Soldermask,Top*%
%TF.FilePolarity,Negative*%
%FSLAX46Y46*%
G04 Gerber Fmt 4.6, Leading zero omitted, Abs format (unit mm)*
G04 Created by KiCad (PCBNEW 6.0.6) date 2022-11-11 11:54:06*
%MOMM*%
%LPD*%
G01*
G04 APERTURE LIST*
G04 Aperture macros list*
%AMRoundRect*
0 Rectangle with rounded corners*
0 $1 Rounding radius*
0 $2 $3 $4 $5 $6 $7 $8 $9 X,Y pos of 4 corners*
0 Add a 4 corners polygon primitive as box body*
4,1,4,$2,$3,$4,$5,$6,$7,$8,$9,$2,$3,0*
0 Add four circle primitives for the rounded corners*
1,1,$1+$1,$2,$3*
1,1,$1+$1,$4,$5*
1,1,$1+$1,$6,$7*
1,1,$1+$1,$8,$9*
0 Add four rect primitives between the rounded corners*
20,1,$1+$1,$2,$3,$4,$5,0*
20,1,$1+$1,$4,$5,$6,$7,0*
20,1,$1+$1,$6,$7,$8,$9,0*
20,1,$1+$1,$8,$9,$2,$3,0*%
G04 Aperture macros list end*
%ADD10R,0.250000X0.850000*%
%ADD11R,0.850000X0.250000*%
%ADD12R,3.600000X3.600000*%
%ADD13RoundRect,0.237500X0.300000X0.237500X-0.300000X0.237500X-0.300000X-0.237500X0.300000X-0.237500X0*%
%ADD14RoundRect,0.250000X-0.337500X-0.475000X0.337500X-0.475000X0.337500X0.475000X-0.337500X0.475000X0*%
%ADD15R,2.500000X1.800000*%
%ADD16C,1.000000*%
%ADD17RoundRect,0.237500X-0.237500X0.300000X-0.237500X-0.300000X0.237500X-0.300000X0.237500X0.300000X0*%
%ADD18R,0.300000X0.850000*%
%ADD19R,0.850000X0.300000*%
%ADD20R,3.300000X3.300000*%
%ADD21RoundRect,0.250000X-0.850000X0.375000X-0.850000X-0.375000X0.850000X-0.375000X0.850000X0.375000X0*%
%ADD22RoundRect,0.250000X-0.475000X0.337500X-0.475000X-0.337500X0.475000X-0.337500X0.475000X0.337500X0*%
%ADD23RoundRect,0.237500X-0.300000X-0.237500X0.300000X-0.237500X0.300000X0.237500X-0.300000X0.237500X0*%
%ADD24R,1.700000X1.700000*%
%ADD25O,1.700000X1.700000*%
%ADD26R,1.100000X1.800000*%
%ADD27RoundRect,0.250000X-0.550000X1.500000X-0.550000X-1.500000X0.550000X-1.500000X0.550000X1.500000X0*%
%ADD28C,3.000000*%
%ADD29R,1.800000X2.500000*%
%ADD30R,1.200000X1.400000*%
%ADD31RoundRect,0.237500X0.237500X-0.300000X0.237500X0.300000X-0.237500X0.300000X-0.237500X-0.300000X0*%
%ADD32RoundRect,0.200000X0.200000X0.275000X-0.200000X0.275000X-0.200000X-0.275000X0.200000X-0.275000X0*%
%ADD33RoundRect,0.200000X-0.275000X0.200000X-0.275000X-0.200000X0.275000X-0.200000X0.275000X0.200000X0*%
%ADD34RoundRect,0.200000X0.275000X-0.200000X0.275000X0.200000X-0.275000X0.200000X-0.275000X-0.200000X0*%
%ADD35RoundRect,0.250000X-0.250000X-1.450000X0.250000X-1.450000X0.250000X1.450000X-0.250000X1.450000X0*%
%ADD36RoundRect,0.250000X0.850000X-0.375000X0.850000X0.375000X-0.850000X0.375000X-0.850000X-0.375000X0*%
%ADD37RoundRect,0.218750X0.218750X0.256250X-0.218750X0.256250X-0.218750X-0.256250X0.218750X-0.256250X0*%
G04 APERTURE END LIST*
D10*
%TO.C,IC0*%
X107414000Y-38952000D03*
X106914000Y-38952000D03*
X106414000Y-38952000D03*
X105914000Y-38952000D03*
X105414000Y-38952000D03*
X104914000Y-38952000D03*
X104414000Y-38952000D03*
X103914000Y-38952000D03*
D11*
X103214000Y-39652000D03*
X103214000Y-40152000D03*
X103214000Y-40652000D03*
X103214000Y-41152000D03*
X103214000Y-41652000D03*
X103214000Y-42152000D03*
X103214000Y-42652000D03*
X103214000Y-43152000D03*
D10*
X103914000Y-43852000D03*
X104414000Y-43852000D03*
X104914000Y-43852000D03*
X105414000Y-43852000D03*
X105914000Y-43852000D03*
X106414000Y-43852000D03*
X106914000Y-43852000D03*
X107414000Y-43852000D03*
D11*
X108114000Y-43152000D03*
X108114000Y-42652000D03*
X108114000Y-42152000D03*
X108114000Y-41652000D03*
X108114000Y-41152000D03*
X108114000Y-40652000D03*
X108114000Y-40152000D03*
X108114000Y-39652000D03*
D12*
X105664000Y-41402000D03*
%TD*%
D13*
%TO.C,C23*%
X102970500Y-47244000D03*
X101245500Y-47244000D03*
%TD*%
D14*
%TO.C,C11*%
X112246500Y-64008000D03*
X114321500Y-64008000D03*
%TD*%
D15*
%TO.C,D2*%
X101124000Y-68326000D03*
X105124000Y-68326000D03*
%TD*%
D16*
%TO.C,TP1*%
X101600000Y-50038000D03*
%TD*%
D17*
%TO.C,C5*%
X100330000Y-63500000D03*
X100330000Y-65225000D03*
%TD*%
D18*
%TO.C,IC1*%
X99252000Y-59335500D03*
X99752000Y-59335500D03*
X100252000Y-59335500D03*
X100752000Y-59335500D03*
X101252000Y-59335500D03*
X101752000Y-59335500D03*
X102252000Y-59335500D03*
X102752000Y-59335500D03*
X103252000Y-59335500D03*
X103752000Y-59335500D03*
D19*
X104452000Y-58635500D03*
X104452000Y-58135500D03*
X104452000Y-57635500D03*
X104452000Y-57135500D03*
X104452000Y-56635500D03*
X104452000Y-56135500D03*
X104452000Y-55635500D03*
X104452000Y-55135500D03*
X104452000Y-54635500D03*
X104452000Y-54135500D03*
D18*
X103752000Y-53435500D03*
X103252000Y-53435500D03*
X102752000Y-53435500D03*
X102252000Y-53435500D03*
X101752000Y-53435500D03*
X101252000Y-53435500D03*
X100752000Y-53435500D03*
X100252000Y-53435500D03*
X99752000Y-53435500D03*
X99252000Y-53435500D03*
D19*
X98552000Y-54135500D03*
X98552000Y-54635500D03*
X98552000Y-55135500D03*
X98552000Y-55635500D03*
X98552000Y-56135500D03*
X98552000Y-56635500D03*
X98552000Y-57135500D03*
X98552000Y-57635500D03*
X98552000Y-58135500D03*
X98552000Y-58635500D03*
D20*
X101502000Y-56385500D03*
%TD*%
D21*
%TO.C,L2*%
X109220000Y-55821000D03*
X109220000Y-57971000D03*
%TD*%
D17*
%TO.C,C10*%
X106172000Y-63145500D03*
X106172000Y-64870500D03*
%TD*%
D13*
%TO.C,C17*%
X94644000Y-52321500D03*
X92919000Y-52321500D03*
%TD*%
D17*
%TO.C,C4*%
X97536000Y-49937500D03*
X97536000Y-51662500D03*
%TD*%
D22*
%TO.C,C12*%
X111506000Y-51540500D03*
X111506000Y-53615500D03*
%TD*%
D23*
%TO.C,C20*%
X113691500Y-36068000D03*
X115416500Y-36068000D03*
%TD*%
D24*
%TO.C,J1*%
X120650000Y-72390000D03*
D25*
X120650000Y-69850000D03*
X120650000Y-67310000D03*
X120650000Y-64770000D03*
X120650000Y-62230000D03*
X120650000Y-59690000D03*
X120650000Y-57150000D03*
X120650000Y-54610000D03*
X120650000Y-52070000D03*
X120650000Y-49530000D03*
X120650000Y-46990000D03*
X120650000Y-44450000D03*
X120650000Y-41910000D03*
X120650000Y-39370000D03*
X120650000Y-36830000D03*
%TD*%
D13*
%TO.C,C21*%
X109574500Y-37084000D03*
X107849500Y-37084000D03*
%TD*%
D17*
%TO.C,C7*%
X102108000Y-63500000D03*
X102108000Y-65225000D03*
%TD*%
D26*
%TO.C,B0*%
X112450000Y-38048000D03*
X112450000Y-44248000D03*
X116150000Y-44248000D03*
X116150000Y-38048000D03*
%TD*%
D27*
%TO.C,C9*%
X92202000Y-63086000D03*
X92202000Y-68486000D03*
%TD*%
D24*
%TO.C,J2*%
X86360000Y-72390000D03*
D25*
X86360000Y-69850000D03*
X86360000Y-67310000D03*
X86360000Y-64770000D03*
X86360000Y-62230000D03*
X86360000Y-59690000D03*
X86360000Y-57150000D03*
X86360000Y-54610000D03*
X86360000Y-52070000D03*
X86360000Y-49530000D03*
X86360000Y-46990000D03*
X86360000Y-44450000D03*
X86360000Y-41910000D03*
X86360000Y-39370000D03*
X86360000Y-36830000D03*
%TD*%
D23*
%TO.C,C16*%
X92919000Y-58671500D03*
X94644000Y-58671500D03*
%TD*%
D16*
%TO.C,TP2*%
X107442000Y-47752000D03*
%TD*%
D23*
%TO.C,C3*%
X96067500Y-61719500D03*
X97792500Y-61719500D03*
%TD*%
D28*
%TO.C,J4*%
X100503000Y-72634000D03*
X106253000Y-72634000D03*
%TD*%
D29*
%TO.C,D1*%
X109220000Y-64294000D03*
X109220000Y-68294000D03*
%TD*%
D30*
%TO.C,X1*%
X94581500Y-56723500D03*
X94581500Y-54523500D03*
X92981500Y-54523500D03*
X92981500Y-56723500D03*
%TD*%
D23*
%TO.C,C30*%
X91847500Y-37084000D03*
X93572500Y-37084000D03*
%TD*%
D31*
%TO.C,C6*%
X104394000Y-64971000D03*
X104394000Y-63246000D03*
%TD*%
D13*
%TO.C,C22*%
X102970500Y-45466000D03*
X101245500Y-45466000D03*
%TD*%
D23*
%TO.C,C8*%
X106071500Y-61214000D03*
X107796500Y-61214000D03*
%TD*%
D32*
%TO.C,R30*%
X93281000Y-47498000D03*
X91631000Y-47498000D03*
%TD*%
D33*
%TO.C,R20*%
X111506000Y-60135000D03*
X111506000Y-61785000D03*
%TD*%
D34*
%TO.C,R22*%
X113284000Y-61785000D03*
X113284000Y-60135000D03*
%TD*%
D35*
%TO.C,R10*%
X96786000Y-65278000D03*
X98286000Y-65278000D03*
%TD*%
D26*
%TO.C,B2*%
X90932000Y-45193222D03*
X90932000Y-38993222D03*
X94632000Y-45193222D03*
X94632000Y-38993222D03*
%TD*%
D36*
%TO.C,L3*%
X112522000Y-57971000D03*
X112522000Y-55821000D03*
%TD*%
D33*
%TO.C,R18*%
X109728000Y-60135000D03*
X109728000Y-61785000D03*
%TD*%
D37*
%TO.C,LD1*%
X93243500Y-49276000D03*
X91668500Y-49276000D03*
%TD*%
D34*
%TO.C,R21*%
X113792000Y-53911000D03*
X113792000Y-52261000D03*
%TD*%
D17*
%TO.C,C24*%
X99314000Y-43587500D03*
X99314000Y-45312500D03*
%TD*%
%TO.C,C4*%
X109220000Y-51969500D03*
X109220000Y-53694500D03*
%TD*%
M02*
