%TF.GenerationSoftware,KiCad,Pcbnew,6.0.6*%
%TF.CreationDate,2022-11-11T11:54:06+01:00*%
%TF.ProjectId,KnxBoard,4b6e7842-6f61-4726-942e-6b696361645f,rev?*%
%TF.SameCoordinates,Original*%
%TF.FileFunction,Copper,L2,Bot*%
%TF.FilePolarity,Positive*%
%FSLAX46Y46*%
G04 Gerber Fmt 4.6, Leading zero omitted, Abs format (unit mm)*
G04 Created by KiCad (PCBNEW 6.0.6) date 2022-11-11 11:54:06*
%MOMM*%
%LPD*%
G01*
G04 APERTURE LIST*
G04 Aperture macros list*
%AMRoundRect*
0 Rectangle with rounded corners*
0 $1 Rounding radius*
0 $2 $3 $4 $5 $6 $7 $8 $9 X,Y pos of 4 corners*
0 Add a 4 corners polygon primitive as box body*
4,1,4,$2,$3,$4,$5,$6,$7,$8,$9,$2,$3,0*
0 Add four circle primitives for the rounded corners*
1,1,$1+$1,$2,$3*
1,1,$1+$1,$4,$5*
1,1,$1+$1,$6,$7*
1,1,$1+$1,$8,$9*
0 Add four rect primitives between the rounded corners*
20,1,$1+$1,$2,$3,$4,$5,0*
20,1,$1+$1,$4,$5,$6,$7,0*
20,1,$1+$1,$6,$7,$8,$9,0*
20,1,$1+$1,$8,$9,$2,$3,0*%
%AMFreePoly0*
4,1,22,0.550000,-0.750000,0.000000,-0.750000,0.000000,-0.745033,-0.079941,-0.743568,-0.215256,-0.701293,-0.333266,-0.622738,-0.424486,-0.514219,-0.481581,-0.384460,-0.499164,-0.250000,-0.500000,-0.250000,-0.500000,0.250000,-0.499164,0.250000,-0.499963,0.256109,-0.478152,0.396186,-0.417904,0.524511,-0.324060,0.630769,-0.204165,0.706417,-0.067858,0.745374,0.000000,0.744959,0.000000,0.750000,
0.550000,0.750000,0.550000,-0.750000,0.550000,-0.750000,$1*%
%AMFreePoly1*
4,1,20,0.000000,0.744959,0.073905,0.744508,0.209726,0.703889,0.328688,0.626782,0.421226,0.519385,0.479903,0.390333,0.500000,0.250000,0.500000,-0.250000,0.499851,-0.262216,0.476331,-0.402017,0.414519,-0.529596,0.319384,-0.634700,0.198574,-0.708877,0.061801,-0.746166,0.000000,-0.745033,0.000000,-0.750000,-0.550000,-0.750000,-0.550000,0.750000,0.000000,0.750000,0.000000,0.744959,
0.000000,0.744959,$1*%
%AMFreePoly2*
4,1,6,1.000000,0.000000,0.500000,-0.750000,-0.500000,-0.750000,-0.500000,0.750000,0.500000,0.750000,1.000000,0.000000,1.000000,0.000000,$1*%
%AMFreePoly3*
4,1,6,0.500000,-0.750000,-0.650000,-0.750000,-0.150000,0.000000,-0.650000,0.750000,0.500000,0.750000,0.500000,-0.750000,0.500000,-0.750000,$1*%
G04 Aperture macros list end*
%TA.AperFunction,ComponentPad*%
%ADD10R,1.700000X1.700000*%
%TD*%
%TA.AperFunction,ComponentPad*%
%ADD11O,1.700000X1.700000*%
%TD*%
%TA.AperFunction,ComponentPad*%
%ADD12C,3.000000*%
%TD*%
%TA.AperFunction,SMDPad,CuDef*%
%ADD13RoundRect,0.200000X-0.275000X0.200000X-0.275000X-0.200000X0.275000X-0.200000X0.275000X0.200000X0*%
%TD*%
%TA.AperFunction,SMDPad,CuDef*%
%ADD14FreePoly0,90.000000*%
%TD*%
%TA.AperFunction,SMDPad,CuDef*%
%ADD15R,1.500000X1.000000*%
%TD*%
%TA.AperFunction,SMDPad,CuDef*%
%ADD16FreePoly1,90.000000*%
%TD*%
%TA.AperFunction,SMDPad,CuDef*%
%ADD17FreePoly2,270.000000*%
%TD*%
%TA.AperFunction,SMDPad,CuDef*%
%ADD18FreePoly3,270.000000*%
%TD*%
%TA.AperFunction,SMDPad,CuDef*%
%ADD19FreePoly2,90.000000*%
%TD*%
%TA.AperFunction,SMDPad,CuDef*%
%ADD20FreePoly3,90.000000*%
%TD*%
%TA.AperFunction,ViaPad*%
%ADD21C,0.800000*%
%TD*%
%TA.AperFunction,Conductor*%
%ADD22C,0.250000*%
%TD*%
%TA.AperFunction,Conductor*%
%ADD23C,0.750000*%
%TD*%
%TA.AperFunction,Conductor*%
%ADD24C,1.000000*%
%TD*%
%TA.AperFunction,Conductor*%
%ADD25C,0.500000*%
%TD*%
G04 APERTURE END LIST*
D10*
%TO.P,J1,1,Pin_1*%
%TO.N,+12V*%
X120650000Y-72390000D03*
D11*
%TO.P,J1,2,Pin_2*%
%TO.N,GNDREF*%
X120650000Y-69850000D03*
%TO.P,J1,3,Pin_3*%
X120650000Y-67310000D03*
%TO.P,J1,4,Pin_4*%
%TO.N,/MCU/NRST*%
X120650000Y-64770000D03*
%TO.P,J1,5,Pin_5*%
%TO.N,/MCU/DEBUG_JTMS-SWDIO*%
X120650000Y-62230000D03*
%TO.P,J1,6,Pin_6*%
%TO.N,/MCU/DEBUG_JTCK-SWCLK*%
X120650000Y-59690000D03*
%TO.P,J1,7,Pin_7*%
%TO.N,/MCU/PA15*%
X120650000Y-57150000D03*
%TO.P,J1,8,Pin_8*%
%TO.N,/MCU/PB3*%
X120650000Y-54610000D03*
%TO.P,J1,9,Pin_9*%
%TO.N,/MCU/PB4*%
X120650000Y-52070000D03*
%TO.P,J1,10,Pin_10*%
%TO.N,/MCU/PB5*%
X120650000Y-49530000D03*
%TO.P,J1,11,Pin_11*%
%TO.N,/MCU/PB6*%
X120650000Y-46990000D03*
%TO.P,J1,12,Pin_12*%
%TO.N,/MCU/PB7*%
X120650000Y-44450000D03*
%TO.P,J1,13,Pin_13*%
%TO.N,/MCU/PB8*%
X120650000Y-41910000D03*
%TO.P,J1,14,Pin_14*%
%TO.N,VDD*%
X120650000Y-39370000D03*
%TO.P,J1,15,Pin_15*%
%TO.N,GNDREF*%
X120650000Y-36830000D03*
%TD*%
D10*
%TO.P,J2,1,Pin_1*%
%TO.N,GNDREF*%
X86360000Y-72390000D03*
D11*
%TO.P,J2,2,Pin_2*%
X86360000Y-69850000D03*
%TO.P,J2,3,Pin_3*%
%TO.N,VDD*%
X86360000Y-67310000D03*
%TO.P,J2,4,Pin_4*%
%TO.N,Prog*%
X86360000Y-64770000D03*
%TO.P,J2,5,Pin_5*%
%TO.N,Led*%
X86360000Y-62230000D03*
%TO.P,J2,6,Pin_6*%
%TO.N,/MCU/PA7*%
X86360000Y-59690000D03*
%TO.P,J2,7,Pin_7*%
%TO.N,/MCU/PA6*%
X86360000Y-57150000D03*
%TO.P,J2,8,Pin_8*%
%TO.N,/MCU/PA5*%
X86360000Y-54610000D03*
%TO.P,J2,9,Pin_9*%
%TO.N,/MCU/PA4*%
X86360000Y-52070000D03*
%TO.P,J2,10,Pin_10*%
%TO.N,/MCU/DEBUG_UART_RX*%
X86360000Y-49530000D03*
%TO.P,J2,11,Pin_11*%
%TO.N,/MCU/DEBUG_UART_TX*%
X86360000Y-46990000D03*
%TO.P,J2,12,Pin_12*%
%TO.N,/MCU/PA1*%
X86360000Y-44450000D03*
%TO.P,J2,13,Pin_13*%
%TO.N,/MCU/PA0*%
X86360000Y-41910000D03*
%TO.P,J2,14,Pin_14*%
%TO.N,/MCU/PF1*%
X86360000Y-39370000D03*
%TO.P,J2,15,Pin_15*%
%TO.N,CLK16*%
X86360000Y-36830000D03*
%TD*%
D12*
%TO.P,J4,1,Pin_1*%
%TO.N,GNDREF*%
X100503000Y-72634000D03*
%TO.P,J4,2,Pin_2*%
%TO.N,/KNXIFACE/KNX+*%
X106253000Y-72634000D03*
%TD*%
D13*
%TO.P,R3,1*%
%TO.N,Net-(IC1-Pad38)*%
X90170000Y-63945000D03*
%TO.P,R3,2*%
%TO.N,GNDREF*%
X90170000Y-65595000D03*
%TD*%
D14*
%TO.P,JP4,1,A*%
%TO.N,GNDREF*%
X112522000Y-50322000D03*
D15*
%TO.P,JP4,2,C*%
%TO.N,/MCU/PB8*%
X112522000Y-49022000D03*
D16*
%TO.P,JP4,3,B*%
%TO.N,VDD*%
X112522000Y-47722000D03*
%TD*%
D17*
%TO.P,JP7,1,A*%
%TO.N,VDD*%
X96774000Y-46265000D03*
D18*
%TO.P,JP7,2,B*%
%TO.N,+3V3*%
X96774000Y-47715000D03*
%TD*%
D14*
%TO.P,JP2,1,A*%
%TO.N,GNDREF*%
X102870000Y-50322000D03*
D15*
%TO.P,JP2,2,C*%
%TO.N,Net-(IC1-Pad29)*%
X102870000Y-49022000D03*
D16*
%TO.P,JP2,3,B*%
%TO.N,+3V3*%
X102870000Y-47722000D03*
%TD*%
D14*
%TO.P,JP1,1,A*%
%TO.N,GNDREF*%
X99568000Y-50322000D03*
D15*
%TO.P,JP1,2,C*%
%TO.N,Net-(IC1-Pad21)*%
X99568000Y-49022000D03*
D16*
%TO.P,JP1,3,B*%
%TO.N,+3V3*%
X99568000Y-47722000D03*
%TD*%
D14*
%TO.P,JP3,1,A*%
%TO.N,GNDREF*%
X106426000Y-50322000D03*
D15*
%TO.P,JP3,2,C*%
%TO.N,Net-(IC1-Pad26)*%
X106426000Y-49022000D03*
D16*
%TO.P,JP3,3,B*%
%TO.N,+3V3*%
X106426000Y-47722000D03*
%TD*%
D19*
%TO.P,JP6,1,A*%
%TO.N,/MCU/NRST*%
X109474000Y-49493000D03*
D20*
%TO.P,JP6,2,B*%
%TO.N,KNX_RESETB*%
X109474000Y-48043000D03*
%TD*%
D21*
%TO.N,GNDREF*%
X111427000Y-53694500D03*
%TO.N,Net-(IC1-Pad21)*%
X104902000Y-51816000D03*
%TO.N,Prog*%
X90678000Y-44704000D03*
X91694000Y-37338000D03*
%TO.N,+3V3*%
X98298000Y-61468000D03*
X98806000Y-52070000D03*
X97536000Y-49937500D03*
X108204000Y-50800000D03*
%TO.N,+12V*%
X109728000Y-61722000D03*
X106680000Y-58674000D03*
%TO.N,/MCU/NRST*%
X105664000Y-36830000D03*
X113437500Y-46328500D03*
X116332000Y-48006000D03*
X110998000Y-43180000D03*
X112014000Y-38608000D03*
%TO.N,VDD*%
X107696000Y-35814000D03*
X96774000Y-45974000D03*
X91440000Y-57150000D03*
X99314000Y-43587500D03*
%TO.N,CLK16*%
X97028000Y-54864000D03*
%TO.N,Led*%
X89662000Y-55880000D03*
X97536000Y-42672000D03*
X93218000Y-47498000D03*
%TO.N,GNDREF*%
X107950000Y-61214000D03*
X94996000Y-43434000D03*
X104648000Y-41402000D03*
X101854000Y-66548000D03*
X101600000Y-57404000D03*
X105664000Y-40386000D03*
X106680000Y-42418000D03*
X105664000Y-42418000D03*
X92202000Y-68326000D03*
X113284000Y-61976000D03*
X102616000Y-56388000D03*
X106680000Y-40386000D03*
X92981500Y-56878500D03*
X93726000Y-37338000D03*
X104648000Y-42418000D03*
X104648000Y-40386000D03*
X102616000Y-55372000D03*
X101600000Y-56385500D03*
X97282000Y-52324000D03*
X100584000Y-55372000D03*
X116840000Y-45720000D03*
X100584000Y-57404000D03*
X99314000Y-60452000D03*
X106680000Y-41402000D03*
X102616000Y-57404000D03*
X107188000Y-54610000D03*
X94581500Y-54523500D03*
X107188000Y-57658000D03*
X109474000Y-38608000D03*
X106172000Y-65024000D03*
X100584000Y-56388000D03*
X105664000Y-41402000D03*
X101600000Y-55372000D03*
X102108000Y-43688000D03*
%TO.N,/KNXIFACE/Vfilt*%
X106426000Y-56134000D03*
X103632000Y-60960000D03*
X92202000Y-63500000D03*
X105918000Y-61214000D03*
%TO.N,/MCU/PB8*%
X109982000Y-40386000D03*
%TO.N,/MCU/PA5*%
X98044000Y-39116000D03*
%TO.N,/MCU/PA6*%
X99060000Y-39624000D03*
%TO.N,/MCU/PA7*%
X99822000Y-40386000D03*
X88900000Y-54610000D03*
%TO.N,KNX_RESETB*%
X106172000Y-46228000D03*
X96012000Y-57912000D03*
%TO.N,KNX_SAVEB*%
X96774000Y-56896000D03*
X106934000Y-45466000D03*
%TO.N,Net-(IC1-Pad11)*%
X109728000Y-60135000D03*
X113284000Y-59944000D03*
%TO.N,Net-(IC1-Pad20)*%
X105410000Y-52832000D03*
X112522000Y-55626000D03*
%TO.N,Net-(IC1-Pad38)*%
X97692000Y-60452000D03*
%TO.N,Net-(IC1-Pad26)*%
X106426000Y-49022000D03*
%TO.N,Net-(IC1-Pad29)*%
X102616000Y-49022000D03*
%TO.N,/KNXIFACE/KNX_TXD*%
X100330000Y-51562000D03*
X102108000Y-51562000D03*
%TD*%
D22*
%TO.N,Net-(IC1-Pad21)*%
X104902000Y-51816000D02*
X104454200Y-52263800D01*
X104454200Y-52263800D02*
X100015800Y-52263800D01*
X97572696Y-53025800D02*
X96991304Y-53025800D01*
X100015800Y-52263800D02*
X98806000Y-51054000D01*
X97983800Y-51717786D02*
X97983800Y-52614696D01*
X98806000Y-51054000D02*
X98647586Y-51054000D01*
X98647586Y-51054000D02*
X97983800Y-51717786D01*
X97983800Y-52614696D02*
X97572696Y-53025800D01*
X96991304Y-53025800D02*
X96520000Y-52554496D01*
X96520000Y-52554496D02*
X96520000Y-51974414D01*
X96520000Y-51974414D02*
X98516200Y-49978214D01*
X98516200Y-49978214D02*
X98516200Y-49646990D01*
X98516200Y-49646990D02*
X99141190Y-49022000D01*
X99141190Y-49022000D02*
X99314000Y-49022000D01*
%TO.N,CLK16*%
X97475800Y-58044282D02*
X97475800Y-55311800D01*
X97475800Y-55311800D02*
X97028000Y-54864000D01*
D23*
%TO.N,GNDREF*%
X111028000Y-51816000D02*
X111028000Y-53295500D01*
X111028000Y-53295500D02*
X111427000Y-53694500D01*
D22*
%TO.N,Net-(IC1-Pad20)*%
X112522000Y-55626000D02*
X111506000Y-55626000D01*
X111506000Y-55626000D02*
X109474000Y-53594000D01*
X109474000Y-53594000D02*
X106172000Y-53594000D01*
X106172000Y-53594000D02*
X105410000Y-52832000D01*
%TO.N,GNDREF*%
X98776000Y-50322000D02*
X99568000Y-50322000D01*
X97323800Y-52111800D02*
X97323800Y-51774200D01*
X97323800Y-51774200D02*
X98776000Y-50322000D01*
D23*
X106426000Y-50322000D02*
X106426000Y-50800000D01*
X106426000Y-50800000D02*
X107442000Y-51816000D01*
X107442000Y-51816000D02*
X111028000Y-51816000D01*
X111028000Y-51816000D02*
X112522000Y-50322000D01*
D24*
X120650000Y-69850000D02*
X120650000Y-67310000D01*
X86360000Y-69850000D02*
X86360000Y-72390000D01*
D22*
X107442000Y-57658000D02*
X107442000Y-54864000D01*
X107442000Y-54864000D02*
X107188000Y-54610000D01*
X107188000Y-54610000D02*
X106934000Y-54864000D01*
X106934000Y-54864000D02*
X104902000Y-54864000D01*
X104902000Y-54864000D02*
X104394000Y-55372000D01*
X104394000Y-55372000D02*
X102616000Y-55372000D01*
D24*
X90170000Y-65595000D02*
X92202000Y-67627000D01*
X92202000Y-67627000D02*
X92202000Y-68326000D01*
%TO.N,/KNXIFACE/Vfilt*%
X103632000Y-60960000D02*
X102362000Y-60960000D01*
X102362000Y-60960000D02*
X98806000Y-64516000D01*
X98806000Y-64516000D02*
X93726000Y-64516000D01*
D22*
%TO.N,Net-(IC1-Pad38)*%
X97692000Y-60452000D02*
X93663000Y-60452000D01*
X93663000Y-60452000D02*
X90170000Y-63945000D01*
%TO.N,VDD*%
X99314000Y-43587500D02*
X96567518Y-43587500D01*
X96567518Y-43587500D02*
X94234000Y-45921018D01*
X94234000Y-45921018D02*
X94234000Y-51816000D01*
X94234000Y-51816000D02*
X91440000Y-54610000D01*
X91440000Y-54610000D02*
X91440000Y-57150000D01*
D24*
%TO.N,/KNXIFACE/Vfilt*%
X92202000Y-63500000D02*
X93218000Y-64516000D01*
X93218000Y-64516000D02*
X93726000Y-64516000D01*
D22*
%TO.N,Prog*%
X99822000Y-41148000D02*
X99568000Y-41402000D01*
X92202000Y-41320800D02*
X90678000Y-42844800D01*
X91694000Y-37338000D02*
X93045200Y-38689200D01*
X100523800Y-40095304D02*
X100523800Y-40676696D01*
X99568000Y-41402000D02*
X99486800Y-41320800D01*
X98842696Y-38414200D02*
X100523800Y-40095304D01*
X100523800Y-40676696D02*
X100052496Y-41148000D01*
X100052496Y-41148000D02*
X99822000Y-41148000D01*
X95250000Y-38689200D02*
X95525000Y-38414200D01*
X99486800Y-41320800D02*
X92202000Y-41320800D01*
X93045200Y-38689200D02*
X95250000Y-38689200D01*
X90678000Y-42844800D02*
X90678000Y-44704000D01*
X95525000Y-38414200D02*
X98842696Y-38414200D01*
%TO.N,+3V3*%
X98596317Y-53806200D02*
X98596317Y-61169683D01*
X98596317Y-61169683D02*
X98298000Y-61468000D01*
D25*
X99568000Y-47722000D02*
X96781000Y-47722000D01*
D23*
X97536000Y-49937500D02*
X97536000Y-48477000D01*
D22*
X98806000Y-52070000D02*
X99060000Y-52324000D01*
X99060000Y-53342517D02*
X98596317Y-53806200D01*
D25*
X97536000Y-48477000D02*
X96774000Y-47715000D01*
D22*
X106979600Y-47722000D02*
X108204000Y-48946400D01*
X108204000Y-48946400D02*
X108204000Y-50800000D01*
D23*
X99568000Y-47722000D02*
X102870000Y-47722000D01*
D22*
X99060000Y-52324000D02*
X99060000Y-53342517D01*
X96781000Y-47722000D02*
X96774000Y-47715000D01*
D23*
X102870000Y-47722000D02*
X106426000Y-47722000D01*
D22*
X106426000Y-47722000D02*
X106979600Y-47722000D01*
%TO.N,+12V*%
X106680000Y-58674000D02*
X109728000Y-61722000D01*
%TO.N,/MCU/NRST*%
X111035000Y-47715000D02*
X112421500Y-46328500D01*
X117094000Y-64770000D02*
X116332000Y-64008000D01*
X109280200Y-40095304D02*
X110767504Y-38608000D01*
X120650000Y-64770000D02*
X117094000Y-64770000D01*
X116332000Y-64008000D02*
X116332000Y-48006000D01*
X110998000Y-43180000D02*
X109280200Y-41462200D01*
X111035000Y-49493000D02*
X111035000Y-47715000D01*
X109280200Y-41462200D02*
X109280200Y-40095304D01*
X110767504Y-38608000D02*
X112014000Y-38608000D01*
X105664000Y-36830000D02*
X110236000Y-36830000D01*
X112421500Y-46328500D02*
X113437500Y-46328500D01*
X110236000Y-36830000D02*
X112014000Y-38608000D01*
X109474000Y-49493000D02*
X111035000Y-49493000D01*
%TO.N,VDD*%
X113036496Y-47722000D02*
X114139300Y-46619196D01*
X114139300Y-46037804D02*
X112520096Y-44418600D01*
X112522000Y-47722000D02*
X113036496Y-47722000D01*
X112520096Y-44418600D02*
X100145100Y-44418600D01*
X105687504Y-35814000D02*
X103886000Y-37615504D01*
X114139300Y-46619196D02*
X114139300Y-46037804D01*
X103886000Y-37615504D02*
X103886000Y-41910000D01*
X117094000Y-35814000D02*
X120650000Y-39370000D01*
X100145100Y-44418600D02*
X99314000Y-43587500D01*
X107696000Y-35814000D02*
X117094000Y-35814000D01*
X103886000Y-41910000D02*
X103124000Y-42672000D01*
X107696000Y-35814000D02*
X105687504Y-35814000D01*
X103124000Y-42672000D02*
X100229500Y-42672000D01*
X100229500Y-42672000D02*
X99314000Y-43587500D01*
%TO.N,CLK16*%
X93590200Y-58538200D02*
X85716200Y-58538200D01*
X85090000Y-38100000D02*
X86360000Y-36830000D01*
X96338082Y-59182000D02*
X94234000Y-59182000D01*
X85716200Y-58538200D02*
X85090000Y-57912000D01*
X85090000Y-57912000D02*
X85090000Y-38100000D01*
X97475800Y-58044282D02*
X96338082Y-59182000D01*
X94234000Y-59182000D02*
X93590200Y-58538200D01*
%TO.N,Led*%
X93218000Y-47498000D02*
X90170000Y-50546000D01*
X90170000Y-50546000D02*
X90170000Y-55372000D01*
X93218000Y-46333432D02*
X96879432Y-42672000D01*
X96879432Y-42672000D02*
X97536000Y-42672000D01*
X93218000Y-47498000D02*
X93218000Y-46333432D01*
X90170000Y-55372000D02*
X89662000Y-55880000D01*
%TO.N,GNDREF*%
X99314000Y-58674000D02*
X99314000Y-60452000D01*
X112522000Y-50322000D02*
X113095586Y-50322000D01*
X109474000Y-38608000D02*
X107696000Y-40386000D01*
X108458000Y-35306000D02*
X108264200Y-35112200D01*
D24*
X101854000Y-66548000D02*
X98235000Y-66548000D01*
D22*
X116840000Y-45720000D02*
X116840000Y-43942000D01*
D24*
X94679000Y-65849000D02*
X92202000Y-68326000D01*
D22*
X105785718Y-35112200D02*
X103559918Y-37338000D01*
D24*
X97536000Y-65849000D02*
X94679000Y-65849000D01*
D22*
X100584000Y-57404000D02*
X102616000Y-57404000D01*
X115062000Y-48355586D02*
X115062000Y-47498000D01*
X106426000Y-57912000D02*
X106680000Y-57658000D01*
D24*
X107950000Y-61214000D02*
X107950000Y-63246000D01*
D22*
X115062000Y-47498000D02*
X116840000Y-45720000D01*
X101600000Y-56385500D02*
X102613500Y-56385500D01*
X121801800Y-40250200D02*
X121801800Y-38892908D01*
X105664000Y-41402000D02*
X106680000Y-41402000D01*
D23*
X102870000Y-50260000D02*
X106426000Y-50260000D01*
D22*
X104648000Y-42418000D02*
X104648000Y-40386000D01*
X101600000Y-55372000D02*
X101600000Y-56385500D01*
D24*
X86360000Y-69850000D02*
X90678000Y-69850000D01*
D22*
X101600000Y-56385500D02*
X100586500Y-56385500D01*
X120260200Y-40521800D02*
X121530200Y-40521800D01*
X106680000Y-57658000D02*
X107188000Y-57658000D01*
X103559918Y-37338000D02*
X98370082Y-37338000D01*
X106680000Y-42418000D02*
X106680000Y-40386000D01*
X102616000Y-57404000D02*
X102616000Y-55372000D01*
X105664000Y-41402000D02*
X104648000Y-41402000D01*
D24*
X98235000Y-66548000D02*
X97536000Y-65849000D01*
D22*
X105664000Y-41402000D02*
X105664000Y-40386000D01*
X100950600Y-41289400D02*
X100330000Y-41910000D01*
X104648000Y-42418000D02*
X106680000Y-42418000D01*
X100586500Y-56385500D02*
X100584000Y-56388000D01*
D24*
X101854000Y-66548000D02*
X104648000Y-66548000D01*
X90678000Y-69850000D02*
X92202000Y-68326000D01*
D22*
X118214892Y-35306000D02*
X108458000Y-35306000D01*
X92981500Y-56878500D02*
X92981500Y-56123500D01*
D24*
X112014000Y-63246000D02*
X113284000Y-61976000D01*
D22*
X102613500Y-56385500D02*
X102616000Y-56388000D01*
X105959800Y-58375683D02*
X106423483Y-57912000D01*
X121801800Y-38892908D02*
X118214892Y-35306000D01*
X100584000Y-57404000D02*
X99314000Y-58674000D01*
X102108000Y-43688000D02*
X103378000Y-43688000D01*
X106423483Y-57912000D02*
X106426000Y-57912000D01*
D24*
X104648000Y-66548000D02*
X106172000Y-65024000D01*
D22*
X105664000Y-41402000D02*
X105664000Y-42418000D01*
D23*
X99568000Y-50260000D02*
X102870000Y-50260000D01*
D22*
X116840000Y-43942000D02*
X120260200Y-40521800D01*
X102616000Y-55372000D02*
X100584000Y-55372000D01*
X100950600Y-39918518D02*
X100950600Y-41289400D01*
X100330000Y-41910000D02*
X96520000Y-41910000D01*
X101600000Y-56385500D02*
X101600000Y-57404000D01*
D24*
X107950000Y-63246000D02*
X112014000Y-63246000D01*
D22*
X106680000Y-40386000D02*
X104648000Y-40386000D01*
X93726000Y-37338000D02*
X98370082Y-37338000D01*
X100584000Y-55372000D02*
X100584000Y-57404000D01*
X96520000Y-41910000D02*
X94996000Y-43434000D01*
X107696000Y-40386000D02*
X106680000Y-40386000D01*
X107950000Y-61214000D02*
X105959800Y-59223800D01*
X98370082Y-37338000D02*
X100950600Y-39918518D01*
X103378000Y-43688000D02*
X104648000Y-42418000D01*
X105959800Y-59223800D02*
X105959800Y-58375683D01*
D24*
X107950000Y-63246000D02*
X106172000Y-65024000D01*
D22*
X121530200Y-40521800D02*
X121801800Y-40250200D01*
X108264200Y-35112200D02*
X105785718Y-35112200D01*
X92981500Y-56123500D02*
X94581500Y-54523500D01*
X113095586Y-50322000D02*
X115062000Y-48355586D01*
D24*
%TO.N,/KNXIFACE/Vfilt*%
X105918000Y-61214000D02*
X103632000Y-61214000D01*
X103632000Y-58166000D02*
X103632000Y-60960000D01*
X105664000Y-56134000D02*
X103632000Y-58166000D01*
X105664000Y-56134000D02*
X106426000Y-56134000D01*
D22*
X103632000Y-61214000D02*
X103378000Y-60960000D01*
%TO.N,/MCU/PB8*%
X113792000Y-49022000D02*
X112522000Y-49022000D01*
X109982000Y-40386000D02*
X114566100Y-44970100D01*
X114566100Y-48247900D02*
X113792000Y-49022000D01*
X114566100Y-44970100D02*
X114566100Y-48247900D01*
%TO.N,/MCU/PA5*%
X89916000Y-39116000D02*
X88392000Y-40640000D01*
X88392000Y-40640000D02*
X88392000Y-53340000D01*
X98044000Y-39116000D02*
X89916000Y-39116000D01*
X87630000Y-53340000D02*
X86360000Y-54610000D01*
X88392000Y-53340000D02*
X87630000Y-53340000D01*
%TO.N,/MCU/PA6*%
X98552000Y-40132000D02*
X89916000Y-40132000D01*
X99060000Y-39624000D02*
X98552000Y-40132000D01*
X88138000Y-54197586D02*
X88138000Y-55372000D01*
X88900000Y-41148000D02*
X88900000Y-53435586D01*
X89916000Y-40132000D02*
X88900000Y-41148000D01*
X88900000Y-53435586D02*
X88138000Y-54197586D01*
X88138000Y-55372000D02*
X86360000Y-57150000D01*
%TO.N,/MCU/PA7*%
X89408000Y-54102000D02*
X88900000Y-54610000D01*
X99822000Y-40386000D02*
X99314000Y-40894000D01*
X90932000Y-40894000D02*
X89408000Y-42418000D01*
X99314000Y-40894000D02*
X90932000Y-40894000D01*
X89408000Y-42418000D02*
X89408000Y-54102000D01*
%TO.N,KNX_RESETB*%
X109474000Y-48043000D02*
X109474000Y-48006000D01*
X95504000Y-53848000D02*
X96012000Y-54356000D01*
X109474000Y-48006000D02*
X107696000Y-46228000D01*
X105216200Y-45272200D02*
X96089990Y-45272200D01*
X95504000Y-45858190D02*
X95504000Y-53848000D01*
X96012000Y-54356000D02*
X96012000Y-57912000D01*
X107696000Y-46228000D02*
X106172000Y-46228000D01*
X96089990Y-45272200D02*
X95504000Y-45858190D01*
X106172000Y-46228000D02*
X105216200Y-45272200D01*
%TO.N,KNX_SAVEB*%
X96242496Y-58674000D02*
X95758000Y-58674000D01*
X95250000Y-57150000D02*
X95283300Y-57116700D01*
X95283300Y-54230886D02*
X94996000Y-53943586D01*
X94996000Y-53943586D02*
X94996000Y-45762604D01*
X96774000Y-58142496D02*
X96242496Y-58674000D01*
X94996000Y-45762604D02*
X95913204Y-44845400D01*
X95250000Y-58166000D02*
X95250000Y-57150000D01*
X95913204Y-44845400D02*
X106313400Y-44845400D01*
X95758000Y-58674000D02*
X95250000Y-58166000D01*
X95283300Y-57116700D02*
X95283300Y-54230886D01*
X106313400Y-44845400D02*
X106934000Y-45466000D01*
X96774000Y-56896000D02*
X96774000Y-58142496D01*
%TO.N,Net-(IC1-Pad11)*%
X113093000Y-60135000D02*
X113284000Y-59944000D01*
X109728000Y-60135000D02*
X113093000Y-60135000D01*
%TO.N,/KNXIFACE/KNX_TXD*%
X100330000Y-51562000D02*
X102108000Y-51562000D01*
%TD*%
%TA.AperFunction,Conductor*%
%TO.N,GNDREF*%
G36*
X115414847Y-48175399D02*
G01*
X115449220Y-48229050D01*
X115461862Y-48267957D01*
X115497473Y-48377556D01*
X115592960Y-48542944D01*
X115666137Y-48624215D01*
X115696853Y-48688221D01*
X115698500Y-48708524D01*
X115698500Y-63929233D01*
X115697973Y-63940416D01*
X115696298Y-63947909D01*
X115696547Y-63955835D01*
X115696547Y-63955836D01*
X115698438Y-64015986D01*
X115698500Y-64019945D01*
X115698500Y-64047856D01*
X115698997Y-64051790D01*
X115698997Y-64051791D01*
X115699005Y-64051856D01*
X115699938Y-64063693D01*
X115701327Y-64107889D01*
X115706736Y-64126507D01*
X115706978Y-64127339D01*
X115710987Y-64146700D01*
X115713526Y-64166797D01*
X115716445Y-64174168D01*
X115716445Y-64174170D01*
X115729804Y-64207912D01*
X115733649Y-64219142D01*
X115745982Y-64261593D01*
X115750015Y-64268412D01*
X115750017Y-64268417D01*
X115756293Y-64279028D01*
X115764988Y-64296776D01*
X115772448Y-64315617D01*
X115777110Y-64322033D01*
X115777110Y-64322034D01*
X115798436Y-64351387D01*
X115804952Y-64361307D01*
X115827458Y-64399362D01*
X115841779Y-64413683D01*
X115854619Y-64428716D01*
X115866528Y-64445107D01*
X115898413Y-64471484D01*
X115900593Y-64473288D01*
X115909374Y-64481278D01*
X116590353Y-65162258D01*
X116597887Y-65170537D01*
X116602000Y-65177018D01*
X116616845Y-65190958D01*
X116651651Y-65223643D01*
X116654493Y-65226398D01*
X116674230Y-65246135D01*
X116677427Y-65248615D01*
X116686447Y-65256318D01*
X116718679Y-65286586D01*
X116725625Y-65290405D01*
X116725628Y-65290407D01*
X116736434Y-65296348D01*
X116752953Y-65307199D01*
X116768959Y-65319614D01*
X116776228Y-65322759D01*
X116776232Y-65322762D01*
X116809537Y-65337174D01*
X116820187Y-65342391D01*
X116858940Y-65363695D01*
X116866615Y-65365666D01*
X116866616Y-65365666D01*
X116878562Y-65368733D01*
X116897267Y-65375137D01*
X116915855Y-65383181D01*
X116923678Y-65384420D01*
X116923688Y-65384423D01*
X116959524Y-65390099D01*
X116971144Y-65392505D01*
X117006289Y-65401528D01*
X117013970Y-65403500D01*
X117034224Y-65403500D01*
X117053934Y-65405051D01*
X117073943Y-65408220D01*
X117081835Y-65407474D01*
X117117961Y-65404059D01*
X117129819Y-65403500D01*
X119374274Y-65403500D01*
X119442395Y-65423502D01*
X119481707Y-65463665D01*
X119549987Y-65575088D01*
X119696250Y-65743938D01*
X119868126Y-65886632D01*
X119922330Y-65918306D01*
X119941955Y-65929774D01*
X119990679Y-65981412D01*
X120003750Y-66051195D01*
X119977019Y-66116967D01*
X119936562Y-66150327D01*
X119928457Y-66154546D01*
X119919738Y-66160036D01*
X119749433Y-66287905D01*
X119741726Y-66294748D01*
X119594590Y-66448717D01*
X119588104Y-66456727D01*
X119468098Y-66632649D01*
X119463000Y-66641623D01*
X119373338Y-66834783D01*
X119369775Y-66844470D01*
X119314389Y-67044183D01*
X119315912Y-67052607D01*
X119328292Y-67056000D01*
X120778000Y-67056000D01*
X120846121Y-67076002D01*
X120892614Y-67129658D01*
X120904000Y-67182000D01*
X120904000Y-69978000D01*
X120883998Y-70046121D01*
X120830342Y-70092614D01*
X120778000Y-70104000D01*
X119333225Y-70104000D01*
X119319694Y-70107973D01*
X119318257Y-70117966D01*
X119348565Y-70252446D01*
X119351645Y-70262275D01*
X119431770Y-70459603D01*
X119436413Y-70468794D01*
X119547694Y-70650388D01*
X119553777Y-70658699D01*
X119693213Y-70819667D01*
X119700577Y-70826879D01*
X119705522Y-70830985D01*
X119745156Y-70889889D01*
X119746653Y-70960870D01*
X119709537Y-71021392D01*
X119669264Y-71045910D01*
X119561705Y-71086232D01*
X119561704Y-71086233D01*
X119553295Y-71089385D01*
X119436739Y-71176739D01*
X119349385Y-71293295D01*
X119298255Y-71429684D01*
X119291500Y-71491866D01*
X119291500Y-73288134D01*
X119298255Y-73350316D01*
X119349385Y-73486705D01*
X119436739Y-73603261D01*
X119553295Y-73690615D01*
X119689684Y-73741745D01*
X119751866Y-73748500D01*
X121548134Y-73748500D01*
X121610316Y-73741745D01*
X121746705Y-73690615D01*
X121747764Y-73693440D01*
X121802360Y-73681505D01*
X121868906Y-73706248D01*
X121911511Y-73763040D01*
X121919500Y-73807193D01*
X121919500Y-74041500D01*
X121899498Y-74109621D01*
X121845842Y-74156114D01*
X121793500Y-74167500D01*
X116482605Y-74167500D01*
X116414484Y-74147498D01*
X116367991Y-74093842D01*
X116357887Y-74023568D01*
X116387381Y-73958988D01*
X116416302Y-73934355D01*
X116495294Y-73885474D01*
X116606519Y-73816646D01*
X116610082Y-73813629D01*
X116610087Y-73813626D01*
X116802439Y-73650787D01*
X116802440Y-73650786D01*
X116806005Y-73647768D01*
X116851333Y-73596081D01*
X116975257Y-73454774D01*
X116975261Y-73454769D01*
X116978339Y-73451259D01*
X117119733Y-73231437D01*
X117227083Y-72993129D01*
X117298030Y-72741572D01*
X117310230Y-72645671D01*
X117330616Y-72485421D01*
X117330616Y-72485417D01*
X117331014Y-72482291D01*
X117333431Y-72390000D01*
X117324473Y-72269461D01*
X117314407Y-72134000D01*
X117314406Y-72133996D01*
X117314061Y-72129348D01*
X117311468Y-72117885D01*
X117257408Y-71878980D01*
X117256377Y-71874423D01*
X117234978Y-71819395D01*
X117163340Y-71635176D01*
X117163339Y-71635173D01*
X117161647Y-71630823D01*
X117130840Y-71576921D01*
X117084207Y-71495331D01*
X117031951Y-71403902D01*
X116870138Y-71198643D01*
X116679763Y-71019557D01*
X116527437Y-70913884D01*
X116468851Y-70873241D01*
X116468848Y-70873239D01*
X116465009Y-70870576D01*
X116427635Y-70852145D01*
X116234781Y-70757040D01*
X116234778Y-70757039D01*
X116230593Y-70754975D01*
X116184449Y-70740204D01*
X115986123Y-70676720D01*
X115981665Y-70675293D01*
X115723693Y-70633279D01*
X115609942Y-70631790D01*
X115467022Y-70629919D01*
X115467019Y-70629919D01*
X115462345Y-70629858D01*
X115203362Y-70665104D01*
X115198876Y-70666412D01*
X115198874Y-70666412D01*
X115170988Y-70674540D01*
X114952433Y-70738243D01*
X114948180Y-70740203D01*
X114948179Y-70740204D01*
X114911659Y-70757040D01*
X114715072Y-70847668D01*
X114676067Y-70873241D01*
X114500404Y-70988410D01*
X114500399Y-70988414D01*
X114496491Y-70990976D01*
X114301494Y-71165018D01*
X114134363Y-71365970D01*
X114131934Y-71369973D01*
X114008652Y-71573136D01*
X113998771Y-71589419D01*
X113897697Y-71830455D01*
X113833359Y-72083783D01*
X113832891Y-72088434D01*
X113832890Y-72088438D01*
X113828552Y-72131525D01*
X113807173Y-72343839D01*
X113807397Y-72348505D01*
X113807397Y-72348510D01*
X113808192Y-72365055D01*
X113808893Y-72379647D01*
X113819713Y-72604908D01*
X113870704Y-72861256D01*
X113959026Y-73107252D01*
X113961242Y-73111376D01*
X114054357Y-73284672D01*
X114082737Y-73337491D01*
X114085532Y-73341234D01*
X114085534Y-73341237D01*
X114236330Y-73543177D01*
X114236335Y-73543183D01*
X114239122Y-73546915D01*
X114242431Y-73550195D01*
X114242436Y-73550201D01*
X114421426Y-73727635D01*
X114424743Y-73730923D01*
X114428505Y-73733681D01*
X114428508Y-73733684D01*
X114628935Y-73880643D01*
X114635524Y-73885474D01*
X114639667Y-73887654D01*
X114639669Y-73887655D01*
X114720139Y-73929992D01*
X114771112Y-73979411D01*
X114787275Y-74048543D01*
X114763496Y-74115439D01*
X114707326Y-74158860D01*
X114661472Y-74167500D01*
X107861399Y-74167500D01*
X107793278Y-74147498D01*
X107746785Y-74093842D01*
X107736681Y-74023568D01*
X107770916Y-73953814D01*
X107787686Y-73936509D01*
X107790669Y-73933431D01*
X107793202Y-73929983D01*
X107793206Y-73929978D01*
X107941841Y-73727635D01*
X107952795Y-73712723D01*
X107980293Y-73662079D01*
X108081418Y-73475830D01*
X108081419Y-73475828D01*
X108083468Y-73472054D01*
X108151699Y-73291486D01*
X108178751Y-73219895D01*
X108178752Y-73219891D01*
X108180269Y-73215877D01*
X108234148Y-72980627D01*
X108240449Y-72953117D01*
X108240450Y-72953113D01*
X108241407Y-72948933D01*
X108242371Y-72938141D01*
X108265531Y-72678627D01*
X108265532Y-72678616D01*
X108265751Y-72676161D01*
X108266193Y-72634000D01*
X108249775Y-72393160D01*
X108247859Y-72365055D01*
X108247858Y-72365049D01*
X108247567Y-72360778D01*
X108245027Y-72348510D01*
X108219598Y-72225722D01*
X108192032Y-72092612D01*
X108100617Y-71834465D01*
X108013561Y-71665798D01*
X107976978Y-71594919D01*
X107976978Y-71594918D01*
X107975013Y-71591112D01*
X107965040Y-71576921D01*
X107820008Y-71370562D01*
X107817545Y-71367057D01*
X107658072Y-71195443D01*
X107634046Y-71169588D01*
X107634043Y-71169585D01*
X107631125Y-71166445D01*
X107627810Y-71163731D01*
X107627806Y-71163728D01*
X107430840Y-71002513D01*
X107419205Y-70992990D01*
X107185704Y-70849901D01*
X107181768Y-70848173D01*
X106938873Y-70741549D01*
X106938869Y-70741548D01*
X106934945Y-70739825D01*
X106671566Y-70664800D01*
X106667324Y-70664196D01*
X106667318Y-70664195D01*
X106455374Y-70634031D01*
X106400443Y-70626213D01*
X106256589Y-70625460D01*
X106130877Y-70624802D01*
X106130871Y-70624802D01*
X106126591Y-70624780D01*
X106122347Y-70625339D01*
X106122343Y-70625339D01*
X106003302Y-70641011D01*
X105855078Y-70660525D01*
X105850938Y-70661658D01*
X105850936Y-70661658D01*
X105801095Y-70675293D01*
X105590928Y-70732788D01*
X105570388Y-70741549D01*
X105342982Y-70838546D01*
X105342978Y-70838548D01*
X105339030Y-70840232D01*
X105294967Y-70866603D01*
X105107725Y-70978664D01*
X105107721Y-70978667D01*
X105104043Y-70980868D01*
X104890318Y-71152094D01*
X104701808Y-71350742D01*
X104542002Y-71573136D01*
X104413857Y-71815161D01*
X104412385Y-71819184D01*
X104412383Y-71819188D01*
X104406604Y-71834980D01*
X104319743Y-72072337D01*
X104261404Y-72339907D01*
X104239917Y-72612918D01*
X104255682Y-72886320D01*
X104256507Y-72890525D01*
X104256508Y-72890533D01*
X104286917Y-73045526D01*
X104308405Y-73155053D01*
X104309792Y-73159103D01*
X104309793Y-73159108D01*
X104377792Y-73357715D01*
X104397112Y-73414144D01*
X104433606Y-73486705D01*
X104463889Y-73546915D01*
X104520160Y-73658799D01*
X104522586Y-73662328D01*
X104522589Y-73662334D01*
X104581810Y-73748500D01*
X104675274Y-73884490D01*
X104738689Y-73954182D01*
X104740980Y-73956700D01*
X104772032Y-74020546D01*
X104763637Y-74091045D01*
X104718461Y-74145813D01*
X104647787Y-74167500D01*
X102110704Y-74167500D01*
X102042583Y-74147498D01*
X101996090Y-74093842D01*
X101985986Y-74023568D01*
X102020219Y-73953816D01*
X102037303Y-73936187D01*
X102042823Y-73929655D01*
X102199834Y-73715909D01*
X102204418Y-73708686D01*
X102330962Y-73475621D01*
X102334530Y-73467827D01*
X102428271Y-73219750D01*
X102430748Y-73211544D01*
X102489954Y-72953038D01*
X102491294Y-72944577D01*
X102515031Y-72678616D01*
X102515277Y-72673677D01*
X102515666Y-72636485D01*
X102515523Y-72631519D01*
X102497362Y-72365123D01*
X102496201Y-72356649D01*
X102442419Y-72096944D01*
X102440120Y-72088709D01*
X102351588Y-71838705D01*
X102348191Y-71830854D01*
X102226550Y-71595178D01*
X102222122Y-71587866D01*
X102103031Y-71418417D01*
X102092509Y-71410037D01*
X102079121Y-71417089D01*
X100592095Y-72904115D01*
X100529783Y-72938141D01*
X100458968Y-72933076D01*
X100413905Y-72904115D01*
X98926814Y-71417024D01*
X98914804Y-71410466D01*
X98903064Y-71419434D01*
X98794935Y-71569911D01*
X98790418Y-71577196D01*
X98666325Y-71811567D01*
X98662839Y-71819395D01*
X98571700Y-72068446D01*
X98569311Y-72076670D01*
X98512812Y-72335795D01*
X98511563Y-72344250D01*
X98490754Y-72608653D01*
X98490665Y-72617204D01*
X98505932Y-72881969D01*
X98507005Y-72890470D01*
X98558065Y-73150722D01*
X98560276Y-73158974D01*
X98646184Y-73409894D01*
X98649499Y-73417779D01*
X98768664Y-73654713D01*
X98773020Y-73662079D01*
X98923236Y-73880643D01*
X98928547Y-73887344D01*
X98991656Y-73956700D01*
X99022707Y-74020546D01*
X99014312Y-74091045D01*
X98969136Y-74145813D01*
X98898462Y-74167500D01*
X92352605Y-74167500D01*
X92284484Y-74147498D01*
X92237991Y-74093842D01*
X92227887Y-74023568D01*
X92257381Y-73958988D01*
X92286302Y-73934355D01*
X92365294Y-73885474D01*
X92476519Y-73816646D01*
X92480082Y-73813629D01*
X92480087Y-73813626D01*
X92672439Y-73650787D01*
X92672440Y-73650786D01*
X92676005Y-73647768D01*
X92721333Y-73596081D01*
X92845257Y-73454774D01*
X92845261Y-73454769D01*
X92848339Y-73451259D01*
X92989733Y-73231437D01*
X93097083Y-72993129D01*
X93168030Y-72741572D01*
X93180230Y-72645671D01*
X93200616Y-72485421D01*
X93200616Y-72485417D01*
X93201014Y-72482291D01*
X93203431Y-72390000D01*
X93194473Y-72269461D01*
X93184407Y-72134000D01*
X93184406Y-72133996D01*
X93184061Y-72129348D01*
X93181468Y-72117885D01*
X93127408Y-71878980D01*
X93126377Y-71874423D01*
X93104978Y-71819395D01*
X93033340Y-71635176D01*
X93033339Y-71635173D01*
X93031647Y-71630823D01*
X93000840Y-71576921D01*
X92954207Y-71495331D01*
X92901951Y-71403902D01*
X92740138Y-71198643D01*
X92578404Y-71046500D01*
X99279584Y-71046500D01*
X99285980Y-71057770D01*
X100490188Y-72261978D01*
X100504132Y-72269592D01*
X100505965Y-72269461D01*
X100512580Y-72265210D01*
X101719604Y-71058186D01*
X101726795Y-71045017D01*
X101719473Y-71034780D01*
X101672233Y-70996115D01*
X101665261Y-70991160D01*
X101439122Y-70852582D01*
X101431552Y-70848624D01*
X101188704Y-70742022D01*
X101180644Y-70739120D01*
X100925592Y-70666467D01*
X100917214Y-70664685D01*
X100654656Y-70627318D01*
X100646111Y-70626691D01*
X100380908Y-70625302D01*
X100372374Y-70625839D01*
X100109433Y-70660456D01*
X100101035Y-70662149D01*
X99845238Y-70732127D01*
X99837143Y-70734946D01*
X99593199Y-70838997D01*
X99585577Y-70842881D01*
X99358013Y-70979075D01*
X99350981Y-70983962D01*
X99288053Y-71034377D01*
X99279584Y-71046500D01*
X92578404Y-71046500D01*
X92549763Y-71019557D01*
X92397437Y-70913884D01*
X92338851Y-70873241D01*
X92338848Y-70873239D01*
X92335009Y-70870576D01*
X92297635Y-70852145D01*
X92104781Y-70757040D01*
X92104778Y-70757039D01*
X92100593Y-70754975D01*
X92054449Y-70740204D01*
X91856123Y-70676720D01*
X91851665Y-70675293D01*
X91593693Y-70633279D01*
X91479942Y-70631790D01*
X91337022Y-70629919D01*
X91337019Y-70629919D01*
X91332345Y-70629858D01*
X91073362Y-70665104D01*
X91068876Y-70666412D01*
X91068874Y-70666412D01*
X91040988Y-70674540D01*
X90822433Y-70738243D01*
X90818180Y-70740203D01*
X90818179Y-70740204D01*
X90781659Y-70757040D01*
X90585072Y-70847668D01*
X90546067Y-70873241D01*
X90370404Y-70988410D01*
X90370399Y-70988414D01*
X90366491Y-70990976D01*
X90171494Y-71165018D01*
X90004363Y-71365970D01*
X90001934Y-71369973D01*
X89878652Y-71573136D01*
X89868771Y-71589419D01*
X89767697Y-71830455D01*
X89703359Y-72083783D01*
X89702891Y-72088434D01*
X89702890Y-72088438D01*
X89698552Y-72131525D01*
X89677173Y-72343839D01*
X89677397Y-72348505D01*
X89677397Y-72348510D01*
X89678192Y-72365055D01*
X89678893Y-72379647D01*
X89689713Y-72604908D01*
X89740704Y-72861256D01*
X89829026Y-73107252D01*
X89831242Y-73111376D01*
X89924357Y-73284672D01*
X89952737Y-73337491D01*
X89955532Y-73341234D01*
X89955534Y-73341237D01*
X90106330Y-73543177D01*
X90106335Y-73543183D01*
X90109122Y-73546915D01*
X90112431Y-73550195D01*
X90112436Y-73550201D01*
X90291426Y-73727635D01*
X90294743Y-73730923D01*
X90298505Y-73733681D01*
X90298508Y-73733684D01*
X90498935Y-73880643D01*
X90505524Y-73885474D01*
X90509667Y-73887654D01*
X90509669Y-73887655D01*
X90590139Y-73929992D01*
X90641112Y-73979411D01*
X90657275Y-74048543D01*
X90633496Y-74115439D01*
X90577326Y-74158860D01*
X90531472Y-74167500D01*
X85089500Y-74167500D01*
X85021379Y-74147498D01*
X84974886Y-74093842D01*
X84963500Y-74041500D01*
X84963500Y-73717197D01*
X84983502Y-73649076D01*
X85037158Y-73602583D01*
X85107432Y-73592479D01*
X85165065Y-73616371D01*
X85256351Y-73684786D01*
X85271946Y-73693324D01*
X85392394Y-73738478D01*
X85407649Y-73742105D01*
X85458514Y-73747631D01*
X85465328Y-73748000D01*
X86087885Y-73748000D01*
X86103124Y-73743525D01*
X86104329Y-73742135D01*
X86106000Y-73734452D01*
X86106000Y-73729884D01*
X86614000Y-73729884D01*
X86618475Y-73745123D01*
X86619865Y-73746328D01*
X86627548Y-73747999D01*
X87254669Y-73747999D01*
X87261490Y-73747629D01*
X87312352Y-73742105D01*
X87327604Y-73738479D01*
X87448054Y-73693324D01*
X87463649Y-73684786D01*
X87565724Y-73608285D01*
X87578285Y-73595724D01*
X87654786Y-73493649D01*
X87663324Y-73478054D01*
X87708478Y-73357606D01*
X87712105Y-73342351D01*
X87717631Y-73291486D01*
X87718000Y-73284672D01*
X87718000Y-72662115D01*
X87713525Y-72646876D01*
X87712135Y-72645671D01*
X87704452Y-72644000D01*
X86632115Y-72644000D01*
X86616876Y-72648475D01*
X86615671Y-72649865D01*
X86614000Y-72657548D01*
X86614000Y-73729884D01*
X86106000Y-73729884D01*
X86106000Y-72117885D01*
X86614000Y-72117885D01*
X86618475Y-72133124D01*
X86619865Y-72134329D01*
X86627548Y-72136000D01*
X87699884Y-72136000D01*
X87715123Y-72131525D01*
X87716328Y-72130135D01*
X87717999Y-72122452D01*
X87717999Y-71495331D01*
X87717629Y-71488510D01*
X87712105Y-71437648D01*
X87708479Y-71422396D01*
X87663324Y-71301946D01*
X87654786Y-71286351D01*
X87578285Y-71184276D01*
X87565724Y-71171715D01*
X87463649Y-71095214D01*
X87448054Y-71086676D01*
X87337297Y-71045155D01*
X87280533Y-71002513D01*
X87255833Y-70935952D01*
X87271040Y-70866603D01*
X87292587Y-70837922D01*
X87394057Y-70736805D01*
X87400730Y-70728965D01*
X87525003Y-70556020D01*
X87530313Y-70547183D01*
X87624670Y-70356267D01*
X87628469Y-70346672D01*
X87690377Y-70142910D01*
X87692555Y-70132837D01*
X87693986Y-70121962D01*
X87691775Y-70107778D01*
X87678617Y-70104000D01*
X86632115Y-70104000D01*
X86616876Y-70108475D01*
X86615671Y-70109865D01*
X86614000Y-70117548D01*
X86614000Y-72117885D01*
X86106000Y-72117885D01*
X86106000Y-69722000D01*
X86126002Y-69653879D01*
X86179658Y-69607386D01*
X86232000Y-69596000D01*
X87678344Y-69596000D01*
X87691875Y-69592027D01*
X87693002Y-69584183D01*
X119314389Y-69584183D01*
X119315912Y-69592607D01*
X119328292Y-69596000D01*
X120377885Y-69596000D01*
X120393124Y-69591525D01*
X120394329Y-69590135D01*
X120396000Y-69582452D01*
X120396000Y-67582115D01*
X120391525Y-67566876D01*
X120390135Y-67565671D01*
X120382452Y-67564000D01*
X119333225Y-67564000D01*
X119319694Y-67567973D01*
X119318257Y-67577966D01*
X119348565Y-67712446D01*
X119351645Y-67722275D01*
X119431770Y-67919603D01*
X119436413Y-67928794D01*
X119547694Y-68110388D01*
X119553777Y-68118699D01*
X119693213Y-68279667D01*
X119700580Y-68286883D01*
X119864434Y-68422916D01*
X119872881Y-68428831D01*
X119942479Y-68469501D01*
X119991203Y-68521140D01*
X120004274Y-68590923D01*
X119977543Y-68656694D01*
X119937087Y-68690053D01*
X119928462Y-68694542D01*
X119919738Y-68700036D01*
X119749433Y-68827905D01*
X119741726Y-68834748D01*
X119594590Y-68988717D01*
X119588104Y-68996727D01*
X119468098Y-69172649D01*
X119463000Y-69181623D01*
X119373338Y-69374783D01*
X119369775Y-69384470D01*
X119314389Y-69584183D01*
X87693002Y-69584183D01*
X87693180Y-69582947D01*
X87651214Y-69415875D01*
X87647894Y-69406124D01*
X87562972Y-69210814D01*
X87558105Y-69201739D01*
X87442426Y-69022926D01*
X87436136Y-69014757D01*
X87292806Y-68857240D01*
X87285273Y-68850215D01*
X87118139Y-68718222D01*
X87109556Y-68712520D01*
X87072602Y-68692120D01*
X87022631Y-68641687D01*
X87007859Y-68572245D01*
X87032975Y-68505839D01*
X87060327Y-68479232D01*
X87083797Y-68462491D01*
X87239860Y-68351173D01*
X87398096Y-68193489D01*
X87528453Y-68012077D01*
X87557498Y-67953310D01*
X87625136Y-67816453D01*
X87625137Y-67816451D01*
X87627430Y-67811811D01*
X87692370Y-67598069D01*
X87721529Y-67376590D01*
X87723156Y-67310000D01*
X87704852Y-67087361D01*
X87650431Y-66870702D01*
X87561354Y-66665840D01*
X87456008Y-66503000D01*
X87442822Y-66482617D01*
X87442820Y-66482614D01*
X87440014Y-66478277D01*
X87289670Y-66313051D01*
X87285619Y-66309852D01*
X87285615Y-66309848D01*
X87118414Y-66177800D01*
X87118410Y-66177798D01*
X87114359Y-66174598D01*
X87073053Y-66151796D01*
X87023084Y-66101364D01*
X87008312Y-66031921D01*
X87033428Y-65965516D01*
X87060780Y-65938909D01*
X87104603Y-65907650D01*
X87172396Y-65859294D01*
X89187709Y-65859294D01*
X89193132Y-65918315D01*
X89195743Y-65931351D01*
X89242715Y-66081243D01*
X89248921Y-66094988D01*
X89329824Y-66228574D01*
X89339131Y-66240443D01*
X89449557Y-66350869D01*
X89461426Y-66360176D01*
X89595012Y-66441079D01*
X89608757Y-66447285D01*
X89758644Y-66494256D01*
X89771694Y-66496869D01*
X89835521Y-66502734D01*
X89841309Y-66503000D01*
X89897885Y-66503000D01*
X89913124Y-66498525D01*
X89914329Y-66497135D01*
X89916000Y-66489452D01*
X89916000Y-66484884D01*
X90424000Y-66484884D01*
X90428475Y-66500123D01*
X90429865Y-66501328D01*
X90437548Y-66502999D01*
X90498705Y-66502999D01*
X90504454Y-66502736D01*
X90568315Y-66496868D01*
X90581351Y-66494257D01*
X90731243Y-66447285D01*
X90744988Y-66441079D01*
X90878574Y-66360176D01*
X90890443Y-66350869D01*
X91000869Y-66240443D01*
X91010176Y-66228574D01*
X91091079Y-66094988D01*
X91097285Y-66081243D01*
X91144256Y-65931356D01*
X91146869Y-65918306D01*
X91151913Y-65863414D01*
X91148525Y-65851876D01*
X91147135Y-65850671D01*
X91139452Y-65849000D01*
X90442115Y-65849000D01*
X90426876Y-65853475D01*
X90425671Y-65854865D01*
X90424000Y-65862548D01*
X90424000Y-66484884D01*
X89916000Y-66484884D01*
X89916000Y-65867115D01*
X89911525Y-65851876D01*
X89910135Y-65850671D01*
X89902452Y-65849000D01*
X89205116Y-65849000D01*
X89189877Y-65853475D01*
X89188672Y-65854865D01*
X89187709Y-65859294D01*
X87172396Y-65859294D01*
X87239860Y-65811173D01*
X87398096Y-65653489D01*
X87401116Y-65649287D01*
X87525435Y-65476277D01*
X87528453Y-65472077D01*
X87532611Y-65463665D01*
X87625136Y-65276453D01*
X87625137Y-65276451D01*
X87627430Y-65271811D01*
X87692370Y-65058069D01*
X87721529Y-64836590D01*
X87723156Y-64770000D01*
X87704852Y-64547361D01*
X87650431Y-64330702D01*
X87561354Y-64125840D01*
X87508339Y-64043892D01*
X87442822Y-63942617D01*
X87442820Y-63942614D01*
X87440014Y-63938277D01*
X87289670Y-63773051D01*
X87285619Y-63769852D01*
X87285615Y-63769848D01*
X87118414Y-63637800D01*
X87118410Y-63637798D01*
X87114359Y-63634598D01*
X87073053Y-63611796D01*
X87023084Y-63561364D01*
X87008312Y-63491921D01*
X87033428Y-63425516D01*
X87060780Y-63398909D01*
X87104603Y-63367650D01*
X87239860Y-63271173D01*
X87398096Y-63113489D01*
X87401116Y-63109287D01*
X87525435Y-62936277D01*
X87528453Y-62932077D01*
X87557498Y-62873310D01*
X87625136Y-62736453D01*
X87625137Y-62736451D01*
X87627430Y-62731811D01*
X87692370Y-62518069D01*
X87721529Y-62296590D01*
X87722449Y-62258944D01*
X87723074Y-62233365D01*
X87723074Y-62233361D01*
X87723156Y-62230000D01*
X87704852Y-62007361D01*
X87650431Y-61790702D01*
X87561354Y-61585840D01*
X87485120Y-61468000D01*
X87442822Y-61402617D01*
X87442820Y-61402614D01*
X87440014Y-61398277D01*
X87289670Y-61233051D01*
X87285619Y-61229852D01*
X87285615Y-61229848D01*
X87118414Y-61097800D01*
X87118410Y-61097798D01*
X87114359Y-61094598D01*
X87073053Y-61071796D01*
X87023084Y-61021364D01*
X87008312Y-60951921D01*
X87033428Y-60885516D01*
X87060780Y-60858909D01*
X87129195Y-60810109D01*
X87239860Y-60731173D01*
X87398096Y-60573489D01*
X87401116Y-60569287D01*
X87525435Y-60396277D01*
X87528453Y-60392077D01*
X87535487Y-60377846D01*
X87625136Y-60196453D01*
X87625137Y-60196451D01*
X87627430Y-60191811D01*
X87679161Y-60021545D01*
X87690865Y-59983023D01*
X87690865Y-59983021D01*
X87692370Y-59978069D01*
X87721529Y-59756590D01*
X87721816Y-59744842D01*
X87723074Y-59693365D01*
X87723074Y-59693361D01*
X87723156Y-59690000D01*
X87704852Y-59467361D01*
X87669946Y-59328395D01*
X87672750Y-59257455D01*
X87713463Y-59199291D01*
X87779158Y-59172372D01*
X87792150Y-59171700D01*
X93275606Y-59171700D01*
X93343727Y-59191702D01*
X93364701Y-59208605D01*
X93730343Y-59574247D01*
X93737887Y-59582537D01*
X93742000Y-59589018D01*
X93751625Y-59598056D01*
X93753833Y-59600130D01*
X93789799Y-59661343D01*
X93786960Y-59732283D01*
X93746220Y-59790427D01*
X93680512Y-59817315D01*
X93671540Y-59817918D01*
X93659565Y-59818295D01*
X93654998Y-59818438D01*
X93651043Y-59818500D01*
X93623144Y-59818500D01*
X93619154Y-59819004D01*
X93607320Y-59819936D01*
X93563111Y-59821326D01*
X93555497Y-59823538D01*
X93555492Y-59823539D01*
X93543659Y-59826977D01*
X93524296Y-59830988D01*
X93504203Y-59833526D01*
X93496836Y-59836443D01*
X93496831Y-59836444D01*
X93463092Y-59849802D01*
X93451865Y-59853646D01*
X93409407Y-59865982D01*
X93402581Y-59870019D01*
X93391972Y-59876293D01*
X93374224Y-59884988D01*
X93355383Y-59892448D01*
X93348967Y-59897110D01*
X93348966Y-59897110D01*
X93319613Y-59918436D01*
X93309693Y-59924952D01*
X93278465Y-59943420D01*
X93278462Y-59943422D01*
X93271638Y-59947458D01*
X93257317Y-59961779D01*
X93242284Y-59974619D01*
X93225893Y-59986528D01*
X93198834Y-60019237D01*
X93197702Y-60020605D01*
X93189712Y-60029384D01*
X90219500Y-62999595D01*
X90157188Y-63033621D01*
X90130405Y-63036500D01*
X89856386Y-63036501D01*
X89838366Y-63036501D01*
X89835508Y-63036764D01*
X89835499Y-63036764D01*
X89799996Y-63040026D01*
X89764938Y-63043247D01*
X89758560Y-63045246D01*
X89758559Y-63045246D01*
X89608550Y-63092256D01*
X89608548Y-63092257D01*
X89601301Y-63094528D01*
X89454619Y-63183361D01*
X89333361Y-63304619D01*
X89244528Y-63451301D01*
X89242257Y-63458548D01*
X89242256Y-63458550D01*
X89238481Y-63470596D01*
X89193247Y-63614938D01*
X89186500Y-63688365D01*
X89186501Y-64201634D01*
X89186764Y-64204492D01*
X89186764Y-64204501D01*
X89190026Y-64240004D01*
X89193247Y-64275062D01*
X89195246Y-64281440D01*
X89195246Y-64281441D01*
X89210684Y-64330702D01*
X89244528Y-64438699D01*
X89333361Y-64585381D01*
X89429239Y-64681259D01*
X89463265Y-64743571D01*
X89458200Y-64814386D01*
X89429239Y-64859449D01*
X89339131Y-64949557D01*
X89329824Y-64961426D01*
X89248921Y-65095012D01*
X89242715Y-65108757D01*
X89195744Y-65258644D01*
X89193131Y-65271694D01*
X89188087Y-65326586D01*
X89191475Y-65338124D01*
X89192865Y-65339329D01*
X89200548Y-65341000D01*
X91134884Y-65341000D01*
X91150123Y-65336525D01*
X91151328Y-65335135D01*
X91152291Y-65330706D01*
X91146868Y-65271685D01*
X91144257Y-65258649D01*
X91097285Y-65108757D01*
X91091079Y-65095012D01*
X91010176Y-64961426D01*
X91000869Y-64949557D01*
X90910761Y-64859449D01*
X90876735Y-64797137D01*
X90881800Y-64726322D01*
X90910761Y-64681259D01*
X91006639Y-64585381D01*
X91095472Y-64438699D01*
X91146753Y-64275062D01*
X91153500Y-64201635D01*
X91153500Y-64162934D01*
X91173502Y-64094813D01*
X91227158Y-64048320D01*
X91297432Y-64038216D01*
X91362012Y-64067710D01*
X91377972Y-64084326D01*
X91446535Y-64170214D01*
X91446540Y-64170220D01*
X91448738Y-64172973D01*
X91957025Y-64681259D01*
X92461145Y-65185379D01*
X92470247Y-65195522D01*
X92493968Y-65225025D01*
X92498696Y-65228992D01*
X92532421Y-65257291D01*
X92536069Y-65260472D01*
X92537881Y-65262115D01*
X92540075Y-65264309D01*
X92573349Y-65291642D01*
X92574147Y-65292304D01*
X92645474Y-65352154D01*
X92650144Y-65354722D01*
X92654261Y-65358103D01*
X92686030Y-65375137D01*
X92736086Y-65401977D01*
X92737245Y-65402606D01*
X92813381Y-65444462D01*
X92813389Y-65444465D01*
X92818787Y-65447433D01*
X92823869Y-65449045D01*
X92828563Y-65451562D01*
X92917531Y-65478762D01*
X92918559Y-65479082D01*
X93007306Y-65507235D01*
X93012602Y-65507829D01*
X93017698Y-65509387D01*
X93110257Y-65518790D01*
X93111393Y-65518911D01*
X93145008Y-65522681D01*
X93157730Y-65524108D01*
X93157734Y-65524108D01*
X93161227Y-65524500D01*
X93164754Y-65524500D01*
X93165739Y-65524555D01*
X93171419Y-65525002D01*
X93200825Y-65527989D01*
X93208337Y-65528752D01*
X93208339Y-65528752D01*
X93214462Y-65529374D01*
X93260108Y-65525059D01*
X93271967Y-65524500D01*
X98744157Y-65524500D01*
X98757764Y-65525237D01*
X98789262Y-65528659D01*
X98789267Y-65528659D01*
X98795388Y-65529324D01*
X98821638Y-65527027D01*
X98845388Y-65524950D01*
X98850214Y-65524621D01*
X98852686Y-65524500D01*
X98855769Y-65524500D01*
X98867738Y-65523326D01*
X98898506Y-65520310D01*
X98899819Y-65520188D01*
X98944084Y-65516315D01*
X98992413Y-65512087D01*
X98997532Y-65510600D01*
X99002833Y-65510080D01*
X99091834Y-65483209D01*
X99092967Y-65482874D01*
X99176414Y-65458630D01*
X99176418Y-65458628D01*
X99182336Y-65456909D01*
X99187068Y-65454456D01*
X99192169Y-65452916D01*
X99199173Y-65449192D01*
X99274260Y-65409269D01*
X99275426Y-65408657D01*
X99352453Y-65368729D01*
X99357926Y-65365892D01*
X99362089Y-65362569D01*
X99366796Y-65360066D01*
X99438918Y-65301245D01*
X99439774Y-65300554D01*
X99478973Y-65269262D01*
X99481477Y-65266758D01*
X99482195Y-65266116D01*
X99486528Y-65262415D01*
X99520062Y-65235065D01*
X99549288Y-65199737D01*
X99557277Y-65190958D01*
X102742829Y-62005405D01*
X102805141Y-61971379D01*
X102831924Y-61968500D01*
X102916304Y-61968500D01*
X102984425Y-61988502D01*
X102997284Y-61997970D01*
X103059474Y-62050154D01*
X103064872Y-62053121D01*
X103064877Y-62053125D01*
X103208180Y-62131905D01*
X103232787Y-62145433D01*
X103238654Y-62147294D01*
X103238656Y-62147295D01*
X103410638Y-62201851D01*
X103421306Y-62205235D01*
X103575227Y-62222500D01*
X105967769Y-62222500D01*
X105970825Y-62222200D01*
X105970832Y-62222200D01*
X106029340Y-62216463D01*
X106114833Y-62208080D01*
X106120734Y-62206298D01*
X106120736Y-62206298D01*
X106194053Y-62184162D01*
X106304169Y-62150916D01*
X106478796Y-62058066D01*
X106565062Y-61987709D01*
X106627287Y-61936960D01*
X106627290Y-61936957D01*
X106632062Y-61933065D01*
X106635991Y-61928316D01*
X106754201Y-61785425D01*
X106754203Y-61785421D01*
X106758130Y-61780675D01*
X106852198Y-61606701D01*
X106910682Y-61417768D01*
X106911967Y-61405546D01*
X106930711Y-61227204D01*
X106930711Y-61227202D01*
X106931355Y-61221075D01*
X106913430Y-61024112D01*
X106892184Y-60951921D01*
X106872640Y-60885516D01*
X106857590Y-60834381D01*
X106853504Y-60826564D01*
X106768813Y-60664568D01*
X106765960Y-60659110D01*
X106642032Y-60504975D01*
X106490526Y-60377846D01*
X106485128Y-60374879D01*
X106485123Y-60374875D01*
X106322608Y-60285533D01*
X106322609Y-60285533D01*
X106317213Y-60282567D01*
X106311346Y-60280706D01*
X106311344Y-60280705D01*
X106134564Y-60224627D01*
X106134563Y-60224627D01*
X106128694Y-60222765D01*
X105974773Y-60205500D01*
X104766500Y-60205500D01*
X104698379Y-60185498D01*
X104651886Y-60131842D01*
X104640500Y-60079500D01*
X104640500Y-58674000D01*
X105766496Y-58674000D01*
X105767186Y-58680565D01*
X105782433Y-58825628D01*
X105786458Y-58863928D01*
X105845473Y-59045556D01*
X105940960Y-59210944D01*
X105945378Y-59215851D01*
X105945379Y-59215852D01*
X105994175Y-59270045D01*
X106068747Y-59352866D01*
X106136578Y-59402148D01*
X106210883Y-59456134D01*
X106223248Y-59465118D01*
X106229276Y-59467802D01*
X106229278Y-59467803D01*
X106390951Y-59539784D01*
X106397712Y-59542794D01*
X106491112Y-59562647D01*
X106578056Y-59581128D01*
X106578061Y-59581128D01*
X106584513Y-59582500D01*
X106640406Y-59582500D01*
X106708527Y-59602502D01*
X106729501Y-59619405D01*
X108780878Y-61670783D01*
X108814904Y-61733095D01*
X108817093Y-61746706D01*
X108834458Y-61911928D01*
X108893473Y-62093556D01*
X108988960Y-62258944D01*
X108993378Y-62263851D01*
X108993379Y-62263852D01*
X109025844Y-62299908D01*
X109116747Y-62400866D01*
X109271248Y-62513118D01*
X109277276Y-62515802D01*
X109277278Y-62515803D01*
X109386515Y-62564438D01*
X109445712Y-62590794D01*
X109539112Y-62610647D01*
X109626056Y-62629128D01*
X109626061Y-62629128D01*
X109632513Y-62630500D01*
X109823487Y-62630500D01*
X109829939Y-62629128D01*
X109829944Y-62629128D01*
X109916887Y-62610647D01*
X110010288Y-62590794D01*
X110069485Y-62564438D01*
X110178722Y-62515803D01*
X110178724Y-62515802D01*
X110184752Y-62513118D01*
X110339253Y-62400866D01*
X110430156Y-62299908D01*
X110462621Y-62263852D01*
X110462622Y-62263851D01*
X110467040Y-62258944D01*
X110562527Y-62093556D01*
X110621542Y-61911928D01*
X110637059Y-61764297D01*
X110640814Y-61728565D01*
X110641504Y-61722000D01*
X110628767Y-61600814D01*
X110622232Y-61538635D01*
X110622232Y-61538633D01*
X110621542Y-61532072D01*
X110562527Y-61350444D01*
X110467040Y-61185056D01*
X110388475Y-61097800D01*
X110343675Y-61048045D01*
X110343674Y-61048044D01*
X110339253Y-61043134D01*
X110321774Y-61030435D01*
X110278422Y-60974213D01*
X110272347Y-60903477D01*
X110305479Y-60840685D01*
X110321771Y-60826567D01*
X110339253Y-60813866D01*
X110343667Y-60808964D01*
X110348580Y-60804540D01*
X110349705Y-60805789D01*
X110403014Y-60772949D01*
X110436200Y-60768500D01*
X112875443Y-60768500D01*
X112926692Y-60779393D01*
X112985979Y-60805789D01*
X113001712Y-60812794D01*
X113077574Y-60828919D01*
X113182056Y-60851128D01*
X113182061Y-60851128D01*
X113188513Y-60852500D01*
X113379487Y-60852500D01*
X113385939Y-60851128D01*
X113385944Y-60851128D01*
X113490426Y-60828919D01*
X113566288Y-60812794D01*
X113574266Y-60809242D01*
X113734722Y-60737803D01*
X113734724Y-60737802D01*
X113740752Y-60735118D01*
X113751198Y-60727529D01*
X113796157Y-60694864D01*
X113895253Y-60622866D01*
X113997075Y-60509781D01*
X114018621Y-60485852D01*
X114018622Y-60485851D01*
X114023040Y-60480944D01*
X114118527Y-60315556D01*
X114177542Y-60133928D01*
X114179727Y-60113145D01*
X114196814Y-59950565D01*
X114197504Y-59944000D01*
X114190918Y-59881341D01*
X114178232Y-59760635D01*
X114178232Y-59760633D01*
X114177542Y-59754072D01*
X114118527Y-59572444D01*
X114023040Y-59407056D01*
X113977744Y-59356749D01*
X113899675Y-59270045D01*
X113899674Y-59270044D01*
X113895253Y-59265134D01*
X113740752Y-59152882D01*
X113734724Y-59150198D01*
X113734722Y-59150197D01*
X113572319Y-59077891D01*
X113572318Y-59077891D01*
X113566288Y-59075206D01*
X113453721Y-59051279D01*
X113385944Y-59036872D01*
X113385939Y-59036872D01*
X113379487Y-59035500D01*
X113188513Y-59035500D01*
X113182061Y-59036872D01*
X113182056Y-59036872D01*
X113114279Y-59051279D01*
X113001712Y-59075206D01*
X112995682Y-59077891D01*
X112995681Y-59077891D01*
X112833278Y-59150197D01*
X112833276Y-59150198D01*
X112827248Y-59152882D01*
X112672747Y-59265134D01*
X112668326Y-59270044D01*
X112668325Y-59270045D01*
X112590257Y-59356749D01*
X112544960Y-59407056D01*
X112526806Y-59438500D01*
X112475424Y-59487493D01*
X112417687Y-59501500D01*
X110436200Y-59501500D01*
X110368079Y-59481498D01*
X110348853Y-59465157D01*
X110348580Y-59465460D01*
X110343668Y-59461037D01*
X110339253Y-59456134D01*
X110202462Y-59356749D01*
X110190094Y-59347763D01*
X110190093Y-59347762D01*
X110184752Y-59343882D01*
X110178724Y-59341198D01*
X110178722Y-59341197D01*
X110016319Y-59268891D01*
X110016318Y-59268891D01*
X110010288Y-59266206D01*
X109916887Y-59246353D01*
X109829944Y-59227872D01*
X109829939Y-59227872D01*
X109823487Y-59226500D01*
X109632513Y-59226500D01*
X109626061Y-59227872D01*
X109626056Y-59227872D01*
X109539113Y-59246353D01*
X109445712Y-59266206D01*
X109439682Y-59268891D01*
X109439681Y-59268891D01*
X109277278Y-59341197D01*
X109277276Y-59341198D01*
X109271248Y-59343882D01*
X109265907Y-59347762D01*
X109265906Y-59347763D01*
X109253538Y-59356749D01*
X109116747Y-59456134D01*
X109112326Y-59461044D01*
X109112325Y-59461045D01*
X109002967Y-59582500D01*
X108988960Y-59598056D01*
X108893473Y-59763444D01*
X108891510Y-59762311D01*
X108852285Y-59808442D01*
X108784354Y-59829079D01*
X108716049Y-59809713D01*
X108694083Y-59792179D01*
X108171950Y-59270045D01*
X107627122Y-58725217D01*
X107593096Y-58662905D01*
X107590907Y-58649292D01*
X107574232Y-58490635D01*
X107574232Y-58490633D01*
X107573542Y-58484072D01*
X107514527Y-58302444D01*
X107504652Y-58285339D01*
X107461034Y-58209791D01*
X107419040Y-58137056D01*
X107349208Y-58059499D01*
X107295675Y-58000045D01*
X107295674Y-58000044D01*
X107291253Y-57995134D01*
X107166782Y-57904700D01*
X107142094Y-57886763D01*
X107142093Y-57886762D01*
X107136752Y-57882882D01*
X107130724Y-57880198D01*
X107130722Y-57880197D01*
X106968319Y-57807891D01*
X106968318Y-57807891D01*
X106962288Y-57805206D01*
X106868888Y-57785353D01*
X106781944Y-57766872D01*
X106781939Y-57766872D01*
X106775487Y-57765500D01*
X106584513Y-57765500D01*
X106578061Y-57766872D01*
X106578056Y-57766872D01*
X106491113Y-57785353D01*
X106397712Y-57805206D01*
X106391682Y-57807891D01*
X106391681Y-57807891D01*
X106229278Y-57880197D01*
X106229276Y-57880198D01*
X106223248Y-57882882D01*
X106217907Y-57886762D01*
X106217906Y-57886763D01*
X106193218Y-57904700D01*
X106068747Y-57995134D01*
X106064326Y-58000044D01*
X106064325Y-58000045D01*
X106010793Y-58059499D01*
X105940960Y-58137056D01*
X105898966Y-58209791D01*
X105855349Y-58285339D01*
X105845473Y-58302444D01*
X105786458Y-58484072D01*
X105785768Y-58490633D01*
X105785768Y-58490635D01*
X105775983Y-58583735D01*
X105766496Y-58674000D01*
X104640500Y-58674000D01*
X104640500Y-58635925D01*
X104660502Y-58567804D01*
X104677405Y-58546830D01*
X106044829Y-57179405D01*
X106107141Y-57145380D01*
X106133924Y-57142500D01*
X106475769Y-57142500D01*
X106478825Y-57142200D01*
X106478832Y-57142200D01*
X106537340Y-57136463D01*
X106622833Y-57128080D01*
X106628734Y-57126298D01*
X106628736Y-57126298D01*
X106715368Y-57100142D01*
X106812169Y-57070916D01*
X106986796Y-56978066D01*
X107073062Y-56907709D01*
X107135287Y-56856960D01*
X107135290Y-56856957D01*
X107140062Y-56853065D01*
X107143991Y-56848316D01*
X107262201Y-56705425D01*
X107262203Y-56705421D01*
X107266130Y-56700675D01*
X107360198Y-56526701D01*
X107418682Y-56337768D01*
X107421732Y-56308749D01*
X107438711Y-56147204D01*
X107438711Y-56147202D01*
X107439355Y-56141075D01*
X107423467Y-55966491D01*
X107421989Y-55950251D01*
X107421988Y-55950248D01*
X107421430Y-55944112D01*
X107400184Y-55871921D01*
X107376594Y-55791769D01*
X107365590Y-55754381D01*
X107361900Y-55747321D01*
X107301906Y-55632565D01*
X107273960Y-55579110D01*
X107150032Y-55424975D01*
X107143727Y-55419684D01*
X107101062Y-55383884D01*
X106998526Y-55297846D01*
X106993128Y-55294879D01*
X106993123Y-55294875D01*
X106830608Y-55205533D01*
X106830609Y-55205533D01*
X106825213Y-55202567D01*
X106819346Y-55200706D01*
X106819344Y-55200705D01*
X106642564Y-55144627D01*
X106642563Y-55144627D01*
X106636694Y-55142765D01*
X106482773Y-55125500D01*
X105725843Y-55125500D01*
X105712236Y-55124763D01*
X105680738Y-55121341D01*
X105680733Y-55121341D01*
X105674612Y-55120676D01*
X105648362Y-55122973D01*
X105624612Y-55125050D01*
X105619786Y-55125379D01*
X105617314Y-55125500D01*
X105614231Y-55125500D01*
X105602262Y-55126674D01*
X105571494Y-55129690D01*
X105570181Y-55129812D01*
X105525916Y-55133685D01*
X105477587Y-55137913D01*
X105472468Y-55139400D01*
X105467167Y-55139920D01*
X105378166Y-55166791D01*
X105377033Y-55167126D01*
X105293586Y-55191370D01*
X105293582Y-55191372D01*
X105287664Y-55193091D01*
X105282932Y-55195544D01*
X105277831Y-55197084D01*
X105272388Y-55199978D01*
X105195740Y-55240731D01*
X105194574Y-55241343D01*
X105157176Y-55260729D01*
X105112074Y-55284108D01*
X105107911Y-55287431D01*
X105103204Y-55289934D01*
X105031082Y-55348755D01*
X105030226Y-55349446D01*
X104991027Y-55380738D01*
X104988523Y-55383242D01*
X104987805Y-55383884D01*
X104983472Y-55387585D01*
X104949938Y-55414935D01*
X104946011Y-55419682D01*
X104946009Y-55419684D01*
X104920713Y-55450262D01*
X104912723Y-55459042D01*
X102962621Y-57409145D01*
X102952478Y-57418247D01*
X102922975Y-57441968D01*
X102919008Y-57446696D01*
X102890709Y-57480421D01*
X102887528Y-57484069D01*
X102885885Y-57485881D01*
X102883691Y-57488075D01*
X102856358Y-57521349D01*
X102855696Y-57522147D01*
X102795846Y-57593474D01*
X102793278Y-57598144D01*
X102789897Y-57602261D01*
X102766982Y-57644998D01*
X102746023Y-57684086D01*
X102745394Y-57685245D01*
X102703538Y-57761381D01*
X102703535Y-57761389D01*
X102700567Y-57766787D01*
X102698955Y-57771869D01*
X102696438Y-57776563D01*
X102669238Y-57865531D01*
X102668918Y-57866559D01*
X102640765Y-57955306D01*
X102640171Y-57960602D01*
X102638613Y-57965698D01*
X102629446Y-58055945D01*
X102629218Y-58058187D01*
X102629089Y-58059393D01*
X102623500Y-58109227D01*
X102623500Y-58112754D01*
X102623445Y-58113739D01*
X102622998Y-58119419D01*
X102618626Y-58162462D01*
X102622353Y-58201892D01*
X102622941Y-58208109D01*
X102623500Y-58219967D01*
X102623500Y-59825500D01*
X102603498Y-59893621D01*
X102549842Y-59940114D01*
X102497500Y-59951500D01*
X102423840Y-59951500D01*
X102410232Y-59950763D01*
X102378736Y-59947341D01*
X102378732Y-59947341D01*
X102372611Y-59946676D01*
X102354611Y-59948251D01*
X102322609Y-59951050D01*
X102317784Y-59951379D01*
X102315313Y-59951500D01*
X102312231Y-59951500D01*
X102289763Y-59953703D01*
X102269489Y-59955691D01*
X102268174Y-59955813D01*
X102235913Y-59958636D01*
X102175587Y-59963913D01*
X102170468Y-59965400D01*
X102165167Y-59965920D01*
X102076194Y-59992782D01*
X102075054Y-59993120D01*
X101985663Y-60019091D01*
X101980929Y-60021545D01*
X101975831Y-60023084D01*
X101970387Y-60025978D01*
X101970386Y-60025979D01*
X101893831Y-60066684D01*
X101892663Y-60067298D01*
X101810074Y-60110108D01*
X101805911Y-60113431D01*
X101801204Y-60115934D01*
X101796430Y-60119828D01*
X101796428Y-60119829D01*
X101729105Y-60174737D01*
X101728160Y-60175500D01*
X101689027Y-60206739D01*
X101686536Y-60209230D01*
X101685809Y-60209880D01*
X101681463Y-60213592D01*
X101662588Y-60228987D01*
X101647938Y-60240935D01*
X101644015Y-60245677D01*
X101644013Y-60245679D01*
X101618703Y-60276273D01*
X101610713Y-60285053D01*
X98425171Y-63470595D01*
X98362859Y-63504621D01*
X98336076Y-63507500D01*
X93687926Y-63507500D01*
X93619805Y-63487498D01*
X93598831Y-63470596D01*
X92882094Y-62753860D01*
X92879925Y-62751691D01*
X92765739Y-62657897D01*
X92646584Y-62594008D01*
X92596005Y-62544193D01*
X92580385Y-62474936D01*
X92604688Y-62408228D01*
X92617034Y-62393871D01*
X93888500Y-61122405D01*
X93950812Y-61088379D01*
X93977595Y-61085500D01*
X96983800Y-61085500D01*
X97051921Y-61105502D01*
X97071147Y-61121843D01*
X97071420Y-61121540D01*
X97076332Y-61125963D01*
X97080747Y-61130866D01*
X97086086Y-61134745D01*
X97226657Y-61236876D01*
X97235248Y-61243118D01*
X97241283Y-61245805D01*
X97316774Y-61279417D01*
X97370869Y-61325397D01*
X97391518Y-61393324D01*
X97390834Y-61407693D01*
X97384496Y-61468000D01*
X97385186Y-61474565D01*
X97397381Y-61590590D01*
X97404458Y-61657928D01*
X97463473Y-61839556D01*
X97558960Y-62004944D01*
X97563378Y-62009851D01*
X97563379Y-62009852D01*
X97682325Y-62141955D01*
X97686747Y-62146866D01*
X97841248Y-62259118D01*
X97847276Y-62261802D01*
X97847278Y-62261803D01*
X97932864Y-62299908D01*
X98015712Y-62336794D01*
X98109112Y-62356647D01*
X98196056Y-62375128D01*
X98196061Y-62375128D01*
X98202513Y-62376500D01*
X98393487Y-62376500D01*
X98399939Y-62375128D01*
X98399944Y-62375128D01*
X98486887Y-62356647D01*
X98580288Y-62336794D01*
X98663136Y-62299908D01*
X98748722Y-62261803D01*
X98748724Y-62261802D01*
X98754752Y-62259118D01*
X98909253Y-62146866D01*
X98913675Y-62141955D01*
X99032621Y-62009852D01*
X99032622Y-62009851D01*
X99037040Y-62004944D01*
X99132527Y-61839556D01*
X99191542Y-61657928D01*
X99198620Y-61590590D01*
X99210814Y-61474565D01*
X99211504Y-61468000D01*
X99204005Y-61396651D01*
X99208069Y-61351131D01*
X99209498Y-61347828D01*
X99210737Y-61340005D01*
X99210740Y-61339995D01*
X99216416Y-61304159D01*
X99218822Y-61292539D01*
X99227845Y-61257394D01*
X99227845Y-61257393D01*
X99229817Y-61249713D01*
X99229817Y-61229459D01*
X99231368Y-61209748D01*
X99233297Y-61197569D01*
X99234537Y-61189740D01*
X99230376Y-61145721D01*
X99229817Y-61133864D01*
X99229817Y-54120795D01*
X99249819Y-54052674D01*
X99266722Y-54031699D01*
X99344878Y-53953544D01*
X99452258Y-53846164D01*
X99460537Y-53838630D01*
X99467018Y-53834517D01*
X99513644Y-53784865D01*
X99516398Y-53782024D01*
X99536135Y-53762287D01*
X99538615Y-53759090D01*
X99546320Y-53750068D01*
X99576586Y-53717838D01*
X99580405Y-53710892D01*
X99580407Y-53710889D01*
X99586348Y-53700083D01*
X99597199Y-53683564D01*
X99604758Y-53673818D01*
X99609614Y-53667558D01*
X99612759Y-53660289D01*
X99612762Y-53660285D01*
X99627174Y-53626980D01*
X99632391Y-53616330D01*
X99653695Y-53577577D01*
X99658733Y-53557954D01*
X99665137Y-53539251D01*
X99670033Y-53527937D01*
X99670033Y-53527936D01*
X99673181Y-53520662D01*
X99674420Y-53512839D01*
X99674423Y-53512829D01*
X99680099Y-53476993D01*
X99682505Y-53465373D01*
X99691528Y-53430228D01*
X99691528Y-53430227D01*
X99693500Y-53422547D01*
X99693500Y-53402293D01*
X99695051Y-53382582D01*
X99696980Y-53370403D01*
X99698220Y-53362574D01*
X99694059Y-53318555D01*
X99693500Y-53306698D01*
X99693500Y-53001677D01*
X99713502Y-52933556D01*
X99767158Y-52887063D01*
X99839212Y-52877228D01*
X99881323Y-52883898D01*
X99892944Y-52886305D01*
X99928089Y-52895328D01*
X99935770Y-52897300D01*
X99956024Y-52897300D01*
X99975734Y-52898851D01*
X99995743Y-52902020D01*
X100003635Y-52901274D01*
X100022380Y-52899502D01*
X100039762Y-52897859D01*
X100051619Y-52897300D01*
X104375433Y-52897300D01*
X104386617Y-52897827D01*
X104394109Y-52899502D01*
X104401948Y-52899256D01*
X104467847Y-52925565D01*
X104509084Y-52983358D01*
X104515363Y-53011510D01*
X104516458Y-53021928D01*
X104518498Y-53028205D01*
X104518498Y-53028207D01*
X104523755Y-53044386D01*
X104575473Y-53203556D01*
X104670960Y-53368944D01*
X104675378Y-53373851D01*
X104675379Y-53373852D01*
X104792891Y-53504362D01*
X104798747Y-53510866D01*
X104863559Y-53557955D01*
X104947542Y-53618972D01*
X104953248Y-53623118D01*
X104959276Y-53625802D01*
X104959278Y-53625803D01*
X105121681Y-53698109D01*
X105127712Y-53700794D01*
X105221113Y-53720647D01*
X105308056Y-53739128D01*
X105308061Y-53739128D01*
X105314513Y-53740500D01*
X105370405Y-53740500D01*
X105438526Y-53760502D01*
X105459500Y-53777405D01*
X105668348Y-53986253D01*
X105675888Y-53994539D01*
X105680000Y-54001018D01*
X105685777Y-54006443D01*
X105729651Y-54047643D01*
X105732493Y-54050398D01*
X105752230Y-54070135D01*
X105755427Y-54072615D01*
X105764447Y-54080318D01*
X105796679Y-54110586D01*
X105803625Y-54114405D01*
X105803628Y-54114407D01*
X105814434Y-54120348D01*
X105830953Y-54131199D01*
X105846959Y-54143614D01*
X105854228Y-54146759D01*
X105854232Y-54146762D01*
X105887537Y-54161174D01*
X105898187Y-54166391D01*
X105936940Y-54187695D01*
X105944615Y-54189666D01*
X105944616Y-54189666D01*
X105956562Y-54192733D01*
X105975267Y-54199137D01*
X105993855Y-54207181D01*
X106001678Y-54208420D01*
X106001688Y-54208423D01*
X106037524Y-54214099D01*
X106049144Y-54216505D01*
X106075023Y-54223149D01*
X106091970Y-54227500D01*
X106112224Y-54227500D01*
X106131934Y-54229051D01*
X106151943Y-54232220D01*
X106159835Y-54231474D01*
X106195961Y-54228059D01*
X106207819Y-54227500D01*
X109159406Y-54227500D01*
X109227527Y-54247502D01*
X109248501Y-54264405D01*
X110125796Y-55141701D01*
X111002348Y-56018253D01*
X111009888Y-56026539D01*
X111014000Y-56033018D01*
X111019777Y-56038443D01*
X111063651Y-56079643D01*
X111066493Y-56082398D01*
X111086230Y-56102135D01*
X111089427Y-56104615D01*
X111098447Y-56112318D01*
X111130679Y-56142586D01*
X111137625Y-56146405D01*
X111137628Y-56146407D01*
X111148434Y-56152348D01*
X111164953Y-56163199D01*
X111180959Y-56175614D01*
X111188228Y-56178759D01*
X111188232Y-56178762D01*
X111221537Y-56193174D01*
X111232187Y-56198391D01*
X111270940Y-56219695D01*
X111278615Y-56221666D01*
X111278616Y-56221666D01*
X111290562Y-56224733D01*
X111309267Y-56231137D01*
X111327855Y-56239181D01*
X111335678Y-56240420D01*
X111335688Y-56240423D01*
X111371524Y-56246099D01*
X111383144Y-56248505D01*
X111417319Y-56257279D01*
X111425970Y-56259500D01*
X111446224Y-56259500D01*
X111465934Y-56261051D01*
X111485943Y-56264220D01*
X111493835Y-56263474D01*
X111529961Y-56260059D01*
X111541819Y-56259500D01*
X111813800Y-56259500D01*
X111881921Y-56279502D01*
X111901147Y-56295843D01*
X111901420Y-56295540D01*
X111906332Y-56299963D01*
X111910747Y-56304866D01*
X111925304Y-56315442D01*
X111964133Y-56343653D01*
X112065248Y-56417118D01*
X112071276Y-56419802D01*
X112071278Y-56419803D01*
X112179035Y-56467779D01*
X112239712Y-56494794D01*
X112333113Y-56514647D01*
X112420056Y-56533128D01*
X112420061Y-56533128D01*
X112426513Y-56534500D01*
X112617487Y-56534500D01*
X112623939Y-56533128D01*
X112623944Y-56533128D01*
X112710888Y-56514647D01*
X112804288Y-56494794D01*
X112864965Y-56467779D01*
X112972722Y-56419803D01*
X112972724Y-56419802D01*
X112978752Y-56417118D01*
X113133253Y-56304866D01*
X113169851Y-56264220D01*
X113256621Y-56167852D01*
X113256622Y-56167851D01*
X113261040Y-56162944D01*
X113356527Y-55997556D01*
X113415542Y-55815928D01*
X113416637Y-55805516D01*
X113434814Y-55632565D01*
X113435504Y-55626000D01*
X113425786Y-55533542D01*
X113416232Y-55442635D01*
X113416232Y-55442633D01*
X113415542Y-55436072D01*
X113356527Y-55254444D01*
X113341849Y-55229020D01*
X113290873Y-55140729D01*
X113261040Y-55089056D01*
X113133253Y-54947134D01*
X112978752Y-54834882D01*
X112972724Y-54832198D01*
X112972722Y-54832197D01*
X112810319Y-54759891D01*
X112810318Y-54759891D01*
X112804288Y-54757206D01*
X112710887Y-54737353D01*
X112623944Y-54718872D01*
X112623939Y-54718872D01*
X112617487Y-54717500D01*
X112426513Y-54717500D01*
X112420061Y-54718872D01*
X112420056Y-54718872D01*
X112333112Y-54737353D01*
X112239712Y-54757206D01*
X112233682Y-54759891D01*
X112233681Y-54759891D01*
X112071278Y-54832197D01*
X112071276Y-54832198D01*
X112065248Y-54834882D01*
X112059907Y-54838762D01*
X112059906Y-54838763D01*
X112010453Y-54874693D01*
X111910747Y-54947134D01*
X111906332Y-54952037D01*
X111901420Y-54956460D01*
X111899386Y-54954201D01*
X111850105Y-54984504D01*
X111779122Y-54983091D01*
X111727924Y-54952020D01*
X110858191Y-54082286D01*
X109977652Y-53201747D01*
X109970112Y-53193461D01*
X109966000Y-53186982D01*
X109916348Y-53140356D01*
X109913507Y-53137602D01*
X109893770Y-53117865D01*
X109890573Y-53115385D01*
X109881551Y-53107680D01*
X109855100Y-53082841D01*
X109849321Y-53077414D01*
X109842375Y-53073595D01*
X109842372Y-53073593D01*
X109831566Y-53067652D01*
X109815047Y-53056801D01*
X109814583Y-53056441D01*
X109799041Y-53044386D01*
X109791772Y-53041241D01*
X109791768Y-53041238D01*
X109758463Y-53026826D01*
X109747813Y-53021609D01*
X109709060Y-53000305D01*
X109689437Y-52995267D01*
X109670734Y-52988863D01*
X109659420Y-52983967D01*
X109659419Y-52983967D01*
X109652145Y-52980819D01*
X109644322Y-52979580D01*
X109644312Y-52979577D01*
X109608476Y-52973901D01*
X109596856Y-52971495D01*
X109561711Y-52962472D01*
X109561710Y-52962472D01*
X109554030Y-52960500D01*
X109533776Y-52960500D01*
X109514065Y-52958949D01*
X109501886Y-52957020D01*
X109494057Y-52955780D01*
X109486165Y-52956526D01*
X109450039Y-52959941D01*
X109438181Y-52960500D01*
X106486594Y-52960500D01*
X106418473Y-52940498D01*
X106397499Y-52923595D01*
X106357122Y-52883218D01*
X106323096Y-52820906D01*
X106320907Y-52807293D01*
X106304232Y-52648635D01*
X106304232Y-52648633D01*
X106303542Y-52642072D01*
X106244527Y-52460444D01*
X106149040Y-52295056D01*
X106021253Y-52153134D01*
X105944002Y-52097008D01*
X105872097Y-52044765D01*
X105872094Y-52044764D01*
X105866752Y-52040882D01*
X105865574Y-52040357D01*
X105817942Y-51990401D01*
X105804626Y-51919495D01*
X105814814Y-51822564D01*
X105815504Y-51816000D01*
X105814814Y-51809435D01*
X105796232Y-51632635D01*
X105796232Y-51632633D01*
X105795542Y-51626072D01*
X105736527Y-51444444D01*
X105641040Y-51279056D01*
X105610868Y-51245546D01*
X105517675Y-51142045D01*
X105517674Y-51142044D01*
X105513253Y-51137134D01*
X105358752Y-51024882D01*
X105352724Y-51022198D01*
X105352722Y-51022197D01*
X105190319Y-50949891D01*
X105190318Y-50949891D01*
X105184288Y-50947206D01*
X105075353Y-50924051D01*
X105003944Y-50908872D01*
X105003939Y-50908872D01*
X104997487Y-50907500D01*
X104806513Y-50907500D01*
X104800061Y-50908872D01*
X104800056Y-50908872D01*
X104728647Y-50924051D01*
X104619712Y-50947206D01*
X104613682Y-50949891D01*
X104613681Y-50949891D01*
X104451278Y-51022197D01*
X104451276Y-51022198D01*
X104445248Y-51024882D01*
X104290747Y-51137134D01*
X104286326Y-51142044D01*
X104286325Y-51142045D01*
X104193133Y-51245546D01*
X104162960Y-51279056D01*
X104067473Y-51444444D01*
X104065432Y-51450726D01*
X104035373Y-51543237D01*
X103995299Y-51601842D01*
X103929902Y-51629479D01*
X103915540Y-51630300D01*
X103142134Y-51630300D01*
X103074013Y-51610298D01*
X103027520Y-51556642D01*
X103016824Y-51517471D01*
X103002232Y-51378634D01*
X103002231Y-51378631D01*
X103001542Y-51372072D01*
X102942527Y-51190444D01*
X102847040Y-51025056D01*
X102821064Y-50996206D01*
X102723675Y-50888045D01*
X102723674Y-50888044D01*
X102719253Y-50883134D01*
X102604829Y-50800000D01*
X102570094Y-50774763D01*
X102570093Y-50774762D01*
X102564752Y-50770882D01*
X102558724Y-50768198D01*
X102558722Y-50768197D01*
X102396319Y-50695891D01*
X102396318Y-50695891D01*
X102390288Y-50693206D01*
X102296888Y-50673353D01*
X102209944Y-50654872D01*
X102209939Y-50654872D01*
X102203487Y-50653500D01*
X102012513Y-50653500D01*
X102006061Y-50654872D01*
X102006056Y-50654872D01*
X101919113Y-50673353D01*
X101825712Y-50693206D01*
X101819682Y-50695891D01*
X101819681Y-50695891D01*
X101657278Y-50768197D01*
X101657276Y-50768198D01*
X101651248Y-50770882D01*
X101645907Y-50774762D01*
X101645906Y-50774763D01*
X101596172Y-50810897D01*
X101496747Y-50883134D01*
X101492332Y-50888037D01*
X101487420Y-50892460D01*
X101486295Y-50891211D01*
X101432986Y-50924051D01*
X101399800Y-50928500D01*
X101038200Y-50928500D01*
X100970079Y-50908498D01*
X100950853Y-50892157D01*
X100950580Y-50892460D01*
X100945668Y-50888037D01*
X100941253Y-50883134D01*
X100841828Y-50810897D01*
X100792094Y-50774763D01*
X100792093Y-50774762D01*
X100786752Y-50770882D01*
X100780724Y-50768198D01*
X100780722Y-50768197D01*
X100618319Y-50695891D01*
X100618318Y-50695891D01*
X100612288Y-50693206D01*
X100518888Y-50673353D01*
X100431944Y-50654872D01*
X100431939Y-50654872D01*
X100425487Y-50653500D01*
X100234513Y-50653500D01*
X100228061Y-50654872D01*
X100228056Y-50654872D01*
X100141113Y-50673353D01*
X100047712Y-50693206D01*
X100041682Y-50695891D01*
X100041681Y-50695891D01*
X99879278Y-50768197D01*
X99879276Y-50768198D01*
X99873248Y-50770882D01*
X99867907Y-50774762D01*
X99867906Y-50774763D01*
X99737221Y-50869712D01*
X99718747Y-50883134D01*
X99714328Y-50888041D01*
X99709420Y-50892461D01*
X99707295Y-50890101D01*
X99658838Y-50920302D01*
X99587848Y-50919317D01*
X99535925Y-50888020D01*
X99309652Y-50661747D01*
X99302112Y-50653461D01*
X99298000Y-50646982D01*
X99248348Y-50600356D01*
X99245507Y-50597602D01*
X99225770Y-50577865D01*
X99222573Y-50575385D01*
X99213551Y-50567680D01*
X99187100Y-50542841D01*
X99181321Y-50537414D01*
X99174375Y-50533595D01*
X99174372Y-50533593D01*
X99163566Y-50527652D01*
X99147047Y-50516801D01*
X99146583Y-50516441D01*
X99131041Y-50504386D01*
X99114479Y-50497219D01*
X99059905Y-50451808D01*
X99038545Y-50384101D01*
X99056970Y-50316369D01*
X99056922Y-50316340D01*
X99057026Y-50316164D01*
X99057181Y-50315594D01*
X99058435Y-50313782D01*
X99060959Y-50309515D01*
X99065814Y-50303255D01*
X99068959Y-50295986D01*
X99068962Y-50295982D01*
X99083374Y-50262677D01*
X99088591Y-50252027D01*
X99109895Y-50213274D01*
X99114933Y-50193651D01*
X99121337Y-50174948D01*
X99126233Y-50163634D01*
X99126233Y-50163633D01*
X99129381Y-50156359D01*
X99130621Y-50148534D01*
X99130623Y-50148525D01*
X99132482Y-50136788D01*
X99162895Y-50072635D01*
X99223163Y-50035109D01*
X99256930Y-50030500D01*
X100366134Y-50030500D01*
X100428316Y-50023745D01*
X100564705Y-49972615D01*
X100681261Y-49885261D01*
X100768615Y-49768705D01*
X100819745Y-49632316D01*
X100826500Y-49570134D01*
X100826500Y-48731500D01*
X100846502Y-48663379D01*
X100900158Y-48616886D01*
X100952500Y-48605500D01*
X101485500Y-48605500D01*
X101553621Y-48625502D01*
X101600114Y-48679158D01*
X101611500Y-48731500D01*
X101611500Y-49570134D01*
X101618255Y-49632316D01*
X101669385Y-49768705D01*
X101756739Y-49885261D01*
X101873295Y-49972615D01*
X102009684Y-50023745D01*
X102071866Y-50030500D01*
X103668134Y-50030500D01*
X103730316Y-50023745D01*
X103866705Y-49972615D01*
X103983261Y-49885261D01*
X104070615Y-49768705D01*
X104121745Y-49632316D01*
X104128500Y-49570134D01*
X104128500Y-48731500D01*
X104148502Y-48663379D01*
X104202158Y-48616886D01*
X104254500Y-48605500D01*
X105041500Y-48605500D01*
X105109621Y-48625502D01*
X105156114Y-48679158D01*
X105167500Y-48731500D01*
X105167500Y-49570134D01*
X105174255Y-49632316D01*
X105225385Y-49768705D01*
X105312739Y-49885261D01*
X105429295Y-49972615D01*
X105565684Y-50023745D01*
X105627866Y-50030500D01*
X107224134Y-50030500D01*
X107286316Y-50023745D01*
X107398188Y-49981806D01*
X107468996Y-49976623D01*
X107531365Y-50010544D01*
X107565494Y-50072799D01*
X107560547Y-50143623D01*
X107536054Y-50184098D01*
X107492854Y-50232077D01*
X107464960Y-50263056D01*
X107434180Y-50316369D01*
X107374848Y-50419135D01*
X107369473Y-50428444D01*
X107310458Y-50610072D01*
X107309768Y-50616633D01*
X107309768Y-50616635D01*
X107301829Y-50692172D01*
X107290496Y-50800000D01*
X107291186Y-50806565D01*
X107305824Y-50945834D01*
X107310458Y-50989928D01*
X107369473Y-51171556D01*
X107372776Y-51177278D01*
X107372777Y-51177279D01*
X107392903Y-51212138D01*
X107464960Y-51336944D01*
X107469378Y-51341851D01*
X107469379Y-51341852D01*
X107588325Y-51473955D01*
X107592747Y-51478866D01*
X107747248Y-51591118D01*
X107753276Y-51593802D01*
X107753278Y-51593803D01*
X107840497Y-51632635D01*
X107921712Y-51668794D01*
X108015113Y-51688647D01*
X108102056Y-51707128D01*
X108102061Y-51707128D01*
X108108513Y-51708500D01*
X108299487Y-51708500D01*
X108305939Y-51707128D01*
X108305944Y-51707128D01*
X108392888Y-51688647D01*
X108486288Y-51668794D01*
X108567503Y-51632635D01*
X108654722Y-51593803D01*
X108654724Y-51593802D01*
X108660752Y-51591118D01*
X108815253Y-51478866D01*
X108819675Y-51473955D01*
X108938621Y-51341852D01*
X108938622Y-51341851D01*
X108943040Y-51336944D01*
X109015097Y-51212138D01*
X109035223Y-51177279D01*
X109035224Y-51177278D01*
X109038527Y-51171556D01*
X109097542Y-50989928D01*
X109102177Y-50945834D01*
X109116814Y-50806565D01*
X109117504Y-50800000D01*
X109114852Y-50774763D01*
X109101308Y-50645899D01*
X109114080Y-50576061D01*
X109162583Y-50524214D01*
X109226618Y-50506729D01*
X110224000Y-50506729D01*
X110256759Y-50504386D01*
X110290373Y-50501982D01*
X110290374Y-50501982D01*
X110297111Y-50501500D01*
X110389255Y-50474444D01*
X110428765Y-50462843D01*
X110428767Y-50462842D01*
X110437411Y-50460304D01*
X110504580Y-50417137D01*
X110552841Y-50386122D01*
X110552844Y-50386120D01*
X110560421Y-50381250D01*
X110600421Y-50335088D01*
X110650274Y-50277555D01*
X110650276Y-50277552D01*
X110656176Y-50270743D01*
X110662350Y-50257225D01*
X110688411Y-50200158D01*
X110734904Y-50146502D01*
X110803025Y-50126500D01*
X110963207Y-50126500D01*
X110986816Y-50128732D01*
X110987119Y-50128790D01*
X110987123Y-50128790D01*
X110994906Y-50130275D01*
X111050951Y-50126749D01*
X111058862Y-50126500D01*
X111074856Y-50126500D01*
X111090730Y-50124494D01*
X111098590Y-50123752D01*
X111126049Y-50122024D01*
X111146737Y-50120723D01*
X111146738Y-50120723D01*
X111154650Y-50120225D01*
X111162191Y-50117775D01*
X111162487Y-50117679D01*
X111185631Y-50112506D01*
X111185935Y-50112468D01*
X111185940Y-50112467D01*
X111193797Y-50111474D01*
X111201162Y-50108558D01*
X111201166Y-50108557D01*
X111246011Y-50090801D01*
X111253430Y-50088129D01*
X111306875Y-50070764D01*
X111313572Y-50066514D01*
X111313831Y-50066350D01*
X111334958Y-50055585D01*
X111335246Y-50055471D01*
X111335251Y-50055468D01*
X111342617Y-50052552D01*
X111349025Y-50047896D01*
X111349031Y-50047893D01*
X111388052Y-50019542D01*
X111394600Y-50015092D01*
X111432228Y-49991213D01*
X111500462Y-49971601D01*
X111543970Y-49979617D01*
X111654282Y-50020971D01*
X111654288Y-50020973D01*
X111661684Y-50023745D01*
X111723866Y-50030500D01*
X113320134Y-50030500D01*
X113382316Y-50023745D01*
X113518705Y-49972615D01*
X113635261Y-49885261D01*
X113722615Y-49768705D01*
X113730538Y-49747572D01*
X113734977Y-49735730D01*
X113777618Y-49678965D01*
X113849000Y-49654021D01*
X113880762Y-49653023D01*
X113883970Y-49652922D01*
X113891889Y-49652673D01*
X113911343Y-49647021D01*
X113930700Y-49643013D01*
X113942930Y-49641468D01*
X113942931Y-49641468D01*
X113950797Y-49640474D01*
X113958168Y-49637555D01*
X113958170Y-49637555D01*
X113991912Y-49624196D01*
X114003142Y-49620351D01*
X114037983Y-49610229D01*
X114037984Y-49610229D01*
X114045593Y-49608018D01*
X114052412Y-49603985D01*
X114052417Y-49603983D01*
X114063028Y-49597707D01*
X114080776Y-49589012D01*
X114099617Y-49581552D01*
X114135387Y-49555564D01*
X114145307Y-49549048D01*
X114176535Y-49530580D01*
X114176538Y-49530578D01*
X114183362Y-49526542D01*
X114197683Y-49512221D01*
X114212717Y-49499380D01*
X114229107Y-49487472D01*
X114257298Y-49453395D01*
X114265288Y-49444616D01*
X114958347Y-48751557D01*
X114966637Y-48744013D01*
X114973118Y-48739900D01*
X115019759Y-48690232D01*
X115022513Y-48687391D01*
X115042235Y-48667669D01*
X115044719Y-48664467D01*
X115052417Y-48655455D01*
X115077261Y-48628998D01*
X115082686Y-48623221D01*
X115092447Y-48605466D01*
X115103298Y-48588947D01*
X115115714Y-48572941D01*
X115128695Y-48542944D01*
X115133274Y-48532363D01*
X115138491Y-48521713D01*
X115159795Y-48482960D01*
X115164833Y-48463337D01*
X115171237Y-48444634D01*
X115176133Y-48433320D01*
X115176133Y-48433319D01*
X115179281Y-48426045D01*
X115180520Y-48418222D01*
X115180523Y-48418212D01*
X115186199Y-48382376D01*
X115188605Y-48370756D01*
X115197628Y-48335611D01*
X115197628Y-48335610D01*
X115199600Y-48327930D01*
X115199600Y-48307676D01*
X115201151Y-48287965D01*
X115203080Y-48275787D01*
X115203080Y-48275786D01*
X115204320Y-48267957D01*
X115203837Y-48262849D01*
X115225579Y-48196573D01*
X115280668Y-48151787D01*
X115351224Y-48143894D01*
X115414847Y-48175399D01*
G37*
%TD.AperFunction*%
%TA.AperFunction,Conductor*%
G36*
X116847527Y-36467502D02*
G01*
X116868501Y-36484405D01*
X119299778Y-38915682D01*
X119333804Y-38977994D01*
X119332100Y-39038448D01*
X119310989Y-39114570D01*
X119310441Y-39119700D01*
X119310440Y-39119704D01*
X119307218Y-39149852D01*
X119287251Y-39336695D01*
X119287548Y-39341848D01*
X119287548Y-39341851D01*
X119293011Y-39436590D01*
X119300110Y-39559715D01*
X119301247Y-39564761D01*
X119301248Y-39564767D01*
X119309933Y-39603304D01*
X119349222Y-39777639D01*
X119385881Y-39867920D01*
X119421892Y-39956604D01*
X119433266Y-39984616D01*
X119447346Y-40007593D01*
X119536928Y-40153777D01*
X119549987Y-40175088D01*
X119696250Y-40343938D01*
X119868126Y-40486632D01*
X119900456Y-40505524D01*
X119941445Y-40529476D01*
X119990169Y-40581114D01*
X120003240Y-40650897D01*
X119976509Y-40716669D01*
X119936055Y-40750027D01*
X119923607Y-40756507D01*
X119919474Y-40759610D01*
X119919471Y-40759612D01*
X119749100Y-40887530D01*
X119744965Y-40890635D01*
X119590629Y-41052138D01*
X119587715Y-41056410D01*
X119587714Y-41056411D01*
X119565769Y-41088581D01*
X119464743Y-41236680D01*
X119417716Y-41337992D01*
X119391118Y-41395293D01*
X119370688Y-41439305D01*
X119310989Y-41654570D01*
X119287251Y-41876695D01*
X119287548Y-41881848D01*
X119287548Y-41881851D01*
X119296663Y-42039937D01*
X119300110Y-42099715D01*
X119301247Y-42104761D01*
X119301248Y-42104767D01*
X119315377Y-42167458D01*
X119349222Y-42317639D01*
X119433266Y-42524616D01*
X119460923Y-42569748D01*
X119530161Y-42682734D01*
X119549987Y-42715088D01*
X119696250Y-42883938D01*
X119868126Y-43026632D01*
X119938595Y-43067811D01*
X119941445Y-43069476D01*
X119990169Y-43121114D01*
X120003240Y-43190897D01*
X119976509Y-43256669D01*
X119936055Y-43290027D01*
X119923607Y-43296507D01*
X119919474Y-43299610D01*
X119919471Y-43299612D01*
X119811596Y-43380607D01*
X119744965Y-43430635D01*
X119590629Y-43592138D01*
X119587715Y-43596410D01*
X119587714Y-43596411D01*
X119563221Y-43632317D01*
X119464743Y-43776680D01*
X119370688Y-43979305D01*
X119310989Y-44194570D01*
X119287251Y-44416695D01*
X119287548Y-44421848D01*
X119287548Y-44421851D01*
X119298789Y-44616801D01*
X119300110Y-44639715D01*
X119301247Y-44644761D01*
X119301248Y-44644767D01*
X119314597Y-44704000D01*
X119349222Y-44857639D01*
X119378704Y-44930244D01*
X119419288Y-45030191D01*
X119433266Y-45064616D01*
X119460923Y-45109748D01*
X119541320Y-45240944D01*
X119549987Y-45255088D01*
X119696250Y-45423938D01*
X119868126Y-45566632D01*
X119878671Y-45572794D01*
X119941445Y-45609476D01*
X119990169Y-45661114D01*
X120003240Y-45730897D01*
X119976509Y-45796669D01*
X119936055Y-45830027D01*
X119923607Y-45836507D01*
X119919474Y-45839610D01*
X119919471Y-45839612D01*
X119752390Y-45965060D01*
X119744965Y-45970635D01*
X119701934Y-46015664D01*
X119594968Y-46127598D01*
X119590629Y-46132138D01*
X119587715Y-46136410D01*
X119587714Y-46136411D01*
X119560175Y-46176782D01*
X119464743Y-46316680D01*
X119370688Y-46519305D01*
X119310989Y-46734570D01*
X119287251Y-46956695D01*
X119287548Y-46961848D01*
X119287548Y-46961851D01*
X119295449Y-47098872D01*
X119300110Y-47179715D01*
X119301247Y-47184761D01*
X119301248Y-47184767D01*
X119322275Y-47278069D01*
X119349222Y-47397639D01*
X119433266Y-47604616D01*
X119453831Y-47638175D01*
X119530161Y-47762734D01*
X119549987Y-47795088D01*
X119696250Y-47963938D01*
X119868126Y-48106632D01*
X119931893Y-48143894D01*
X119941445Y-48149476D01*
X119990169Y-48201114D01*
X120003240Y-48270897D01*
X119976509Y-48336669D01*
X119936055Y-48370027D01*
X119923607Y-48376507D01*
X119919474Y-48379610D01*
X119919471Y-48379612D01*
X119757676Y-48501091D01*
X119744965Y-48510635D01*
X119719554Y-48537226D01*
X119597960Y-48664467D01*
X119590629Y-48672138D01*
X119587715Y-48676410D01*
X119587714Y-48676411D01*
X119565808Y-48708524D01*
X119464743Y-48856680D01*
X119370688Y-49059305D01*
X119310989Y-49274570D01*
X119287251Y-49496695D01*
X119287548Y-49501848D01*
X119287548Y-49501851D01*
X119294618Y-49624460D01*
X119300110Y-49719715D01*
X119301247Y-49724761D01*
X119301248Y-49724767D01*
X119312770Y-49775891D01*
X119349222Y-49937639D01*
X119384186Y-50023745D01*
X119430472Y-50137734D01*
X119433266Y-50144616D01*
X119457430Y-50184048D01*
X119537542Y-50314779D01*
X119549987Y-50335088D01*
X119696250Y-50503938D01*
X119868126Y-50646632D01*
X119938595Y-50687811D01*
X119941445Y-50689476D01*
X119990169Y-50741114D01*
X120003240Y-50810897D01*
X119976509Y-50876669D01*
X119936055Y-50910027D01*
X119923607Y-50916507D01*
X119919474Y-50919610D01*
X119919471Y-50919612D01*
X119771417Y-51030774D01*
X119744965Y-51050635D01*
X119590629Y-51212138D01*
X119587715Y-51216410D01*
X119587714Y-51216411D01*
X119548329Y-51274148D01*
X119464743Y-51396680D01*
X119434883Y-51461009D01*
X119374775Y-51590501D01*
X119370688Y-51599305D01*
X119310989Y-51814570D01*
X119287251Y-52036695D01*
X119300110Y-52259715D01*
X119301247Y-52264761D01*
X119301248Y-52264767D01*
X119309363Y-52300774D01*
X119349222Y-52477639D01*
X119433266Y-52684616D01*
X119549987Y-52875088D01*
X119553367Y-52878990D01*
X119560360Y-52887063D01*
X119696250Y-53043938D01*
X119868126Y-53186632D01*
X119897088Y-53203556D01*
X119941445Y-53229476D01*
X119990169Y-53281114D01*
X120003240Y-53350897D01*
X119976509Y-53416669D01*
X119936055Y-53450027D01*
X119923607Y-53456507D01*
X119919474Y-53459610D01*
X119919471Y-53459612D01*
X119749100Y-53587530D01*
X119744965Y-53590635D01*
X119701773Y-53635833D01*
X119601751Y-53740500D01*
X119590629Y-53752138D01*
X119587715Y-53756410D01*
X119587714Y-53756411D01*
X119567432Y-53786143D01*
X119464743Y-53936680D01*
X119432360Y-54006443D01*
X119374451Y-54131199D01*
X119370688Y-54139305D01*
X119310989Y-54354570D01*
X119287251Y-54576695D01*
X119287548Y-54581848D01*
X119287548Y-54581851D01*
X119295449Y-54718872D01*
X119300110Y-54799715D01*
X119301247Y-54804761D01*
X119301248Y-54804767D01*
X119307430Y-54832197D01*
X119349222Y-55017639D01*
X119400030Y-55142765D01*
X119423262Y-55199978D01*
X119433266Y-55224616D01*
X119549987Y-55415088D01*
X119696250Y-55583938D01*
X119868126Y-55726632D01*
X119878671Y-55732794D01*
X119941445Y-55769476D01*
X119990169Y-55821114D01*
X120003240Y-55890897D01*
X119976509Y-55956669D01*
X119936055Y-55990027D01*
X119923607Y-55996507D01*
X119919474Y-55999610D01*
X119919471Y-55999612D01*
X119774772Y-56108255D01*
X119744965Y-56130635D01*
X119590629Y-56292138D01*
X119587715Y-56296410D01*
X119587714Y-56296411D01*
X119563681Y-56331642D01*
X119464743Y-56476680D01*
X119444257Y-56520814D01*
X119376290Y-56667237D01*
X119370688Y-56679305D01*
X119310989Y-56894570D01*
X119287251Y-57116695D01*
X119287548Y-57121848D01*
X119287548Y-57121851D01*
X119293011Y-57216590D01*
X119300110Y-57339715D01*
X119301247Y-57344761D01*
X119301248Y-57344767D01*
X119317808Y-57418247D01*
X119349222Y-57557639D01*
X119433266Y-57764616D01*
X119457299Y-57803834D01*
X119543502Y-57944505D01*
X119549987Y-57955088D01*
X119696250Y-58123938D01*
X119761302Y-58177945D01*
X119857693Y-58257970D01*
X119868126Y-58266632D01*
X119929411Y-58302444D01*
X119941445Y-58309476D01*
X119990169Y-58361114D01*
X120003240Y-58430897D01*
X119976509Y-58496669D01*
X119936055Y-58530027D01*
X119923607Y-58536507D01*
X119919474Y-58539610D01*
X119919471Y-58539612D01*
X119895247Y-58557800D01*
X119744965Y-58670635D01*
X119590629Y-58832138D01*
X119587715Y-58836410D01*
X119587714Y-58836411D01*
X119564661Y-58870206D01*
X119464743Y-59016680D01*
X119448683Y-59051279D01*
X119375655Y-59208605D01*
X119370688Y-59219305D01*
X119310989Y-59434570D01*
X119287251Y-59656695D01*
X119287548Y-59661848D01*
X119287548Y-59661851D01*
X119297447Y-59833526D01*
X119300110Y-59879715D01*
X119301247Y-59884761D01*
X119301248Y-59884767D01*
X119319420Y-59965400D01*
X119349222Y-60097639D01*
X119433266Y-60304616D01*
X119435965Y-60309020D01*
X119547291Y-60490688D01*
X119549987Y-60495088D01*
X119696250Y-60663938D01*
X119868126Y-60806632D01*
X119878671Y-60812794D01*
X119941445Y-60849476D01*
X119990169Y-60901114D01*
X120003240Y-60970897D01*
X119976509Y-61036669D01*
X119936055Y-61070027D01*
X119923607Y-61076507D01*
X119919474Y-61079610D01*
X119919471Y-61079612D01*
X119771417Y-61190774D01*
X119744965Y-61210635D01*
X119711356Y-61245805D01*
X119621346Y-61339995D01*
X119590629Y-61372138D01*
X119587715Y-61376410D01*
X119587714Y-61376411D01*
X119566375Y-61407693D01*
X119464743Y-61556680D01*
X119449003Y-61590590D01*
X119391052Y-61715435D01*
X119370688Y-61759305D01*
X119310989Y-61974570D01*
X119287251Y-62196695D01*
X119287548Y-62201848D01*
X119287548Y-62201851D01*
X119293011Y-62296590D01*
X119300110Y-62419715D01*
X119301247Y-62424761D01*
X119301248Y-62424767D01*
X119321765Y-62515803D01*
X119349222Y-62637639D01*
X119433266Y-62844616D01*
X119435965Y-62849020D01*
X119547291Y-63030688D01*
X119549987Y-63035088D01*
X119696250Y-63203938D01*
X119868126Y-63346632D01*
X119938595Y-63387811D01*
X119941445Y-63389476D01*
X119990169Y-63441114D01*
X120003240Y-63510897D01*
X119976509Y-63576669D01*
X119936055Y-63610027D01*
X119923607Y-63616507D01*
X119919474Y-63619610D01*
X119919471Y-63619612D01*
X119749100Y-63747530D01*
X119744965Y-63750635D01*
X119590629Y-63912138D01*
X119587715Y-63916410D01*
X119587714Y-63916411D01*
X119475095Y-64081504D01*
X119420184Y-64126507D01*
X119371007Y-64136500D01*
X117408595Y-64136500D01*
X117340474Y-64116498D01*
X117319499Y-64099595D01*
X117002404Y-63782499D01*
X116968379Y-63720187D01*
X116965500Y-63693404D01*
X116965500Y-48708524D01*
X116985502Y-48640403D01*
X116997858Y-48624221D01*
X117071040Y-48542944D01*
X117166527Y-48377556D01*
X117225542Y-48195928D01*
X117226637Y-48185516D01*
X117244814Y-48012565D01*
X117245504Y-48006000D01*
X117231135Y-47869287D01*
X117226232Y-47822635D01*
X117226232Y-47822633D01*
X117225542Y-47816072D01*
X117166527Y-47634444D01*
X117151849Y-47609020D01*
X117087751Y-47498000D01*
X117071040Y-47469056D01*
X116943253Y-47327134D01*
X116804432Y-47226274D01*
X116794094Y-47218763D01*
X116794093Y-47218762D01*
X116788752Y-47214882D01*
X116782724Y-47212198D01*
X116782722Y-47212197D01*
X116620319Y-47139891D01*
X116620318Y-47139891D01*
X116614288Y-47137206D01*
X116517938Y-47116726D01*
X116433944Y-47098872D01*
X116433939Y-47098872D01*
X116427487Y-47097500D01*
X116236513Y-47097500D01*
X116230061Y-47098872D01*
X116230056Y-47098872D01*
X116146062Y-47116726D01*
X116049712Y-47137206D01*
X116043682Y-47139891D01*
X116043681Y-47139891D01*
X115881278Y-47212197D01*
X115881276Y-47212198D01*
X115875248Y-47214882D01*
X115869907Y-47218762D01*
X115869906Y-47218763D01*
X115859568Y-47226274D01*
X115720747Y-47327134D01*
X115592960Y-47469056D01*
X115576249Y-47498000D01*
X115512152Y-47609020D01*
X115497473Y-47634444D01*
X115468501Y-47723612D01*
X115445433Y-47794606D01*
X115405359Y-47853211D01*
X115339963Y-47880848D01*
X115270006Y-47868741D01*
X115217700Y-47820735D01*
X115199600Y-47755669D01*
X115199600Y-45048863D01*
X115200127Y-45037679D01*
X115201801Y-45030191D01*
X115199662Y-44962132D01*
X115199600Y-44958175D01*
X115199600Y-44930244D01*
X115199094Y-44926238D01*
X115198161Y-44914392D01*
X115197022Y-44878137D01*
X115196773Y-44870210D01*
X115191122Y-44850758D01*
X115187114Y-44831406D01*
X115185568Y-44819168D01*
X115185567Y-44819166D01*
X115184574Y-44811303D01*
X115168294Y-44770186D01*
X115164459Y-44758985D01*
X115152118Y-44716506D01*
X115148085Y-44709687D01*
X115148083Y-44709682D01*
X115141807Y-44699071D01*
X115133110Y-44681321D01*
X115125652Y-44662483D01*
X115112781Y-44644767D01*
X115099672Y-44626725D01*
X115093153Y-44616801D01*
X115074678Y-44585560D01*
X115074674Y-44585555D01*
X115070642Y-44578737D01*
X115056318Y-44564413D01*
X115043476Y-44549378D01*
X115031572Y-44532993D01*
X114997506Y-44504811D01*
X114988727Y-44496822D01*
X110929122Y-40437217D01*
X110895096Y-40374905D01*
X110892907Y-40361292D01*
X110890673Y-40340031D01*
X110882753Y-40264679D01*
X110876232Y-40202635D01*
X110876232Y-40202633D01*
X110875542Y-40196072D01*
X110816527Y-40014444D01*
X110801849Y-39989020D01*
X110738828Y-39879866D01*
X110721040Y-39849056D01*
X110659530Y-39780742D01*
X110628812Y-39716735D01*
X110637577Y-39646281D01*
X110664071Y-39607337D01*
X110993003Y-39278405D01*
X111055315Y-39244379D01*
X111082098Y-39241500D01*
X111305800Y-39241500D01*
X111373921Y-39261502D01*
X111393147Y-39277843D01*
X111393420Y-39277540D01*
X111398332Y-39281963D01*
X111402747Y-39286866D01*
X111424329Y-39302546D01*
X111517171Y-39370000D01*
X111557248Y-39399118D01*
X111563276Y-39401802D01*
X111563278Y-39401803D01*
X111648864Y-39439908D01*
X111731712Y-39476794D01*
X111825113Y-39496647D01*
X111912056Y-39515128D01*
X111912061Y-39515128D01*
X111918513Y-39516500D01*
X112109487Y-39516500D01*
X112115939Y-39515128D01*
X112115944Y-39515128D01*
X112202888Y-39496647D01*
X112296288Y-39476794D01*
X112379136Y-39439908D01*
X112464722Y-39401803D01*
X112464724Y-39401802D01*
X112470752Y-39399118D01*
X112625253Y-39286866D01*
X112648091Y-39261502D01*
X112748621Y-39149852D01*
X112748622Y-39149851D01*
X112753040Y-39144944D01*
X112848527Y-38979556D01*
X112907542Y-38797928D01*
X112914620Y-38730590D01*
X112926814Y-38614565D01*
X112927504Y-38608000D01*
X112920940Y-38545546D01*
X112908232Y-38424635D01*
X112908232Y-38424633D01*
X112907542Y-38418072D01*
X112848527Y-38236444D01*
X112753040Y-38071056D01*
X112739214Y-38055700D01*
X112629675Y-37934045D01*
X112629674Y-37934044D01*
X112625253Y-37929134D01*
X112512473Y-37847194D01*
X112476094Y-37820763D01*
X112476093Y-37820762D01*
X112470752Y-37816882D01*
X112464724Y-37814198D01*
X112464722Y-37814197D01*
X112302319Y-37741891D01*
X112302318Y-37741891D01*
X112296288Y-37739206D01*
X112175300Y-37713489D01*
X112115944Y-37700872D01*
X112115939Y-37700872D01*
X112109487Y-37699500D01*
X112053594Y-37699500D01*
X111985473Y-37679498D01*
X111964499Y-37662595D01*
X110964500Y-36662595D01*
X110930474Y-36600283D01*
X110935539Y-36529467D01*
X110978086Y-36472632D01*
X111044606Y-36447821D01*
X111053595Y-36447500D01*
X116779406Y-36447500D01*
X116847527Y-36467502D01*
G37*
%TD.AperFunction*%
%TA.AperFunction,Conductor*%
G36*
X94280532Y-52769538D02*
G01*
X94337368Y-52812085D01*
X94362179Y-52878605D01*
X94362500Y-52887594D01*
X94362500Y-53864819D01*
X94361973Y-53876002D01*
X94360298Y-53883495D01*
X94360547Y-53891421D01*
X94360547Y-53891422D01*
X94362438Y-53951572D01*
X94362500Y-53955500D01*
X94362500Y-53983442D01*
X94362997Y-53987376D01*
X94362997Y-53987377D01*
X94363005Y-53987442D01*
X94363938Y-53999279D01*
X94365327Y-54043475D01*
X94368000Y-54052674D01*
X94370978Y-54062925D01*
X94374987Y-54082286D01*
X94377526Y-54102383D01*
X94380445Y-54109754D01*
X94380445Y-54109756D01*
X94393804Y-54143498D01*
X94397649Y-54154728D01*
X94406118Y-54183879D01*
X94409982Y-54197179D01*
X94414015Y-54203998D01*
X94414017Y-54204003D01*
X94420293Y-54214614D01*
X94428988Y-54232362D01*
X94436448Y-54251203D01*
X94441110Y-54257619D01*
X94441110Y-54257620D01*
X94462436Y-54286973D01*
X94468952Y-54296893D01*
X94486791Y-54327056D01*
X94491458Y-54334948D01*
X94505779Y-54349269D01*
X94518619Y-54364302D01*
X94530528Y-54380693D01*
X94536634Y-54385744D01*
X94564605Y-54408884D01*
X94573384Y-54416874D01*
X94612895Y-54456385D01*
X94646921Y-54518697D01*
X94649800Y-54545480D01*
X94649800Y-56915765D01*
X94641319Y-56956721D01*
X94642178Y-56956971D01*
X94639967Y-56964581D01*
X94636819Y-56971855D01*
X94635580Y-56979678D01*
X94635577Y-56979688D01*
X94629901Y-57015524D01*
X94627495Y-57027144D01*
X94616500Y-57069970D01*
X94616500Y-57090224D01*
X94614949Y-57109934D01*
X94611780Y-57129943D01*
X94612526Y-57137835D01*
X94615941Y-57173961D01*
X94616500Y-57185819D01*
X94616500Y-58087233D01*
X94615973Y-58098416D01*
X94614298Y-58105909D01*
X94614547Y-58113835D01*
X94614547Y-58113836D01*
X94616438Y-58173986D01*
X94616500Y-58177945D01*
X94616500Y-58205856D01*
X94616997Y-58209790D01*
X94616997Y-58209791D01*
X94617005Y-58209856D01*
X94617938Y-58221693D01*
X94619327Y-58265889D01*
X94624978Y-58285339D01*
X94628987Y-58304700D01*
X94631526Y-58324797D01*
X94634444Y-58332167D01*
X94634445Y-58332171D01*
X94642732Y-58353101D01*
X94649213Y-58423802D01*
X94616440Y-58486782D01*
X94554821Y-58522046D01*
X94483918Y-58518399D01*
X94436485Y-58488581D01*
X94280076Y-58332171D01*
X94093847Y-58145942D01*
X94086313Y-58137663D01*
X94082200Y-58131182D01*
X94032548Y-58084556D01*
X94029707Y-58081802D01*
X94009970Y-58062065D01*
X94006773Y-58059585D01*
X93997751Y-58051880D01*
X93982051Y-58037137D01*
X93965521Y-58021614D01*
X93958575Y-58017795D01*
X93958572Y-58017793D01*
X93947766Y-58011852D01*
X93931247Y-58001001D01*
X93923683Y-57995134D01*
X93915241Y-57988586D01*
X93907972Y-57985441D01*
X93907968Y-57985438D01*
X93874663Y-57971026D01*
X93864013Y-57965809D01*
X93825260Y-57944505D01*
X93805637Y-57939467D01*
X93786934Y-57933063D01*
X93775620Y-57928167D01*
X93775619Y-57928167D01*
X93768345Y-57925019D01*
X93760522Y-57923780D01*
X93760512Y-57923777D01*
X93724676Y-57918101D01*
X93713056Y-57915695D01*
X93677911Y-57906672D01*
X93677910Y-57906672D01*
X93670230Y-57904700D01*
X93649976Y-57904700D01*
X93630265Y-57903149D01*
X93618086Y-57901220D01*
X93610257Y-57899980D01*
X93602365Y-57900726D01*
X93566239Y-57904141D01*
X93554381Y-57904700D01*
X92265972Y-57904700D01*
X92197851Y-57884698D01*
X92151358Y-57831042D01*
X92141254Y-57760768D01*
X92170951Y-57697344D01*
X92170741Y-57697192D01*
X92171531Y-57696104D01*
X92172332Y-57694394D01*
X92179040Y-57686944D01*
X92250931Y-57562425D01*
X92271223Y-57527279D01*
X92271224Y-57527278D01*
X92274527Y-57521556D01*
X92333542Y-57339928D01*
X92346157Y-57219908D01*
X92352814Y-57156565D01*
X92353504Y-57150000D01*
X92344285Y-57062289D01*
X92334232Y-56966635D01*
X92334232Y-56966633D01*
X92333542Y-56960072D01*
X92274527Y-56778444D01*
X92256076Y-56746485D01*
X92210321Y-56667237D01*
X92179040Y-56613056D01*
X92105863Y-56531785D01*
X92075147Y-56467779D01*
X92073500Y-56447476D01*
X92073500Y-54924594D01*
X92093502Y-54856473D01*
X92110405Y-54835499D01*
X94147405Y-52798499D01*
X94209717Y-52764473D01*
X94280532Y-52769538D01*
G37*
%TD.AperFunction*%
%TA.AperFunction,Conductor*%
G36*
X96465159Y-41974302D02*
G01*
X96511652Y-42027958D01*
X96521756Y-42098232D01*
X96492262Y-42162812D01*
X96486133Y-42169395D01*
X96473749Y-42181779D01*
X96458716Y-42194619D01*
X96442325Y-42206528D01*
X96437274Y-42212634D01*
X96414134Y-42240605D01*
X96406144Y-42249384D01*
X92825747Y-45829780D01*
X92817461Y-45837320D01*
X92810982Y-45841432D01*
X92805557Y-45847209D01*
X92764357Y-45891083D01*
X92761602Y-45893925D01*
X92741865Y-45913662D01*
X92739385Y-45916859D01*
X92731682Y-45925879D01*
X92701414Y-45958111D01*
X92697595Y-45965057D01*
X92697593Y-45965060D01*
X92691652Y-45975866D01*
X92680801Y-45992385D01*
X92668386Y-46008391D01*
X92665241Y-46015660D01*
X92665238Y-46015664D01*
X92650826Y-46048969D01*
X92645609Y-46059619D01*
X92624305Y-46098372D01*
X92622334Y-46106047D01*
X92622334Y-46106048D01*
X92619267Y-46117994D01*
X92612863Y-46136698D01*
X92604819Y-46155287D01*
X92603580Y-46163110D01*
X92603577Y-46163120D01*
X92597901Y-46198956D01*
X92595495Y-46210576D01*
X92586472Y-46245721D01*
X92584500Y-46253402D01*
X92584500Y-46273656D01*
X92582949Y-46293366D01*
X92579780Y-46313375D01*
X92580526Y-46321267D01*
X92583941Y-46357393D01*
X92584500Y-46369251D01*
X92584500Y-46795476D01*
X92564498Y-46863597D01*
X92552142Y-46879779D01*
X92478960Y-46961056D01*
X92383473Y-47126444D01*
X92324458Y-47308072D01*
X92323768Y-47314633D01*
X92323768Y-47314635D01*
X92307093Y-47473293D01*
X92280080Y-47538950D01*
X92270878Y-47549218D01*
X90256595Y-49563500D01*
X90194283Y-49597526D01*
X90123467Y-49592461D01*
X90066632Y-49549914D01*
X90041821Y-49483394D01*
X90041500Y-49474405D01*
X90041500Y-45608782D01*
X90061502Y-45540661D01*
X90115158Y-45494168D01*
X90185432Y-45484064D01*
X90220730Y-45496282D01*
X90221248Y-45495118D01*
X90374449Y-45563327D01*
X90395712Y-45572794D01*
X90469043Y-45588381D01*
X90576056Y-45611128D01*
X90576061Y-45611128D01*
X90582513Y-45612500D01*
X90773487Y-45612500D01*
X90779939Y-45611128D01*
X90779944Y-45611128D01*
X90886957Y-45588381D01*
X90960288Y-45572794D01*
X90968266Y-45569242D01*
X91128722Y-45497803D01*
X91128724Y-45497802D01*
X91134752Y-45495118D01*
X91145198Y-45487529D01*
X91190157Y-45454864D01*
X91289253Y-45382866D01*
X91385411Y-45276072D01*
X91412621Y-45245852D01*
X91412622Y-45245851D01*
X91417040Y-45240944D01*
X91512527Y-45075556D01*
X91571542Y-44893928D01*
X91574836Y-44862593D01*
X91590814Y-44710565D01*
X91591504Y-44704000D01*
X91585278Y-44644767D01*
X91572232Y-44520635D01*
X91572232Y-44520633D01*
X91571542Y-44514072D01*
X91512527Y-44332444D01*
X91417040Y-44167056D01*
X91343863Y-44085785D01*
X91313147Y-44021779D01*
X91311500Y-44001476D01*
X91311500Y-43159394D01*
X91331502Y-43091273D01*
X91348405Y-43070299D01*
X92427499Y-41991205D01*
X92489811Y-41957179D01*
X92516594Y-41954300D01*
X96397038Y-41954300D01*
X96465159Y-41974302D01*
G37*
%TD.AperFunction*%
%TA.AperFunction,Conductor*%
G36*
X109989527Y-37483502D02*
G01*
X110010501Y-37500405D01*
X110410465Y-37900369D01*
X110444491Y-37962681D01*
X110439426Y-38033496D01*
X110396879Y-38090332D01*
X110385507Y-38097919D01*
X110376141Y-38103458D01*
X110361817Y-38117782D01*
X110346785Y-38130621D01*
X110330397Y-38142528D01*
X110302216Y-38176593D01*
X110294226Y-38185373D01*
X108887947Y-39591652D01*
X108879661Y-39599192D01*
X108873182Y-39603304D01*
X108867757Y-39609081D01*
X108826557Y-39652955D01*
X108823802Y-39655797D01*
X108804065Y-39675534D01*
X108801585Y-39678731D01*
X108793882Y-39687751D01*
X108763614Y-39719983D01*
X108759795Y-39726929D01*
X108759793Y-39726932D01*
X108753852Y-39737738D01*
X108743001Y-39754257D01*
X108730586Y-39770263D01*
X108727441Y-39777532D01*
X108727438Y-39777536D01*
X108713026Y-39810841D01*
X108707809Y-39821491D01*
X108686505Y-39860244D01*
X108684534Y-39867919D01*
X108684534Y-39867920D01*
X108681467Y-39879866D01*
X108675063Y-39898570D01*
X108667019Y-39917159D01*
X108665780Y-39924982D01*
X108665777Y-39924992D01*
X108660101Y-39960828D01*
X108657695Y-39972448D01*
X108648672Y-40007593D01*
X108646700Y-40015274D01*
X108646700Y-40035528D01*
X108645149Y-40055238D01*
X108641980Y-40075247D01*
X108642726Y-40083139D01*
X108646141Y-40119265D01*
X108646700Y-40131123D01*
X108646700Y-41383433D01*
X108646173Y-41394616D01*
X108644498Y-41402109D01*
X108644747Y-41410035D01*
X108644747Y-41410036D01*
X108646638Y-41470186D01*
X108646700Y-41474145D01*
X108646700Y-41502056D01*
X108647197Y-41505990D01*
X108647197Y-41505991D01*
X108647205Y-41506056D01*
X108648138Y-41517893D01*
X108649527Y-41562089D01*
X108653228Y-41574827D01*
X108655178Y-41581539D01*
X108659187Y-41600900D01*
X108661726Y-41620997D01*
X108664645Y-41628368D01*
X108664645Y-41628370D01*
X108678004Y-41662112D01*
X108681849Y-41673342D01*
X108684238Y-41681564D01*
X108694182Y-41715793D01*
X108698215Y-41722612D01*
X108698217Y-41722617D01*
X108704493Y-41733228D01*
X108713188Y-41750976D01*
X108720648Y-41769817D01*
X108725310Y-41776233D01*
X108725310Y-41776234D01*
X108746636Y-41805587D01*
X108753152Y-41815507D01*
X108775658Y-41853562D01*
X108789979Y-41867883D01*
X108802819Y-41882916D01*
X108814728Y-41899307D01*
X108820834Y-41904358D01*
X108848805Y-41927498D01*
X108857584Y-41935488D01*
X110050878Y-43128783D01*
X110084904Y-43191095D01*
X110087093Y-43204708D01*
X110098381Y-43312104D01*
X110104458Y-43369928D01*
X110163473Y-43551556D01*
X110189192Y-43596102D01*
X110205929Y-43665094D01*
X110182709Y-43732186D01*
X110126902Y-43776074D01*
X110080072Y-43785100D01*
X100459694Y-43785100D01*
X100391573Y-43765098D01*
X100370599Y-43748195D01*
X100298999Y-43676595D01*
X100264973Y-43614283D01*
X100270038Y-43543468D01*
X100298999Y-43498405D01*
X100454999Y-43342405D01*
X100517311Y-43308379D01*
X100544094Y-43305500D01*
X103045233Y-43305500D01*
X103056416Y-43306027D01*
X103063909Y-43307702D01*
X103071835Y-43307453D01*
X103071836Y-43307453D01*
X103131986Y-43305562D01*
X103135945Y-43305500D01*
X103163856Y-43305500D01*
X103167791Y-43305003D01*
X103167856Y-43304995D01*
X103179693Y-43304062D01*
X103211951Y-43303048D01*
X103215970Y-43302922D01*
X103223889Y-43302673D01*
X103243343Y-43297021D01*
X103262700Y-43293013D01*
X103274930Y-43291468D01*
X103274931Y-43291468D01*
X103282797Y-43290474D01*
X103290168Y-43287555D01*
X103290170Y-43287555D01*
X103323912Y-43274196D01*
X103335142Y-43270351D01*
X103369983Y-43260229D01*
X103369984Y-43260229D01*
X103377593Y-43258018D01*
X103384412Y-43253985D01*
X103384417Y-43253983D01*
X103395028Y-43247707D01*
X103412776Y-43239012D01*
X103431617Y-43231552D01*
X103467387Y-43205564D01*
X103477307Y-43199048D01*
X103508535Y-43180580D01*
X103508538Y-43180578D01*
X103515362Y-43176542D01*
X103529683Y-43162221D01*
X103544717Y-43149380D01*
X103554693Y-43142132D01*
X103561107Y-43137472D01*
X103589288Y-43103407D01*
X103597278Y-43094626D01*
X104278258Y-42413647D01*
X104286537Y-42406113D01*
X104293018Y-42402000D01*
X104339644Y-42352348D01*
X104342398Y-42349507D01*
X104362135Y-42329770D01*
X104364615Y-42326573D01*
X104372320Y-42317551D01*
X104376973Y-42312596D01*
X104402586Y-42285321D01*
X104406405Y-42278375D01*
X104406407Y-42278372D01*
X104412348Y-42267566D01*
X104423199Y-42251047D01*
X104430758Y-42241301D01*
X104435614Y-42235041D01*
X104438759Y-42227772D01*
X104438762Y-42227768D01*
X104453174Y-42194463D01*
X104458391Y-42183813D01*
X104479695Y-42145060D01*
X104484733Y-42125437D01*
X104491137Y-42106734D01*
X104496033Y-42095420D01*
X104496033Y-42095419D01*
X104499181Y-42088145D01*
X104500420Y-42080322D01*
X104500423Y-42080312D01*
X104506099Y-42044476D01*
X104508505Y-42032856D01*
X104517528Y-41997711D01*
X104517528Y-41997710D01*
X104519500Y-41990030D01*
X104519500Y-41969776D01*
X104521051Y-41950065D01*
X104522980Y-41937886D01*
X104524220Y-41930057D01*
X104520059Y-41886038D01*
X104519500Y-41874181D01*
X104519500Y-37930098D01*
X104539502Y-37861977D01*
X104556405Y-37841003D01*
X104882282Y-37515126D01*
X104944594Y-37481100D01*
X105015409Y-37486165D01*
X105052619Y-37508724D01*
X105052747Y-37508866D01*
X105207248Y-37621118D01*
X105213276Y-37623802D01*
X105213278Y-37623803D01*
X105375681Y-37696109D01*
X105381712Y-37698794D01*
X105466480Y-37716812D01*
X105562056Y-37737128D01*
X105562061Y-37737128D01*
X105568513Y-37738500D01*
X105759487Y-37738500D01*
X105765939Y-37737128D01*
X105765944Y-37737128D01*
X105861520Y-37716812D01*
X105946288Y-37698794D01*
X105952319Y-37696109D01*
X106114722Y-37623803D01*
X106114724Y-37623802D01*
X106120752Y-37621118D01*
X106183624Y-37575439D01*
X106266637Y-37515126D01*
X106275253Y-37508866D01*
X106279668Y-37503963D01*
X106284580Y-37499540D01*
X106285705Y-37500789D01*
X106339014Y-37467949D01*
X106372200Y-37463500D01*
X109921406Y-37463500D01*
X109989527Y-37483502D01*
G37*
%TD.AperFunction*%
%TA.AperFunction,Conductor*%
G36*
X105063030Y-35326502D02*
G01*
X105109523Y-35380158D01*
X105119627Y-35450432D01*
X105090133Y-35515012D01*
X105084004Y-35521595D01*
X103493747Y-37111852D01*
X103485461Y-37119392D01*
X103478982Y-37123504D01*
X103473557Y-37129281D01*
X103432357Y-37173155D01*
X103429602Y-37175997D01*
X103409865Y-37195734D01*
X103407385Y-37198931D01*
X103399682Y-37207951D01*
X103369414Y-37240183D01*
X103365595Y-37247129D01*
X103365593Y-37247132D01*
X103359652Y-37257938D01*
X103348801Y-37274457D01*
X103336386Y-37290463D01*
X103333241Y-37297732D01*
X103333238Y-37297736D01*
X103318826Y-37331041D01*
X103313609Y-37341691D01*
X103292305Y-37380444D01*
X103290334Y-37388119D01*
X103290334Y-37388120D01*
X103287267Y-37400066D01*
X103280863Y-37418770D01*
X103272819Y-37437359D01*
X103271580Y-37445182D01*
X103271577Y-37445192D01*
X103265901Y-37481028D01*
X103263495Y-37492648D01*
X103257724Y-37515126D01*
X103252500Y-37535474D01*
X103252500Y-37555728D01*
X103250949Y-37575438D01*
X103247780Y-37595447D01*
X103248526Y-37603339D01*
X103251941Y-37639465D01*
X103252500Y-37651323D01*
X103252500Y-41595405D01*
X103232498Y-41663526D01*
X103215595Y-41684501D01*
X102898499Y-42001596D01*
X102836187Y-42035621D01*
X102809404Y-42038500D01*
X100308268Y-42038500D01*
X100297085Y-42037973D01*
X100289592Y-42036298D01*
X100281666Y-42036547D01*
X100281665Y-42036547D01*
X100221502Y-42038438D01*
X100217544Y-42038500D01*
X100189644Y-42038500D01*
X100185654Y-42039004D01*
X100173820Y-42039936D01*
X100132763Y-42041227D01*
X100064047Y-42023374D01*
X100015892Y-41971206D01*
X100003586Y-41901284D01*
X100031036Y-41835808D01*
X100039710Y-41826194D01*
X100049841Y-41816063D01*
X100112153Y-41782037D01*
X100134977Y-41779220D01*
X100143176Y-41778963D01*
X100144466Y-41778922D01*
X100152385Y-41778673D01*
X100171839Y-41773021D01*
X100191196Y-41769013D01*
X100203426Y-41767468D01*
X100203427Y-41767468D01*
X100211293Y-41766474D01*
X100218664Y-41763555D01*
X100218666Y-41763555D01*
X100252408Y-41750196D01*
X100263638Y-41746351D01*
X100298479Y-41736229D01*
X100298480Y-41736229D01*
X100306089Y-41734018D01*
X100312908Y-41729985D01*
X100312913Y-41729983D01*
X100323524Y-41723707D01*
X100341272Y-41715012D01*
X100360113Y-41707552D01*
X100391841Y-41684501D01*
X100395883Y-41681564D01*
X100405803Y-41675048D01*
X100437031Y-41656580D01*
X100437034Y-41656578D01*
X100443858Y-41652542D01*
X100458179Y-41638221D01*
X100473213Y-41625380D01*
X100489603Y-41613472D01*
X100517794Y-41579395D01*
X100525784Y-41570616D01*
X100916047Y-41180353D01*
X100924337Y-41172809D01*
X100930818Y-41168696D01*
X100977459Y-41119028D01*
X100980213Y-41116187D01*
X100999935Y-41096465D01*
X101002412Y-41093272D01*
X101010117Y-41084251D01*
X101034959Y-41057796D01*
X101040386Y-41052017D01*
X101044207Y-41045067D01*
X101050146Y-41034264D01*
X101061002Y-41017737D01*
X101068557Y-41007998D01*
X101068558Y-41007996D01*
X101073414Y-41001736D01*
X101090974Y-40961156D01*
X101096191Y-40950508D01*
X101113675Y-40918705D01*
X101113676Y-40918703D01*
X101117495Y-40911756D01*
X101122533Y-40892133D01*
X101128937Y-40873430D01*
X101133833Y-40862116D01*
X101133833Y-40862115D01*
X101136981Y-40854841D01*
X101138220Y-40847018D01*
X101138223Y-40847008D01*
X101143899Y-40811172D01*
X101146305Y-40799552D01*
X101155328Y-40764407D01*
X101155328Y-40764406D01*
X101157300Y-40756726D01*
X101157300Y-40736472D01*
X101158851Y-40716761D01*
X101159968Y-40709712D01*
X101162020Y-40696753D01*
X101157859Y-40652734D01*
X101157300Y-40640877D01*
X101157300Y-40174071D01*
X101157827Y-40162888D01*
X101159502Y-40155395D01*
X101159155Y-40144337D01*
X101157362Y-40087318D01*
X101157300Y-40083359D01*
X101157300Y-40055448D01*
X101156795Y-40051448D01*
X101155862Y-40039605D01*
X101155347Y-40023203D01*
X101154473Y-39995415D01*
X101148821Y-39975961D01*
X101144813Y-39956604D01*
X101143268Y-39944374D01*
X101143268Y-39944373D01*
X101142274Y-39936507D01*
X101137715Y-39924992D01*
X101125996Y-39895392D01*
X101122151Y-39884162D01*
X101112029Y-39849321D01*
X101112029Y-39849320D01*
X101109818Y-39841711D01*
X101105785Y-39834892D01*
X101105783Y-39834887D01*
X101099507Y-39824276D01*
X101090812Y-39806528D01*
X101083352Y-39787687D01*
X101057364Y-39751917D01*
X101050848Y-39741997D01*
X101032380Y-39710769D01*
X101032378Y-39710766D01*
X101028342Y-39703942D01*
X101014021Y-39689621D01*
X101001180Y-39674587D01*
X100993931Y-39664610D01*
X100989272Y-39658197D01*
X100955195Y-39630006D01*
X100946416Y-39622016D01*
X99346348Y-38021947D01*
X99338808Y-38013661D01*
X99334696Y-38007182D01*
X99308730Y-37982798D01*
X99285045Y-37960557D01*
X99282203Y-37957802D01*
X99262466Y-37938065D01*
X99259269Y-37935585D01*
X99250247Y-37927880D01*
X99218017Y-37897614D01*
X99211071Y-37893795D01*
X99211068Y-37893793D01*
X99200262Y-37887852D01*
X99183743Y-37877001D01*
X99176229Y-37871173D01*
X99167737Y-37864586D01*
X99160468Y-37861441D01*
X99160464Y-37861438D01*
X99127159Y-37847026D01*
X99116509Y-37841809D01*
X99077756Y-37820505D01*
X99058133Y-37815467D01*
X99039430Y-37809063D01*
X99028116Y-37804167D01*
X99028115Y-37804167D01*
X99020841Y-37801019D01*
X99013018Y-37799780D01*
X99013008Y-37799777D01*
X98977172Y-37794101D01*
X98965552Y-37791695D01*
X98930407Y-37782672D01*
X98930406Y-37782672D01*
X98922726Y-37780700D01*
X98902472Y-37780700D01*
X98882761Y-37779149D01*
X98870582Y-37777220D01*
X98862753Y-37775980D01*
X98833482Y-37778747D01*
X98818735Y-37780141D01*
X98806877Y-37780700D01*
X95603768Y-37780700D01*
X95592585Y-37780173D01*
X95585092Y-37778498D01*
X95577166Y-37778747D01*
X95577165Y-37778747D01*
X95517002Y-37780638D01*
X95513044Y-37780700D01*
X95485144Y-37780700D01*
X95481154Y-37781204D01*
X95469320Y-37782136D01*
X95425111Y-37783526D01*
X95417497Y-37785738D01*
X95417492Y-37785739D01*
X95405659Y-37789177D01*
X95386296Y-37793188D01*
X95366203Y-37795726D01*
X95358836Y-37798643D01*
X95358831Y-37798644D01*
X95325092Y-37812002D01*
X95313865Y-37815846D01*
X95306561Y-37817968D01*
X95271407Y-37828182D01*
X95264581Y-37832219D01*
X95253972Y-37838493D01*
X95236224Y-37847188D01*
X95217383Y-37854648D01*
X95210967Y-37859310D01*
X95210966Y-37859310D01*
X95181613Y-37880636D01*
X95171693Y-37887152D01*
X95140465Y-37905620D01*
X95140462Y-37905622D01*
X95133638Y-37909658D01*
X95119314Y-37923982D01*
X95104287Y-37936817D01*
X95087893Y-37948728D01*
X95082840Y-37954836D01*
X95082838Y-37954838D01*
X95059708Y-37982798D01*
X95051718Y-37991578D01*
X95024501Y-38018795D01*
X94962189Y-38052821D01*
X94935406Y-38055700D01*
X93359795Y-38055700D01*
X93291674Y-38035698D01*
X93270700Y-38018795D01*
X92641122Y-37389217D01*
X92607096Y-37326905D01*
X92604907Y-37313292D01*
X92588232Y-37154635D01*
X92588232Y-37154633D01*
X92587542Y-37148072D01*
X92528527Y-36966444D01*
X92433040Y-36801056D01*
X92305253Y-36659134D01*
X92150752Y-36546882D01*
X92144724Y-36544198D01*
X92144722Y-36544197D01*
X91982319Y-36471891D01*
X91982318Y-36471891D01*
X91976288Y-36469206D01*
X91874170Y-36447500D01*
X91795944Y-36430872D01*
X91795939Y-36430872D01*
X91789487Y-36429500D01*
X91598513Y-36429500D01*
X91592061Y-36430872D01*
X91592056Y-36430872D01*
X91513830Y-36447500D01*
X91411712Y-36469206D01*
X91405682Y-36471891D01*
X91405681Y-36471891D01*
X91243278Y-36544197D01*
X91243276Y-36544198D01*
X91237248Y-36546882D01*
X91082747Y-36659134D01*
X90954960Y-36801056D01*
X90859473Y-36966444D01*
X90800458Y-37148072D01*
X90799768Y-37154633D01*
X90799768Y-37154635D01*
X90786150Y-37284203D01*
X90780496Y-37338000D01*
X90781186Y-37344565D01*
X90798863Y-37512749D01*
X90800458Y-37527928D01*
X90859473Y-37709556D01*
X90954960Y-37874944D01*
X90959378Y-37879851D01*
X90959379Y-37879852D01*
X91069143Y-38001757D01*
X91082747Y-38016866D01*
X91237248Y-38129118D01*
X91243276Y-38131802D01*
X91243278Y-38131803D01*
X91363599Y-38185373D01*
X91411712Y-38206794D01*
X91524279Y-38230721D01*
X91536191Y-38233253D01*
X91598664Y-38266982D01*
X91632986Y-38329131D01*
X91628258Y-38399970D01*
X91585982Y-38457008D01*
X91519581Y-38482135D01*
X91509994Y-38482500D01*
X89994763Y-38482500D01*
X89983579Y-38481973D01*
X89976091Y-38480299D01*
X89968168Y-38480548D01*
X89908033Y-38482438D01*
X89904075Y-38482500D01*
X89876144Y-38482500D01*
X89872229Y-38482995D01*
X89872225Y-38482995D01*
X89872167Y-38483003D01*
X89872138Y-38483006D01*
X89860296Y-38483939D01*
X89816110Y-38485327D01*
X89798744Y-38490372D01*
X89796658Y-38490978D01*
X89777306Y-38494986D01*
X89765068Y-38496532D01*
X89765066Y-38496533D01*
X89757203Y-38497526D01*
X89716086Y-38513806D01*
X89704885Y-38517641D01*
X89662406Y-38529982D01*
X89655587Y-38534015D01*
X89655582Y-38534017D01*
X89644971Y-38540293D01*
X89627221Y-38548990D01*
X89608383Y-38556448D01*
X89601967Y-38561109D01*
X89601966Y-38561110D01*
X89572625Y-38582428D01*
X89562701Y-38588947D01*
X89531460Y-38607422D01*
X89531455Y-38607426D01*
X89524637Y-38611458D01*
X89510313Y-38625782D01*
X89495281Y-38638621D01*
X89478893Y-38650528D01*
X89450712Y-38684593D01*
X89442722Y-38693373D01*
X87999747Y-40136348D01*
X87991461Y-40143888D01*
X87984982Y-40148000D01*
X87979557Y-40153777D01*
X87938357Y-40197651D01*
X87935602Y-40200493D01*
X87915865Y-40220230D01*
X87913385Y-40223427D01*
X87905682Y-40232447D01*
X87875414Y-40264679D01*
X87871595Y-40271625D01*
X87871593Y-40271628D01*
X87865652Y-40282434D01*
X87854801Y-40298953D01*
X87842386Y-40314959D01*
X87839241Y-40322228D01*
X87839238Y-40322232D01*
X87824826Y-40355537D01*
X87819609Y-40366187D01*
X87798305Y-40404940D01*
X87796334Y-40412615D01*
X87796334Y-40412616D01*
X87793267Y-40424562D01*
X87786863Y-40443266D01*
X87778819Y-40461855D01*
X87777580Y-40469678D01*
X87777577Y-40469688D01*
X87771901Y-40505524D01*
X87769495Y-40517144D01*
X87758500Y-40559970D01*
X87758500Y-40580224D01*
X87756949Y-40599934D01*
X87753780Y-40619943D01*
X87754526Y-40627835D01*
X87757941Y-40663961D01*
X87758500Y-40675819D01*
X87758500Y-41143845D01*
X87738498Y-41211966D01*
X87684842Y-41258459D01*
X87614568Y-41268563D01*
X87549988Y-41239069D01*
X87526708Y-41212285D01*
X87442822Y-41082617D01*
X87442820Y-41082614D01*
X87440014Y-41078277D01*
X87289670Y-40913051D01*
X87285619Y-40909852D01*
X87285615Y-40909848D01*
X87118414Y-40777800D01*
X87118410Y-40777798D01*
X87114359Y-40774598D01*
X87073053Y-40751796D01*
X87023084Y-40701364D01*
X87008312Y-40631921D01*
X87033428Y-40565516D01*
X87060780Y-40538909D01*
X87107584Y-40505524D01*
X87239860Y-40411173D01*
X87249141Y-40401925D01*
X87369050Y-40282434D01*
X87398096Y-40253489D01*
X87401116Y-40249287D01*
X87525435Y-40076277D01*
X87528453Y-40072077D01*
X87534713Y-40059412D01*
X87625136Y-39876453D01*
X87625137Y-39876451D01*
X87627430Y-39871811D01*
X87675315Y-39714204D01*
X87690865Y-39663023D01*
X87690865Y-39663021D01*
X87692370Y-39658069D01*
X87721529Y-39436590D01*
X87722445Y-39399118D01*
X87723074Y-39373365D01*
X87723074Y-39373361D01*
X87723156Y-39370000D01*
X87704852Y-39147361D01*
X87650431Y-38930702D01*
X87561354Y-38725840D01*
X87468577Y-38582428D01*
X87442822Y-38542617D01*
X87442820Y-38542614D01*
X87440014Y-38538277D01*
X87289670Y-38373051D01*
X87285619Y-38369852D01*
X87285615Y-38369848D01*
X87118414Y-38237800D01*
X87118410Y-38237798D01*
X87114359Y-38234598D01*
X87073053Y-38211796D01*
X87023084Y-38161364D01*
X87008312Y-38091921D01*
X87033428Y-38025516D01*
X87060780Y-37998909D01*
X87111570Y-37962681D01*
X87239860Y-37871173D01*
X87272655Y-37838493D01*
X87358761Y-37752687D01*
X87398096Y-37713489D01*
X87407670Y-37700166D01*
X87525435Y-37536277D01*
X87528453Y-37532077D01*
X87538006Y-37512749D01*
X87625136Y-37336453D01*
X87625137Y-37336451D01*
X87627430Y-37331811D01*
X87667824Y-37198860D01*
X87690865Y-37123023D01*
X87690865Y-37123021D01*
X87692370Y-37118069D01*
X87721529Y-36896590D01*
X87723156Y-36830000D01*
X87704852Y-36607361D01*
X87650431Y-36390702D01*
X87561354Y-36185840D01*
X87440014Y-35998277D01*
X87289670Y-35833051D01*
X87285619Y-35829852D01*
X87285615Y-35829848D01*
X87118414Y-35697800D01*
X87118410Y-35697798D01*
X87114359Y-35694598D01*
X87078028Y-35674542D01*
X87062136Y-35665769D01*
X86918789Y-35586638D01*
X86913920Y-35584914D01*
X86913916Y-35584912D01*
X86818921Y-35551273D01*
X86761385Y-35509679D01*
X86735469Y-35443581D01*
X86749403Y-35373965D01*
X86798762Y-35322934D01*
X86860981Y-35306500D01*
X104994909Y-35306500D01*
X105063030Y-35326502D01*
G37*
%TD.AperFunction*%
%TA.AperFunction,Conductor*%
G36*
X121880836Y-40231907D02*
G01*
X121916073Y-40293542D01*
X121919500Y-40322727D01*
X121919500Y-40960828D01*
X121899498Y-41028949D01*
X121845842Y-41075442D01*
X121775568Y-41085546D01*
X121710988Y-41056052D01*
X121700307Y-41045628D01*
X121583152Y-40916876D01*
X121583142Y-40916867D01*
X121579670Y-40913051D01*
X121575619Y-40909852D01*
X121575615Y-40909848D01*
X121408414Y-40777800D01*
X121408410Y-40777798D01*
X121404359Y-40774598D01*
X121363053Y-40751796D01*
X121313084Y-40701364D01*
X121298312Y-40631921D01*
X121323428Y-40565516D01*
X121350780Y-40538909D01*
X121397584Y-40505524D01*
X121529860Y-40411173D01*
X121539141Y-40401925D01*
X121659050Y-40282434D01*
X121688096Y-40253489D01*
X121691112Y-40249291D01*
X121691116Y-40249287D01*
X121691175Y-40249205D01*
X121691207Y-40249180D01*
X121694465Y-40245352D01*
X121695255Y-40246024D01*
X121747168Y-40205555D01*
X121817871Y-40199106D01*
X121880836Y-40231907D01*
G37*
%TD.AperFunction*%
%TA.AperFunction,Conductor*%
G36*
X120216871Y-35326502D02*
G01*
X120263364Y-35380158D01*
X120273468Y-35450432D01*
X120243974Y-35515012D01*
X120187895Y-35552265D01*
X120126868Y-35572212D01*
X120117359Y-35576209D01*
X119928463Y-35674542D01*
X119919738Y-35680036D01*
X119749433Y-35807905D01*
X119741726Y-35814748D01*
X119594590Y-35968717D01*
X119588104Y-35976727D01*
X119468098Y-36152649D01*
X119463000Y-36161623D01*
X119373338Y-36354783D01*
X119369775Y-36364470D01*
X119314389Y-36564183D01*
X119315912Y-36572607D01*
X119328292Y-36576000D01*
X120778000Y-36576000D01*
X120846121Y-36596002D01*
X120892614Y-36649658D01*
X120904000Y-36702000D01*
X120904000Y-36958000D01*
X120883998Y-37026121D01*
X120830342Y-37072614D01*
X120778000Y-37084000D01*
X119315110Y-37084000D01*
X119315110Y-37079580D01*
X119277260Y-37079574D01*
X119223684Y-37047779D01*
X117697500Y-35521595D01*
X117663474Y-35459283D01*
X117668539Y-35388468D01*
X117711086Y-35331632D01*
X117777606Y-35306821D01*
X117786595Y-35306500D01*
X120148750Y-35306500D01*
X120216871Y-35326502D01*
G37*
%TD.AperFunction*%
%TD*%
M02*
