%TF.GenerationSoftware,KiCad,Pcbnew,6.0.6*%
%TF.CreationDate,2022-11-11T11:54:06+01:00*%
%TF.ProjectId,KnxBoard,4b6e7842-6f61-4726-942e-6b696361645f,rev?*%
%TF.SameCoordinates,Original*%
%TF.FileFunction,Legend,Bot*%
%TF.FilePolarity,Positive*%
%FSLAX46Y46*%
G04 Gerber Fmt 4.6, Leading zero omitted, Abs format (unit mm)*
G04 Created by KiCad (PCBNEW 6.0.6) date 2022-11-11 11:54:06*
%MOMM*%
%LPD*%
G01*
G04 APERTURE LIST*
%ADD10C,0.150000*%
%ADD11C,0.120000*%
G04 APERTURE END LIST*
D10*
X112193428Y-52812000D02*
X112622000Y-52812000D01*
X112707714Y-52783428D01*
X112764857Y-52726285D01*
X112793428Y-52640571D01*
X112793428Y-52583428D01*
X112793428Y-53097714D02*
X112193428Y-53097714D01*
X112193428Y-53326285D01*
X112222000Y-53383428D01*
X112250571Y-53412000D01*
X112307714Y-53440571D01*
X112393428Y-53440571D01*
X112450571Y-53412000D01*
X112479142Y-53383428D01*
X112507714Y-53326285D01*
X112507714Y-53097714D01*
X112393428Y-53954857D02*
X112793428Y-53954857D01*
X112164857Y-53812000D02*
X112593428Y-53669142D01*
X112593428Y-54040571D01*
X112736285Y-54269142D02*
X112764857Y-54297714D01*
X112793428Y-54269142D01*
X112764857Y-54240571D01*
X112736285Y-54269142D01*
X112793428Y-54269142D01*
X112422000Y-54269142D02*
X112450571Y-54297714D01*
X112479142Y-54269142D01*
X112450571Y-54240571D01*
X112422000Y-54269142D01*
X112479142Y-54269142D01*
X112793428Y-55012000D02*
X112193428Y-55012000D01*
X112793428Y-55354857D01*
X112193428Y-55354857D01*
X112736285Y-55983428D02*
X112764857Y-55954857D01*
X112793428Y-55869142D01*
X112793428Y-55812000D01*
X112764857Y-55726285D01*
X112707714Y-55669142D01*
X112650571Y-55640571D01*
X112536285Y-55612000D01*
X112450571Y-55612000D01*
X112336285Y-55640571D01*
X112279142Y-55669142D01*
X112222000Y-55726285D01*
X112193428Y-55812000D01*
X112193428Y-55869142D01*
X112222000Y-55954857D01*
X112250571Y-55983428D01*
X112736285Y-56240571D02*
X112764857Y-56269142D01*
X112793428Y-56240571D01*
X112764857Y-56212000D01*
X112736285Y-56240571D01*
X112793428Y-56240571D01*
X112422000Y-56240571D02*
X112450571Y-56269142D01*
X112479142Y-56240571D01*
X112450571Y-56212000D01*
X112422000Y-56240571D01*
X112479142Y-56240571D01*
X112479142Y-57183428D02*
X112507714Y-57269142D01*
X112536285Y-57297714D01*
X112593428Y-57326285D01*
X112679142Y-57326285D01*
X112736285Y-57297714D01*
X112764857Y-57269142D01*
X112793428Y-57212000D01*
X112793428Y-56983428D01*
X112193428Y-56983428D01*
X112193428Y-57183428D01*
X112222000Y-57240571D01*
X112250571Y-57269142D01*
X112307714Y-57297714D01*
X112364857Y-57297714D01*
X112422000Y-57269142D01*
X112450571Y-57240571D01*
X112479142Y-57183428D01*
X112479142Y-56983428D01*
X112193428Y-57697714D02*
X112193428Y-57812000D01*
X112222000Y-57869142D01*
X112279142Y-57926285D01*
X112393428Y-57954857D01*
X112593428Y-57954857D01*
X112707714Y-57926285D01*
X112764857Y-57869142D01*
X112793428Y-57812000D01*
X112793428Y-57697714D01*
X112764857Y-57640571D01*
X112707714Y-57583428D01*
X112593428Y-57554857D01*
X112393428Y-57554857D01*
X112279142Y-57583428D01*
X112222000Y-57640571D01*
X112193428Y-57697714D01*
X112193428Y-58326285D02*
X112193428Y-58440571D01*
X112222000Y-58497714D01*
X112279142Y-58554857D01*
X112393428Y-58583428D01*
X112593428Y-58583428D01*
X112707714Y-58554857D01*
X112764857Y-58497714D01*
X112793428Y-58440571D01*
X112793428Y-58326285D01*
X112764857Y-58269142D01*
X112707714Y-58212000D01*
X112593428Y-58183428D01*
X112393428Y-58183428D01*
X112279142Y-58212000D01*
X112222000Y-58269142D01*
X112193428Y-58326285D01*
X112193428Y-58754857D02*
X112193428Y-59097714D01*
X112793428Y-58926285D02*
X112193428Y-58926285D01*
X112193428Y-59412000D02*
X112193428Y-59469142D01*
X112222000Y-59526285D01*
X112250571Y-59554857D01*
X112307714Y-59583428D01*
X112422000Y-59612000D01*
X112564857Y-59612000D01*
X112679142Y-59583428D01*
X112736285Y-59554857D01*
X112764857Y-59526285D01*
X112793428Y-59469142D01*
X112793428Y-59412000D01*
X112764857Y-59354857D01*
X112736285Y-59326285D01*
X112679142Y-59297714D01*
X112564857Y-59269142D01*
X112422000Y-59269142D01*
X112307714Y-59297714D01*
X112250571Y-59326285D01*
X112222000Y-59354857D01*
X112193428Y-59412000D01*
X112793428Y-60412000D02*
X112764857Y-60354857D01*
X112736285Y-60326285D01*
X112679142Y-60297714D01*
X112507714Y-60297714D01*
X112450571Y-60326285D01*
X112422000Y-60354857D01*
X112393428Y-60412000D01*
X112393428Y-60497714D01*
X112422000Y-60554857D01*
X112450571Y-60583428D01*
X112507714Y-60612000D01*
X112679142Y-60612000D01*
X112736285Y-60583428D01*
X112764857Y-60554857D01*
X112793428Y-60497714D01*
X112793428Y-60412000D01*
X112793428Y-60869142D02*
X112393428Y-60869142D01*
X112507714Y-60869142D02*
X112450571Y-60897714D01*
X112422000Y-60926285D01*
X112393428Y-60983428D01*
X112393428Y-61040571D01*
X112793428Y-61697714D02*
X112193428Y-61697714D01*
X112193428Y-61926285D01*
X112222000Y-61983428D01*
X112250571Y-62012000D01*
X112307714Y-62040571D01*
X112393428Y-62040571D01*
X112450571Y-62012000D01*
X112479142Y-61983428D01*
X112507714Y-61926285D01*
X112507714Y-61697714D01*
X112479142Y-62497714D02*
X112507714Y-62583428D01*
X112536285Y-62612000D01*
X112593428Y-62640571D01*
X112679142Y-62640571D01*
X112736285Y-62612000D01*
X112764857Y-62583428D01*
X112793428Y-62526285D01*
X112793428Y-62297714D01*
X112193428Y-62297714D01*
X112193428Y-62497714D01*
X112222000Y-62554857D01*
X112250571Y-62583428D01*
X112307714Y-62612000D01*
X112364857Y-62612000D01*
X112422000Y-62583428D01*
X112450571Y-62554857D01*
X112479142Y-62497714D01*
X112479142Y-62297714D01*
X112450571Y-62983428D02*
X112422000Y-62926285D01*
X112393428Y-62897714D01*
X112336285Y-62869142D01*
X112307714Y-62869142D01*
X112250571Y-62897714D01*
X112222000Y-62926285D01*
X112193428Y-62983428D01*
X112193428Y-63097714D01*
X112222000Y-63154857D01*
X112250571Y-63183428D01*
X112307714Y-63212000D01*
X112336285Y-63212000D01*
X112393428Y-63183428D01*
X112422000Y-63154857D01*
X112450571Y-63097714D01*
X112450571Y-62983428D01*
X112479142Y-62926285D01*
X112507714Y-62897714D01*
X112564857Y-62869142D01*
X112679142Y-62869142D01*
X112736285Y-62897714D01*
X112764857Y-62926285D01*
X112793428Y-62983428D01*
X112793428Y-63097714D01*
X112764857Y-63154857D01*
X112736285Y-63183428D01*
X112679142Y-63212000D01*
X112564857Y-63212000D01*
X112507714Y-63183428D01*
X112479142Y-63154857D01*
X112450571Y-63097714D01*
X109145428Y-52084857D02*
X109574000Y-52084857D01*
X109659714Y-52056285D01*
X109716857Y-51999142D01*
X109745428Y-51913428D01*
X109745428Y-51856285D01*
X109745428Y-52370571D02*
X109145428Y-52370571D01*
X109145428Y-52599142D01*
X109174000Y-52656285D01*
X109202571Y-52684857D01*
X109259714Y-52713428D01*
X109345428Y-52713428D01*
X109402571Y-52684857D01*
X109431142Y-52656285D01*
X109459714Y-52599142D01*
X109459714Y-52370571D01*
X109145428Y-53227714D02*
X109145428Y-53113428D01*
X109174000Y-53056285D01*
X109202571Y-53027714D01*
X109288285Y-52970571D01*
X109402571Y-52942000D01*
X109631142Y-52942000D01*
X109688285Y-52970571D01*
X109716857Y-52999142D01*
X109745428Y-53056285D01*
X109745428Y-53170571D01*
X109716857Y-53227714D01*
X109688285Y-53256285D01*
X109631142Y-53284857D01*
X109488285Y-53284857D01*
X109431142Y-53256285D01*
X109402571Y-53227714D01*
X109374000Y-53170571D01*
X109374000Y-53056285D01*
X109402571Y-52999142D01*
X109431142Y-52970571D01*
X109488285Y-52942000D01*
X109688285Y-53542000D02*
X109716857Y-53570571D01*
X109745428Y-53542000D01*
X109716857Y-53513428D01*
X109688285Y-53542000D01*
X109745428Y-53542000D01*
X109374000Y-53542000D02*
X109402571Y-53570571D01*
X109431142Y-53542000D01*
X109402571Y-53513428D01*
X109374000Y-53542000D01*
X109431142Y-53542000D01*
X109745428Y-54627714D02*
X109459714Y-54427714D01*
X109745428Y-54284857D02*
X109145428Y-54284857D01*
X109145428Y-54513428D01*
X109174000Y-54570571D01*
X109202571Y-54599142D01*
X109259714Y-54627714D01*
X109345428Y-54627714D01*
X109402571Y-54599142D01*
X109431142Y-54570571D01*
X109459714Y-54513428D01*
X109459714Y-54284857D01*
X109431142Y-54884857D02*
X109431142Y-55084857D01*
X109745428Y-55170571D02*
X109745428Y-54884857D01*
X109145428Y-54884857D01*
X109145428Y-55170571D01*
X109716857Y-55399142D02*
X109745428Y-55484857D01*
X109745428Y-55627714D01*
X109716857Y-55684857D01*
X109688285Y-55713428D01*
X109631142Y-55742000D01*
X109574000Y-55742000D01*
X109516857Y-55713428D01*
X109488285Y-55684857D01*
X109459714Y-55627714D01*
X109431142Y-55513428D01*
X109402571Y-55456285D01*
X109374000Y-55427714D01*
X109316857Y-55399142D01*
X109259714Y-55399142D01*
X109202571Y-55427714D01*
X109174000Y-55456285D01*
X109145428Y-55513428D01*
X109145428Y-55656285D01*
X109174000Y-55742000D01*
X109431142Y-55999142D02*
X109431142Y-56199142D01*
X109745428Y-56284857D02*
X109745428Y-55999142D01*
X109145428Y-55999142D01*
X109145428Y-56284857D01*
X109145428Y-56456285D02*
X109145428Y-56799142D01*
X109745428Y-56627714D02*
X109145428Y-56627714D01*
X109431142Y-57199142D02*
X109459714Y-57284857D01*
X109488285Y-57313428D01*
X109545428Y-57342000D01*
X109631142Y-57342000D01*
X109688285Y-57313428D01*
X109716857Y-57284857D01*
X109745428Y-57227714D01*
X109745428Y-56999142D01*
X109145428Y-56999142D01*
X109145428Y-57199142D01*
X109174000Y-57256285D01*
X109202571Y-57284857D01*
X109259714Y-57313428D01*
X109316857Y-57313428D01*
X109374000Y-57284857D01*
X109402571Y-57256285D01*
X109431142Y-57199142D01*
X109431142Y-56999142D01*
X109345428Y-57970571D02*
X109345428Y-58199142D01*
X109145428Y-58056285D02*
X109659714Y-58056285D01*
X109716857Y-58084857D01*
X109745428Y-58142000D01*
X109745428Y-58199142D01*
X109745428Y-58484857D02*
X109716857Y-58427714D01*
X109688285Y-58399142D01*
X109631142Y-58370571D01*
X109459714Y-58370571D01*
X109402571Y-58399142D01*
X109374000Y-58427714D01*
X109345428Y-58484857D01*
X109345428Y-58570571D01*
X109374000Y-58627714D01*
X109402571Y-58656285D01*
X109459714Y-58684857D01*
X109631142Y-58684857D01*
X109688285Y-58656285D01*
X109716857Y-58627714D01*
X109745428Y-58570571D01*
X109745428Y-58484857D01*
X109745428Y-59399142D02*
X109145428Y-59399142D01*
X109745428Y-59742000D01*
X109145428Y-59742000D01*
X109745428Y-60370571D02*
X109459714Y-60170571D01*
X109745428Y-60027714D02*
X109145428Y-60027714D01*
X109145428Y-60256285D01*
X109174000Y-60313428D01*
X109202571Y-60342000D01*
X109259714Y-60370571D01*
X109345428Y-60370571D01*
X109402571Y-60342000D01*
X109431142Y-60313428D01*
X109459714Y-60256285D01*
X109459714Y-60027714D01*
X109716857Y-60599142D02*
X109745428Y-60684857D01*
X109745428Y-60827714D01*
X109716857Y-60884857D01*
X109688285Y-60913428D01*
X109631142Y-60942000D01*
X109574000Y-60942000D01*
X109516857Y-60913428D01*
X109488285Y-60884857D01*
X109459714Y-60827714D01*
X109431142Y-60713428D01*
X109402571Y-60656285D01*
X109374000Y-60627714D01*
X109316857Y-60599142D01*
X109259714Y-60599142D01*
X109202571Y-60627714D01*
X109174000Y-60656285D01*
X109145428Y-60713428D01*
X109145428Y-60856285D01*
X109174000Y-60942000D01*
X109145428Y-61113428D02*
X109145428Y-61456285D01*
X109745428Y-61284857D02*
X109145428Y-61284857D01*
X106097428Y-52934571D02*
X106526000Y-52934571D01*
X106611714Y-52906000D01*
X106668857Y-52848857D01*
X106697428Y-52763142D01*
X106697428Y-52706000D01*
X106697428Y-53220285D02*
X106097428Y-53220285D01*
X106097428Y-53448857D01*
X106126000Y-53506000D01*
X106154571Y-53534571D01*
X106211714Y-53563142D01*
X106297428Y-53563142D01*
X106354571Y-53534571D01*
X106383142Y-53506000D01*
X106411714Y-53448857D01*
X106411714Y-53220285D01*
X106097428Y-53763142D02*
X106097428Y-54134571D01*
X106326000Y-53934571D01*
X106326000Y-54020285D01*
X106354571Y-54077428D01*
X106383142Y-54106000D01*
X106440285Y-54134571D01*
X106583142Y-54134571D01*
X106640285Y-54106000D01*
X106668857Y-54077428D01*
X106697428Y-54020285D01*
X106697428Y-53848857D01*
X106668857Y-53791714D01*
X106640285Y-53763142D01*
X106640285Y-54391714D02*
X106668857Y-54420285D01*
X106697428Y-54391714D01*
X106668857Y-54363142D01*
X106640285Y-54391714D01*
X106697428Y-54391714D01*
X106326000Y-54391714D02*
X106354571Y-54420285D01*
X106383142Y-54391714D01*
X106354571Y-54363142D01*
X106326000Y-54391714D01*
X106383142Y-54391714D01*
X106097428Y-55134571D02*
X106583142Y-55134571D01*
X106640285Y-55163142D01*
X106668857Y-55191714D01*
X106697428Y-55248857D01*
X106697428Y-55363142D01*
X106668857Y-55420285D01*
X106640285Y-55448857D01*
X106583142Y-55477428D01*
X106097428Y-55477428D01*
X106640285Y-56106000D02*
X106668857Y-56077428D01*
X106697428Y-55991714D01*
X106697428Y-55934571D01*
X106668857Y-55848857D01*
X106611714Y-55791714D01*
X106554571Y-55763142D01*
X106440285Y-55734571D01*
X106354571Y-55734571D01*
X106240285Y-55763142D01*
X106183142Y-55791714D01*
X106126000Y-55848857D01*
X106097428Y-55934571D01*
X106097428Y-55991714D01*
X106126000Y-56077428D01*
X106154571Y-56106000D01*
X106697428Y-56677428D02*
X106697428Y-56334571D01*
X106697428Y-56506000D02*
X106097428Y-56506000D01*
X106183142Y-56448857D01*
X106240285Y-56391714D01*
X106268857Y-56334571D01*
X106640285Y-56934571D02*
X106668857Y-56963142D01*
X106697428Y-56934571D01*
X106668857Y-56906000D01*
X106640285Y-56934571D01*
X106697428Y-56934571D01*
X106326000Y-56934571D02*
X106354571Y-56963142D01*
X106383142Y-56934571D01*
X106354571Y-56906000D01*
X106326000Y-56934571D01*
X106383142Y-56934571D01*
X106697428Y-57991714D02*
X106697428Y-57648857D01*
X106697428Y-57820285D02*
X106097428Y-57820285D01*
X106183142Y-57763142D01*
X106240285Y-57706000D01*
X106268857Y-57648857D01*
X106697428Y-58277428D02*
X106697428Y-58391714D01*
X106668857Y-58448857D01*
X106640285Y-58477428D01*
X106554571Y-58534571D01*
X106440285Y-58563142D01*
X106211714Y-58563142D01*
X106154571Y-58534571D01*
X106126000Y-58506000D01*
X106097428Y-58448857D01*
X106097428Y-58334571D01*
X106126000Y-58277428D01*
X106154571Y-58248857D01*
X106211714Y-58220285D01*
X106354571Y-58220285D01*
X106411714Y-58248857D01*
X106440285Y-58277428D01*
X106468857Y-58334571D01*
X106468857Y-58448857D01*
X106440285Y-58506000D01*
X106411714Y-58534571D01*
X106354571Y-58563142D01*
X106154571Y-58791714D02*
X106126000Y-58820285D01*
X106097428Y-58877428D01*
X106097428Y-59020285D01*
X106126000Y-59077428D01*
X106154571Y-59106000D01*
X106211714Y-59134571D01*
X106268857Y-59134571D01*
X106354571Y-59106000D01*
X106697428Y-58763142D01*
X106697428Y-59134571D01*
X106097428Y-59506000D02*
X106097428Y-59563142D01*
X106126000Y-59620285D01*
X106154571Y-59648857D01*
X106211714Y-59677428D01*
X106326000Y-59706000D01*
X106468857Y-59706000D01*
X106583142Y-59677428D01*
X106640285Y-59648857D01*
X106668857Y-59620285D01*
X106697428Y-59563142D01*
X106697428Y-59506000D01*
X106668857Y-59448857D01*
X106640285Y-59420285D01*
X106583142Y-59391714D01*
X106468857Y-59363142D01*
X106326000Y-59363142D01*
X106211714Y-59391714D01*
X106154571Y-59420285D01*
X106126000Y-59448857D01*
X106097428Y-59506000D01*
X106097428Y-60077428D02*
X106097428Y-60134571D01*
X106126000Y-60191714D01*
X106154571Y-60220285D01*
X106211714Y-60248857D01*
X106326000Y-60277428D01*
X106468857Y-60277428D01*
X106583142Y-60248857D01*
X106640285Y-60220285D01*
X106668857Y-60191714D01*
X106697428Y-60134571D01*
X106697428Y-60077428D01*
X106668857Y-60020285D01*
X106640285Y-59991714D01*
X106583142Y-59963142D01*
X106468857Y-59934571D01*
X106326000Y-59934571D01*
X106211714Y-59963142D01*
X106154571Y-59991714D01*
X106126000Y-60020285D01*
X106097428Y-60077428D01*
X106411714Y-60906000D02*
X106383142Y-60877428D01*
X106354571Y-60820285D01*
X106354571Y-60763142D01*
X106383142Y-60706000D01*
X106411714Y-60677428D01*
X106468857Y-60648857D01*
X106526000Y-60648857D01*
X106583142Y-60677428D01*
X106611714Y-60706000D01*
X106640285Y-60763142D01*
X106640285Y-60820285D01*
X106611714Y-60877428D01*
X106583142Y-60906000D01*
X106354571Y-60906000D02*
X106583142Y-60906000D01*
X106611714Y-60934571D01*
X106611714Y-60963142D01*
X106583142Y-61020285D01*
X106526000Y-61048857D01*
X106383142Y-61048857D01*
X106297428Y-60991714D01*
X106240285Y-60906000D01*
X106211714Y-60791714D01*
X106240285Y-60677428D01*
X106297428Y-60591714D01*
X106383142Y-60534571D01*
X106497428Y-60506000D01*
X106611714Y-60534571D01*
X106697428Y-60591714D01*
X106754571Y-60677428D01*
X106783142Y-60791714D01*
X106754571Y-60906000D01*
X106697428Y-60991714D01*
X106126000Y-61620285D02*
X106097428Y-61563142D01*
X106097428Y-61477428D01*
X106126000Y-61391714D01*
X106183142Y-61334571D01*
X106240285Y-61305999D01*
X106354571Y-61277428D01*
X106440285Y-61277428D01*
X106554571Y-61305999D01*
X106611714Y-61334571D01*
X106668857Y-61391714D01*
X106697428Y-61477428D01*
X106697428Y-61534571D01*
X106668857Y-61620285D01*
X106640285Y-61648857D01*
X106440285Y-61648857D01*
X106440285Y-61534571D01*
X106697428Y-61905999D02*
X106097428Y-61905999D01*
X106697428Y-62248857D01*
X106097428Y-62248857D01*
X106697428Y-62534571D02*
X106097428Y-62534571D01*
X106097428Y-62677428D01*
X106126000Y-62763142D01*
X106183142Y-62820285D01*
X106240285Y-62848857D01*
X106354571Y-62877428D01*
X106440285Y-62877428D01*
X106554571Y-62848857D01*
X106611714Y-62820285D01*
X106668857Y-62763142D01*
X106697428Y-62677428D01*
X106697428Y-62534571D01*
X106097428Y-63534571D02*
X106097428Y-63905999D01*
X106326000Y-63705999D01*
X106326000Y-63791714D01*
X106354571Y-63848857D01*
X106383142Y-63877428D01*
X106440285Y-63905999D01*
X106583142Y-63905999D01*
X106640285Y-63877428D01*
X106668857Y-63848857D01*
X106697428Y-63791714D01*
X106697428Y-63620285D01*
X106668857Y-63563142D01*
X106640285Y-63534571D01*
X106354571Y-64248857D02*
X106326000Y-64191714D01*
X106297428Y-64163142D01*
X106240285Y-64134571D01*
X106211714Y-64134571D01*
X106154571Y-64163142D01*
X106126000Y-64191714D01*
X106097428Y-64248857D01*
X106097428Y-64363142D01*
X106126000Y-64420285D01*
X106154571Y-64448857D01*
X106211714Y-64477428D01*
X106240285Y-64477428D01*
X106297428Y-64448857D01*
X106326000Y-64420285D01*
X106354571Y-64363142D01*
X106354571Y-64248857D01*
X106383142Y-64191714D01*
X106411714Y-64163142D01*
X106468857Y-64134571D01*
X106583142Y-64134571D01*
X106640285Y-64163142D01*
X106668857Y-64191714D01*
X106697428Y-64248857D01*
X106697428Y-64363142D01*
X106668857Y-64420285D01*
X106640285Y-64448857D01*
X106583142Y-64477428D01*
X106468857Y-64477428D01*
X106411714Y-64448857D01*
X106383142Y-64420285D01*
X106354571Y-64363142D01*
X106297428Y-64991714D02*
X106697428Y-64991714D01*
X106068857Y-64848857D02*
X106497428Y-64705999D01*
X106497428Y-65077428D01*
X106097428Y-65420285D02*
X106097428Y-65477428D01*
X106126000Y-65534571D01*
X106154571Y-65563142D01*
X106211714Y-65591714D01*
X106326000Y-65620285D01*
X106468857Y-65620285D01*
X106583142Y-65591714D01*
X106640285Y-65563142D01*
X106668857Y-65534571D01*
X106697428Y-65477428D01*
X106697428Y-65420285D01*
X106668857Y-65363142D01*
X106640285Y-65334571D01*
X106583142Y-65305999D01*
X106468857Y-65277428D01*
X106326000Y-65277428D01*
X106211714Y-65305999D01*
X106154571Y-65334571D01*
X106126000Y-65363142D01*
X106097428Y-65420285D01*
X106097428Y-65991714D02*
X106097428Y-66048857D01*
X106126000Y-66105999D01*
X106154571Y-66134571D01*
X106211714Y-66163142D01*
X106326000Y-66191714D01*
X106468857Y-66191714D01*
X106583142Y-66163142D01*
X106640285Y-66134571D01*
X106668857Y-66105999D01*
X106697428Y-66048857D01*
X106697428Y-65991714D01*
X106668857Y-65934571D01*
X106640285Y-65905999D01*
X106583142Y-65877428D01*
X106468857Y-65848857D01*
X106326000Y-65848857D01*
X106211714Y-65877428D01*
X106154571Y-65905999D01*
X106126000Y-65934571D01*
X106097428Y-65991714D01*
X106411714Y-66820285D02*
X106383142Y-66791714D01*
X106354571Y-66734571D01*
X106354571Y-66677428D01*
X106383142Y-66620285D01*
X106411714Y-66591714D01*
X106468857Y-66563142D01*
X106526000Y-66563142D01*
X106583142Y-66591714D01*
X106611714Y-66620285D01*
X106640285Y-66677428D01*
X106640285Y-66734571D01*
X106611714Y-66791714D01*
X106583142Y-66820285D01*
X106354571Y-66820285D02*
X106583142Y-66820285D01*
X106611714Y-66848857D01*
X106611714Y-66877428D01*
X106583142Y-66934571D01*
X106526000Y-66963142D01*
X106383142Y-66963142D01*
X106297428Y-66905999D01*
X106240285Y-66820285D01*
X106211714Y-66705999D01*
X106240285Y-66591714D01*
X106297428Y-66505999D01*
X106383142Y-66448857D01*
X106497428Y-66420285D01*
X106611714Y-66448857D01*
X106697428Y-66505999D01*
X106754571Y-66591714D01*
X106783142Y-66705999D01*
X106754571Y-66820285D01*
X106697428Y-66905999D01*
X106097428Y-67134571D02*
X106697428Y-67334571D01*
X106097428Y-67534571D01*
X106697428Y-67734571D02*
X106097428Y-67734571D01*
X106097428Y-67877428D01*
X106126000Y-67963142D01*
X106183142Y-68020285D01*
X106240285Y-68048857D01*
X106354571Y-68077428D01*
X106440285Y-68077428D01*
X106554571Y-68048857D01*
X106611714Y-68020285D01*
X106668857Y-67963142D01*
X106697428Y-67877428D01*
X106697428Y-67734571D01*
X106697428Y-68334571D02*
X106097428Y-68334571D01*
X106097428Y-68477428D01*
X106126000Y-68563142D01*
X106183142Y-68620285D01*
X106240285Y-68648857D01*
X106354571Y-68677428D01*
X106440285Y-68677428D01*
X106554571Y-68648857D01*
X106611714Y-68620285D01*
X106668857Y-68563142D01*
X106697428Y-68477428D01*
X106697428Y-68334571D01*
X102541428Y-52721714D02*
X102970000Y-52721714D01*
X103055714Y-52693142D01*
X103112857Y-52636000D01*
X103141428Y-52550285D01*
X103141428Y-52493142D01*
X103141428Y-53007428D02*
X102541428Y-53007428D01*
X102541428Y-53236000D01*
X102570000Y-53293142D01*
X102598571Y-53321714D01*
X102655714Y-53350285D01*
X102741428Y-53350285D01*
X102798571Y-53321714D01*
X102827142Y-53293142D01*
X102855714Y-53236000D01*
X102855714Y-53007428D01*
X102598571Y-53578857D02*
X102570000Y-53607428D01*
X102541428Y-53664571D01*
X102541428Y-53807428D01*
X102570000Y-53864571D01*
X102598571Y-53893142D01*
X102655714Y-53921714D01*
X102712857Y-53921714D01*
X102798571Y-53893142D01*
X103141428Y-53550285D01*
X103141428Y-53921714D01*
X103084285Y-54178857D02*
X103112857Y-54207428D01*
X103141428Y-54178857D01*
X103112857Y-54150285D01*
X103084285Y-54178857D01*
X103141428Y-54178857D01*
X102770000Y-54178857D02*
X102798571Y-54207428D01*
X102827142Y-54178857D01*
X102798571Y-54150285D01*
X102770000Y-54178857D01*
X102827142Y-54178857D01*
X102541428Y-54921714D02*
X103027142Y-54921714D01*
X103084285Y-54950285D01*
X103112857Y-54978857D01*
X103141428Y-55036000D01*
X103141428Y-55150285D01*
X103112857Y-55207428D01*
X103084285Y-55236000D01*
X103027142Y-55264571D01*
X102541428Y-55264571D01*
X102970000Y-55521714D02*
X102970000Y-55807428D01*
X103141428Y-55464571D02*
X102541428Y-55664571D01*
X103141428Y-55864571D01*
X103141428Y-56407428D02*
X102855714Y-56207428D01*
X103141428Y-56064571D02*
X102541428Y-56064571D01*
X102541428Y-56293142D01*
X102570000Y-56350285D01*
X102598571Y-56378857D01*
X102655714Y-56407428D01*
X102741428Y-56407428D01*
X102798571Y-56378857D01*
X102827142Y-56350285D01*
X102855714Y-56293142D01*
X102855714Y-56064571D01*
X102541428Y-56578857D02*
X102541428Y-56921714D01*
X103141428Y-56750285D02*
X102541428Y-56750285D01*
X103141428Y-57607428D02*
X103141428Y-57721714D01*
X103112857Y-57778857D01*
X103084285Y-57807428D01*
X102998571Y-57864571D01*
X102884285Y-57893142D01*
X102655714Y-57893142D01*
X102598571Y-57864571D01*
X102570000Y-57836000D01*
X102541428Y-57778857D01*
X102541428Y-57664571D01*
X102570000Y-57607428D01*
X102598571Y-57578857D01*
X102655714Y-57550285D01*
X102798571Y-57550285D01*
X102855714Y-57578857D01*
X102884285Y-57607428D01*
X102912857Y-57664571D01*
X102912857Y-57778857D01*
X102884285Y-57836000D01*
X102855714Y-57864571D01*
X102798571Y-57893142D01*
X103141428Y-58150285D02*
X102541428Y-58150285D01*
X102770000Y-58150285D02*
X102741428Y-58207428D01*
X102741428Y-58321714D01*
X102770000Y-58378857D01*
X102798571Y-58407428D01*
X102855714Y-58436000D01*
X103027142Y-58436000D01*
X103084285Y-58407428D01*
X103112857Y-58378857D01*
X103141428Y-58321714D01*
X103141428Y-58207428D01*
X103112857Y-58150285D01*
X103141428Y-58693142D02*
X102741428Y-58693142D01*
X102541428Y-58693142D02*
X102570000Y-58664571D01*
X102598571Y-58693142D01*
X102570000Y-58721714D01*
X102541428Y-58693142D01*
X102598571Y-58693142D01*
X102741428Y-58893142D02*
X102741428Y-59121714D01*
X102541428Y-58978857D02*
X103055714Y-58978857D01*
X103112857Y-59007428D01*
X103141428Y-59064571D01*
X103141428Y-59121714D01*
X102855714Y-59693142D02*
X102827142Y-59664571D01*
X102798571Y-59607428D01*
X102798571Y-59550285D01*
X102827142Y-59493142D01*
X102855714Y-59464571D01*
X102912857Y-59436000D01*
X102970000Y-59436000D01*
X103027142Y-59464571D01*
X103055714Y-59493142D01*
X103084285Y-59550285D01*
X103084285Y-59607428D01*
X103055714Y-59664571D01*
X103027142Y-59693142D01*
X102798571Y-59693142D02*
X103027142Y-59693142D01*
X103055714Y-59721714D01*
X103055714Y-59750285D01*
X103027142Y-59807428D01*
X102970000Y-59836000D01*
X102827142Y-59836000D01*
X102741428Y-59778857D01*
X102684285Y-59693142D01*
X102655714Y-59578857D01*
X102684285Y-59464571D01*
X102741428Y-59378857D01*
X102827142Y-59321714D01*
X102941428Y-59293142D01*
X103055714Y-59321714D01*
X103141428Y-59378857D01*
X103198571Y-59464571D01*
X103227142Y-59578857D01*
X103198571Y-59693142D01*
X103141428Y-59778857D01*
X102570000Y-60407428D02*
X102541428Y-60350285D01*
X102541428Y-60264571D01*
X102570000Y-60178857D01*
X102627142Y-60121714D01*
X102684285Y-60093142D01*
X102798571Y-60064571D01*
X102884285Y-60064571D01*
X102998571Y-60093142D01*
X103055714Y-60121714D01*
X103112857Y-60178857D01*
X103141428Y-60264571D01*
X103141428Y-60321714D01*
X103112857Y-60407428D01*
X103084285Y-60436000D01*
X102884285Y-60436000D01*
X102884285Y-60321714D01*
X103141428Y-60693142D02*
X102541428Y-60693142D01*
X103141428Y-61036000D01*
X102541428Y-61036000D01*
X103141428Y-61321714D02*
X102541428Y-61321714D01*
X102541428Y-61464571D01*
X102570000Y-61550285D01*
X102627142Y-61607428D01*
X102684285Y-61636000D01*
X102798571Y-61664571D01*
X102884285Y-61664571D01*
X102998571Y-61636000D01*
X103055714Y-61607428D01*
X103112857Y-61550285D01*
X103141428Y-61464571D01*
X103141428Y-61321714D01*
X102798571Y-62464571D02*
X102770000Y-62407428D01*
X102741428Y-62378857D01*
X102684285Y-62350285D01*
X102655714Y-62350285D01*
X102598571Y-62378857D01*
X102570000Y-62407428D01*
X102541428Y-62464571D01*
X102541428Y-62578857D01*
X102570000Y-62636000D01*
X102598571Y-62664571D01*
X102655714Y-62693142D01*
X102684285Y-62693142D01*
X102741428Y-62664571D01*
X102770000Y-62636000D01*
X102798571Y-62578857D01*
X102798571Y-62464571D01*
X102827142Y-62407428D01*
X102855714Y-62378857D01*
X102912857Y-62350285D01*
X103027142Y-62350285D01*
X103084285Y-62378857D01*
X103112857Y-62407428D01*
X103141428Y-62464571D01*
X103141428Y-62578857D01*
X103112857Y-62636000D01*
X103084285Y-62664571D01*
X103027142Y-62693142D01*
X102912857Y-62693142D01*
X102855714Y-62664571D01*
X102827142Y-62636000D01*
X102798571Y-62578857D01*
X103141428Y-62950285D02*
X102541428Y-62950285D01*
X102770000Y-62950285D02*
X102741428Y-63007428D01*
X102741428Y-63121714D01*
X102770000Y-63178857D01*
X102798571Y-63207428D01*
X102855714Y-63236000D01*
X103027142Y-63236000D01*
X103084285Y-63207428D01*
X103112857Y-63178857D01*
X103141428Y-63121714D01*
X103141428Y-63007428D01*
X103112857Y-62950285D01*
X103141428Y-63493142D02*
X102741428Y-63493142D01*
X102541428Y-63493142D02*
X102570000Y-63464571D01*
X102598571Y-63493142D01*
X102570000Y-63521714D01*
X102541428Y-63493142D01*
X102598571Y-63493142D01*
X102741428Y-63693142D02*
X102741428Y-63921714D01*
X102541428Y-63778857D02*
X103055714Y-63778857D01*
X103112857Y-63807428D01*
X103141428Y-63864571D01*
X103141428Y-63921714D01*
X102855714Y-64493142D02*
X102827142Y-64464571D01*
X102798571Y-64407428D01*
X102798571Y-64350285D01*
X102827142Y-64293142D01*
X102855714Y-64264571D01*
X102912857Y-64236000D01*
X102970000Y-64236000D01*
X103027142Y-64264571D01*
X103055714Y-64293142D01*
X103084285Y-64350285D01*
X103084285Y-64407428D01*
X103055714Y-64464571D01*
X103027142Y-64493142D01*
X102798571Y-64493142D02*
X103027142Y-64493142D01*
X103055714Y-64521714D01*
X103055714Y-64550285D01*
X103027142Y-64607428D01*
X102970000Y-64636000D01*
X102827142Y-64636000D01*
X102741428Y-64578857D01*
X102684285Y-64493142D01*
X102655714Y-64378857D01*
X102684285Y-64264571D01*
X102741428Y-64178857D01*
X102827142Y-64121714D01*
X102941428Y-64093142D01*
X103055714Y-64121714D01*
X103141428Y-64178857D01*
X103198571Y-64264571D01*
X103227142Y-64378857D01*
X103198571Y-64493142D01*
X103141428Y-64578857D01*
X102541428Y-64807428D02*
X103141428Y-65007428D01*
X102541428Y-65207428D01*
X103141428Y-65407428D02*
X102541428Y-65407428D01*
X102541428Y-65550285D01*
X102570000Y-65636000D01*
X102627142Y-65693142D01*
X102684285Y-65721714D01*
X102798571Y-65750285D01*
X102884285Y-65750285D01*
X102998571Y-65721714D01*
X103055714Y-65693142D01*
X103112857Y-65636000D01*
X103141428Y-65550285D01*
X103141428Y-65407428D01*
X103141428Y-66007428D02*
X102541428Y-66007428D01*
X102541428Y-66150285D01*
X102570000Y-66236000D01*
X102627142Y-66293142D01*
X102684285Y-66321714D01*
X102798571Y-66350285D01*
X102884285Y-66350285D01*
X102998571Y-66321714D01*
X103055714Y-66293142D01*
X103112857Y-66236000D01*
X103141428Y-66150285D01*
X103141428Y-66007428D01*
X103949333Y-45426380D02*
X103616000Y-46426380D01*
X103282666Y-45426380D01*
X102949333Y-46426380D02*
X102949333Y-45426380D01*
X102711238Y-45426380D01*
X102568380Y-45474000D01*
X102473142Y-45569238D01*
X102425523Y-45664476D01*
X102377904Y-45854952D01*
X102377904Y-45997809D01*
X102425523Y-46188285D01*
X102473142Y-46283523D01*
X102568380Y-46378761D01*
X102711238Y-46426380D01*
X102949333Y-46426380D01*
X101949333Y-46426380D02*
X101949333Y-45426380D01*
X101711238Y-45426380D01*
X101568380Y-45474000D01*
X101473142Y-45569238D01*
X101425523Y-45664476D01*
X101377904Y-45854952D01*
X101377904Y-45997809D01*
X101425523Y-46188285D01*
X101473142Y-46283523D01*
X101568380Y-46378761D01*
X101711238Y-46426380D01*
X101949333Y-46426380D01*
X99239428Y-52748857D02*
X99668000Y-52748857D01*
X99753714Y-52720285D01*
X99810857Y-52663142D01*
X99839428Y-52577428D01*
X99839428Y-52520285D01*
X99839428Y-53034571D02*
X99239428Y-53034571D01*
X99239428Y-53263142D01*
X99268000Y-53320285D01*
X99296571Y-53348857D01*
X99353714Y-53377428D01*
X99439428Y-53377428D01*
X99496571Y-53348857D01*
X99525142Y-53320285D01*
X99553714Y-53263142D01*
X99553714Y-53034571D01*
X99839428Y-53948857D02*
X99839428Y-53606000D01*
X99839428Y-53777428D02*
X99239428Y-53777428D01*
X99325142Y-53720285D01*
X99382285Y-53663142D01*
X99410857Y-53606000D01*
X99782285Y-54206000D02*
X99810857Y-54234571D01*
X99839428Y-54206000D01*
X99810857Y-54177428D01*
X99782285Y-54206000D01*
X99839428Y-54206000D01*
X99468000Y-54206000D02*
X99496571Y-54234571D01*
X99525142Y-54206000D01*
X99496571Y-54177428D01*
X99468000Y-54206000D01*
X99525142Y-54206000D01*
X99239428Y-54891714D02*
X99839428Y-55291714D01*
X99239428Y-55291714D02*
X99839428Y-54891714D01*
X99782285Y-55863142D02*
X99810857Y-55834571D01*
X99839428Y-55748857D01*
X99839428Y-55691714D01*
X99810857Y-55606000D01*
X99753714Y-55548857D01*
X99696571Y-55520285D01*
X99582285Y-55491714D01*
X99496571Y-55491714D01*
X99382285Y-55520285D01*
X99325142Y-55548857D01*
X99268000Y-55606000D01*
X99239428Y-55691714D01*
X99239428Y-55748857D01*
X99268000Y-55834571D01*
X99296571Y-55863142D01*
X99839428Y-56406000D02*
X99839428Y-56120285D01*
X99239428Y-56120285D01*
X99839428Y-56606000D02*
X99239428Y-56606000D01*
X99839428Y-56948857D02*
X99496571Y-56691714D01*
X99239428Y-56948857D02*
X99582285Y-56606000D01*
X99782285Y-57548857D02*
X99810857Y-57520285D01*
X99839428Y-57434571D01*
X99839428Y-57377428D01*
X99810857Y-57291714D01*
X99753714Y-57234571D01*
X99696571Y-57206000D01*
X99582285Y-57177428D01*
X99496571Y-57177428D01*
X99382285Y-57206000D01*
X99325142Y-57234571D01*
X99268000Y-57291714D01*
X99239428Y-57377428D01*
X99239428Y-57434571D01*
X99268000Y-57520285D01*
X99296571Y-57548857D01*
X99496571Y-58348857D02*
X99468000Y-58291714D01*
X99439428Y-58263142D01*
X99382285Y-58234571D01*
X99353714Y-58234571D01*
X99296571Y-58263142D01*
X99268000Y-58291714D01*
X99239428Y-58348857D01*
X99239428Y-58463142D01*
X99268000Y-58520285D01*
X99296571Y-58548857D01*
X99353714Y-58577428D01*
X99382285Y-58577428D01*
X99439428Y-58548857D01*
X99468000Y-58520285D01*
X99496571Y-58463142D01*
X99496571Y-58348857D01*
X99525142Y-58291714D01*
X99553714Y-58263142D01*
X99610857Y-58234571D01*
X99725142Y-58234571D01*
X99782285Y-58263142D01*
X99810857Y-58291714D01*
X99839428Y-58348857D01*
X99839428Y-58463142D01*
X99810857Y-58520285D01*
X99782285Y-58548857D01*
X99725142Y-58577428D01*
X99610857Y-58577428D01*
X99553714Y-58548857D01*
X99525142Y-58520285D01*
X99496571Y-58463142D01*
X99839428Y-58834571D02*
X99239428Y-58834571D01*
X99668000Y-59034571D01*
X99239428Y-59234571D01*
X99839428Y-59234571D01*
X99839428Y-59520285D02*
X99239428Y-59520285D01*
X99525142Y-59520285D02*
X99525142Y-59863142D01*
X99839428Y-59863142D02*
X99239428Y-59863142D01*
X99439428Y-60091714D02*
X99439428Y-60405999D01*
X99839428Y-60091714D01*
X99839428Y-60405999D01*
X99553714Y-61005999D02*
X99525142Y-60977428D01*
X99496571Y-60920285D01*
X99496571Y-60863142D01*
X99525142Y-60805999D01*
X99553714Y-60777428D01*
X99610857Y-60748857D01*
X99668000Y-60748857D01*
X99725142Y-60777428D01*
X99753714Y-60805999D01*
X99782285Y-60863142D01*
X99782285Y-60920285D01*
X99753714Y-60977428D01*
X99725142Y-61005999D01*
X99496571Y-61005999D02*
X99725142Y-61005999D01*
X99753714Y-61034571D01*
X99753714Y-61063142D01*
X99725142Y-61120285D01*
X99668000Y-61148857D01*
X99525142Y-61148857D01*
X99439428Y-61091714D01*
X99382285Y-61005999D01*
X99353714Y-60891714D01*
X99382285Y-60777428D01*
X99439428Y-60691714D01*
X99525142Y-60634571D01*
X99639428Y-60605999D01*
X99753714Y-60634571D01*
X99839428Y-60691714D01*
X99896571Y-60777428D01*
X99925142Y-60891714D01*
X99896571Y-61005999D01*
X99839428Y-61091714D01*
X99268000Y-61720285D02*
X99239428Y-61663142D01*
X99239428Y-61577428D01*
X99268000Y-61491714D01*
X99325142Y-61434571D01*
X99382285Y-61405999D01*
X99496571Y-61377428D01*
X99582285Y-61377428D01*
X99696571Y-61405999D01*
X99753714Y-61434571D01*
X99810857Y-61491714D01*
X99839428Y-61577428D01*
X99839428Y-61634571D01*
X99810857Y-61720285D01*
X99782285Y-61748857D01*
X99582285Y-61748857D01*
X99582285Y-61634571D01*
X99839428Y-62005999D02*
X99239428Y-62005999D01*
X99839428Y-62348857D01*
X99239428Y-62348857D01*
X99839428Y-62634571D02*
X99239428Y-62634571D01*
X99239428Y-62777428D01*
X99268000Y-62863142D01*
X99325142Y-62920285D01*
X99382285Y-62948857D01*
X99496571Y-62977428D01*
X99582285Y-62977428D01*
X99696571Y-62948857D01*
X99753714Y-62920285D01*
X99810857Y-62863142D01*
X99839428Y-62777428D01*
X99839428Y-62634571D01*
X99839428Y-64005999D02*
X99839428Y-63663142D01*
X99839428Y-63834571D02*
X99239428Y-63834571D01*
X99325142Y-63777428D01*
X99382285Y-63720285D01*
X99410857Y-63663142D01*
X99239428Y-64520285D02*
X99239428Y-64405999D01*
X99268000Y-64348857D01*
X99296571Y-64320285D01*
X99382285Y-64263142D01*
X99496571Y-64234571D01*
X99725142Y-64234571D01*
X99782285Y-64263142D01*
X99810857Y-64291714D01*
X99839428Y-64348857D01*
X99839428Y-64463142D01*
X99810857Y-64520285D01*
X99782285Y-64548857D01*
X99725142Y-64577428D01*
X99582285Y-64577428D01*
X99525142Y-64548857D01*
X99496571Y-64520285D01*
X99468000Y-64463142D01*
X99468000Y-64348857D01*
X99496571Y-64291714D01*
X99525142Y-64263142D01*
X99582285Y-64234571D01*
X99839428Y-64834571D02*
X99239428Y-64834571D01*
X99668000Y-65034571D01*
X99239428Y-65234571D01*
X99839428Y-65234571D01*
X99839428Y-65520285D02*
X99239428Y-65520285D01*
X99525142Y-65520285D02*
X99525142Y-65863142D01*
X99839428Y-65863142D02*
X99239428Y-65863142D01*
X99439428Y-66091714D02*
X99439428Y-66405999D01*
X99839428Y-66091714D01*
X99839428Y-66405999D01*
X99553714Y-67005999D02*
X99525142Y-66977428D01*
X99496571Y-66920285D01*
X99496571Y-66863142D01*
X99525142Y-66805999D01*
X99553714Y-66777428D01*
X99610857Y-66748857D01*
X99668000Y-66748857D01*
X99725142Y-66777428D01*
X99753714Y-66805999D01*
X99782285Y-66863142D01*
X99782285Y-66920285D01*
X99753714Y-66977428D01*
X99725142Y-67005999D01*
X99496571Y-67005999D02*
X99725142Y-67005999D01*
X99753714Y-67034571D01*
X99753714Y-67063142D01*
X99725142Y-67120285D01*
X99668000Y-67148857D01*
X99525142Y-67148857D01*
X99439428Y-67091714D01*
X99382285Y-67005999D01*
X99353714Y-66891714D01*
X99382285Y-66777428D01*
X99439428Y-66691714D01*
X99525142Y-66634571D01*
X99639428Y-66605999D01*
X99753714Y-66634571D01*
X99839428Y-66691714D01*
X99896571Y-66777428D01*
X99925142Y-66891714D01*
X99896571Y-67005999D01*
X99839428Y-67091714D01*
X99239428Y-67320285D02*
X99839428Y-67520285D01*
X99239428Y-67720285D01*
X99839428Y-67920285D02*
X99239428Y-67920285D01*
X99239428Y-68063142D01*
X99268000Y-68148857D01*
X99325142Y-68205999D01*
X99382285Y-68234571D01*
X99496571Y-68263142D01*
X99582285Y-68263142D01*
X99696571Y-68234571D01*
X99753714Y-68205999D01*
X99810857Y-68148857D01*
X99839428Y-68063142D01*
X99839428Y-67920285D01*
X99839428Y-68520285D02*
X99239428Y-68520285D01*
X99239428Y-68663142D01*
X99268000Y-68748857D01*
X99325142Y-68805999D01*
X99382285Y-68834571D01*
X99496571Y-68863142D01*
X99582285Y-68863142D01*
X99696571Y-68834571D01*
X99753714Y-68805999D01*
X99810857Y-68748857D01*
X99839428Y-68663142D01*
X99839428Y-68520285D01*
X96445428Y-50572000D02*
X96874000Y-50572000D01*
X96959714Y-50543428D01*
X97016857Y-50486285D01*
X97045428Y-50400571D01*
X97045428Y-50343428D01*
X97045428Y-50857714D02*
X96445428Y-50857714D01*
X96445428Y-51086285D01*
X96474000Y-51143428D01*
X96502571Y-51172000D01*
X96559714Y-51200571D01*
X96645428Y-51200571D01*
X96702571Y-51172000D01*
X96731142Y-51143428D01*
X96759714Y-51086285D01*
X96759714Y-50857714D01*
X96445428Y-51400571D02*
X96445428Y-51800571D01*
X97045428Y-51543428D01*
X96988285Y-52029142D02*
X97016857Y-52057714D01*
X97045428Y-52029142D01*
X97016857Y-52000571D01*
X96988285Y-52029142D01*
X97045428Y-52029142D01*
X96674000Y-52029142D02*
X96702571Y-52057714D01*
X96731142Y-52029142D01*
X96702571Y-52000571D01*
X96674000Y-52029142D01*
X96731142Y-52029142D01*
X97045428Y-52772000D02*
X96445428Y-52772000D01*
X96445428Y-53000571D01*
X96474000Y-53057714D01*
X96502571Y-53086285D01*
X96559714Y-53114857D01*
X96645428Y-53114857D01*
X96702571Y-53086285D01*
X96731142Y-53057714D01*
X96759714Y-53000571D01*
X96759714Y-52772000D01*
X96445428Y-53314857D02*
X97045428Y-53457714D01*
X96616857Y-53572000D01*
X97045428Y-53686285D01*
X96445428Y-53829142D01*
X97045428Y-54400571D02*
X96759714Y-54200571D01*
X97045428Y-54057714D02*
X96445428Y-54057714D01*
X96445428Y-54286285D01*
X96474000Y-54343428D01*
X96502571Y-54372000D01*
X96559714Y-54400571D01*
X96645428Y-54400571D01*
X96702571Y-54372000D01*
X96731142Y-54343428D01*
X96759714Y-54286285D01*
X96759714Y-54057714D01*
X97045428Y-55114857D02*
X96445428Y-55114857D01*
X97045428Y-55457714D02*
X96702571Y-55200571D01*
X96445428Y-55457714D02*
X96788285Y-55114857D01*
X97045428Y-55714857D02*
X96445428Y-55714857D01*
X97045428Y-56057714D01*
X96445428Y-56057714D01*
X96445428Y-56286285D02*
X97045428Y-56686285D01*
X96445428Y-56686285D02*
X97045428Y-56286285D01*
X96645428Y-57286285D02*
X96645428Y-57514857D01*
X96445428Y-57372000D02*
X96959714Y-57372000D01*
X97016857Y-57400571D01*
X97045428Y-57457714D01*
X97045428Y-57514857D01*
X97045428Y-57800571D02*
X97016857Y-57743428D01*
X96988285Y-57714857D01*
X96931142Y-57686285D01*
X96759714Y-57686285D01*
X96702571Y-57714857D01*
X96674000Y-57743428D01*
X96645428Y-57800571D01*
X96645428Y-57886285D01*
X96674000Y-57943428D01*
X96702571Y-57972000D01*
X96759714Y-58000571D01*
X96931142Y-58000571D01*
X96988285Y-57972000D01*
X97016857Y-57943428D01*
X97045428Y-57886285D01*
X97045428Y-57800571D01*
X97045428Y-58714857D02*
X96445428Y-58714857D01*
X96874000Y-58914857D01*
X96445428Y-59114857D01*
X97045428Y-59114857D01*
X96988285Y-59743428D02*
X97016857Y-59714857D01*
X97045428Y-59629142D01*
X97045428Y-59572000D01*
X97016857Y-59486285D01*
X96959714Y-59429142D01*
X96902571Y-59400571D01*
X96788285Y-59372000D01*
X96702571Y-59372000D01*
X96588285Y-59400571D01*
X96531142Y-59429142D01*
X96474000Y-59486285D01*
X96445428Y-59572000D01*
X96445428Y-59629142D01*
X96474000Y-59714857D01*
X96502571Y-59743428D01*
X96445428Y-60000571D02*
X96931142Y-60000571D01*
X96988285Y-60029142D01*
X97016857Y-60057714D01*
X97045428Y-60114857D01*
X97045428Y-60229142D01*
X97016857Y-60286285D01*
X96988285Y-60314857D01*
X96931142Y-60343428D01*
X96445428Y-60343428D01*
X88663428Y-43496000D02*
X88063428Y-43496000D01*
X88063428Y-43724571D01*
X88092000Y-43781714D01*
X88120571Y-43810285D01*
X88177714Y-43838857D01*
X88263428Y-43838857D01*
X88320571Y-43810285D01*
X88349142Y-43781714D01*
X88377714Y-43724571D01*
X88377714Y-43496000D01*
X88492000Y-44067428D02*
X88492000Y-44353142D01*
X88663428Y-44010285D02*
X88063428Y-44210285D01*
X88663428Y-44410285D01*
X88663428Y-44924571D02*
X88663428Y-44581714D01*
X88663428Y-44753142D02*
X88063428Y-44753142D01*
X88149142Y-44696000D01*
X88206285Y-44638857D01*
X88234857Y-44581714D01*
X88063428Y-46532857D02*
X88063428Y-46875714D01*
X88663428Y-46704285D02*
X88063428Y-46704285D01*
X88063428Y-47018571D02*
X88663428Y-47418571D01*
X88063428Y-47418571D02*
X88663428Y-47018571D01*
X88663428Y-56450000D02*
X88063428Y-56450000D01*
X88063428Y-56678571D01*
X88092000Y-56735714D01*
X88120571Y-56764285D01*
X88177714Y-56792857D01*
X88263428Y-56792857D01*
X88320571Y-56764285D01*
X88349142Y-56735714D01*
X88377714Y-56678571D01*
X88377714Y-56450000D01*
X88492000Y-57021428D02*
X88492000Y-57307142D01*
X88663428Y-56964285D02*
X88063428Y-57164285D01*
X88663428Y-57364285D01*
X88063428Y-57821428D02*
X88063428Y-57707142D01*
X88092000Y-57650000D01*
X88120571Y-57621428D01*
X88206285Y-57564285D01*
X88320571Y-57535714D01*
X88549142Y-57535714D01*
X88606285Y-57564285D01*
X88634857Y-57592857D01*
X88663428Y-57650000D01*
X88663428Y-57764285D01*
X88634857Y-57821428D01*
X88606285Y-57850000D01*
X88549142Y-57878571D01*
X88406285Y-57878571D01*
X88349142Y-57850000D01*
X88320571Y-57821428D01*
X88292000Y-57764285D01*
X88292000Y-57650000D01*
X88320571Y-57592857D01*
X88349142Y-57564285D01*
X88406285Y-57535714D01*
X88663428Y-51116000D02*
X88063428Y-51116000D01*
X88063428Y-51344571D01*
X88092000Y-51401714D01*
X88120571Y-51430285D01*
X88177714Y-51458857D01*
X88263428Y-51458857D01*
X88320571Y-51430285D01*
X88349142Y-51401714D01*
X88377714Y-51344571D01*
X88377714Y-51116000D01*
X88492000Y-51687428D02*
X88492000Y-51973142D01*
X88663428Y-51630285D02*
X88063428Y-51830285D01*
X88663428Y-52030285D01*
X88263428Y-52487428D02*
X88663428Y-52487428D01*
X88034857Y-52344571D02*
X88463428Y-52201714D01*
X88463428Y-52573142D01*
X88063428Y-66764000D02*
X88663428Y-66964000D01*
X88063428Y-67164000D01*
X88663428Y-67364000D02*
X88063428Y-67364000D01*
X88063428Y-67506857D01*
X88092000Y-67592571D01*
X88149142Y-67649714D01*
X88206285Y-67678285D01*
X88320571Y-67706857D01*
X88406285Y-67706857D01*
X88520571Y-67678285D01*
X88577714Y-67649714D01*
X88634857Y-67592571D01*
X88663428Y-67506857D01*
X88663428Y-67364000D01*
X88663428Y-67964000D02*
X88063428Y-67964000D01*
X88063428Y-68106857D01*
X88092000Y-68192571D01*
X88149142Y-68249714D01*
X88206285Y-68278285D01*
X88320571Y-68306857D01*
X88406285Y-68306857D01*
X88520571Y-68278285D01*
X88577714Y-68249714D01*
X88634857Y-68192571D01*
X88663428Y-68106857D01*
X88663428Y-67964000D01*
X88663428Y-53656000D02*
X88063428Y-53656000D01*
X88063428Y-53884571D01*
X88092000Y-53941714D01*
X88120571Y-53970285D01*
X88177714Y-53998857D01*
X88263428Y-53998857D01*
X88320571Y-53970285D01*
X88349142Y-53941714D01*
X88377714Y-53884571D01*
X88377714Y-53656000D01*
X88492000Y-54227428D02*
X88492000Y-54513142D01*
X88663428Y-54170285D02*
X88063428Y-54370285D01*
X88663428Y-54570285D01*
X88063428Y-55056000D02*
X88063428Y-54770285D01*
X88349142Y-54741714D01*
X88320571Y-54770285D01*
X88292000Y-54827428D01*
X88292000Y-54970285D01*
X88320571Y-55027428D01*
X88349142Y-55056000D01*
X88406285Y-55084571D01*
X88549142Y-55084571D01*
X88606285Y-55056000D01*
X88634857Y-55027428D01*
X88663428Y-54970285D01*
X88663428Y-54827428D01*
X88634857Y-54770285D01*
X88606285Y-54741714D01*
X88663428Y-40956000D02*
X88063428Y-40956000D01*
X88063428Y-41184571D01*
X88092000Y-41241714D01*
X88120571Y-41270285D01*
X88177714Y-41298857D01*
X88263428Y-41298857D01*
X88320571Y-41270285D01*
X88349142Y-41241714D01*
X88377714Y-41184571D01*
X88377714Y-40956000D01*
X88492000Y-41527428D02*
X88492000Y-41813142D01*
X88663428Y-41470285D02*
X88063428Y-41670285D01*
X88663428Y-41870285D01*
X88063428Y-42184571D02*
X88063428Y-42241714D01*
X88092000Y-42298857D01*
X88120571Y-42327428D01*
X88177714Y-42356000D01*
X88292000Y-42384571D01*
X88434857Y-42384571D01*
X88549142Y-42356000D01*
X88606285Y-42327428D01*
X88634857Y-42298857D01*
X88663428Y-42241714D01*
X88663428Y-42184571D01*
X88634857Y-42127428D01*
X88606285Y-42098857D01*
X88549142Y-42070285D01*
X88434857Y-42041714D01*
X88292000Y-42041714D01*
X88177714Y-42070285D01*
X88120571Y-42098857D01*
X88092000Y-42127428D01*
X88063428Y-42184571D01*
X88092000Y-71932857D02*
X88063428Y-71875714D01*
X88063428Y-71790000D01*
X88092000Y-71704285D01*
X88149142Y-71647142D01*
X88206285Y-71618571D01*
X88320571Y-71590000D01*
X88406285Y-71590000D01*
X88520571Y-71618571D01*
X88577714Y-71647142D01*
X88634857Y-71704285D01*
X88663428Y-71790000D01*
X88663428Y-71847142D01*
X88634857Y-71932857D01*
X88606285Y-71961428D01*
X88406285Y-71961428D01*
X88406285Y-71847142D01*
X88663428Y-72218571D02*
X88063428Y-72218571D01*
X88663428Y-72561428D01*
X88063428Y-72561428D01*
X88663428Y-72847142D02*
X88063428Y-72847142D01*
X88063428Y-72990000D01*
X88092000Y-73075714D01*
X88149142Y-73132857D01*
X88206285Y-73161428D01*
X88320571Y-73190000D01*
X88406285Y-73190000D01*
X88520571Y-73161428D01*
X88577714Y-73132857D01*
X88634857Y-73075714D01*
X88663428Y-72990000D01*
X88663428Y-72847142D01*
X88663428Y-49176000D02*
X88377714Y-48976000D01*
X88663428Y-48833142D02*
X88063428Y-48833142D01*
X88063428Y-49061714D01*
X88092000Y-49118857D01*
X88120571Y-49147428D01*
X88177714Y-49176000D01*
X88263428Y-49176000D01*
X88320571Y-49147428D01*
X88349142Y-49118857D01*
X88377714Y-49061714D01*
X88377714Y-48833142D01*
X88063428Y-49376000D02*
X88663428Y-49776000D01*
X88063428Y-49776000D02*
X88663428Y-49376000D01*
X88663428Y-61590285D02*
X88663428Y-61304571D01*
X88063428Y-61304571D01*
X88349142Y-61790285D02*
X88349142Y-61990285D01*
X88663428Y-62076000D02*
X88663428Y-61790285D01*
X88063428Y-61790285D01*
X88063428Y-62076000D01*
X88663428Y-62333142D02*
X88063428Y-62333142D01*
X88063428Y-62476000D01*
X88092000Y-62561714D01*
X88149142Y-62618857D01*
X88206285Y-62647428D01*
X88320571Y-62676000D01*
X88406285Y-62676000D01*
X88520571Y-62647428D01*
X88577714Y-62618857D01*
X88634857Y-62561714D01*
X88663428Y-62476000D01*
X88663428Y-62333142D01*
X88663428Y-38416000D02*
X88063428Y-38416000D01*
X88063428Y-38644571D01*
X88092000Y-38701714D01*
X88120571Y-38730285D01*
X88177714Y-38758857D01*
X88263428Y-38758857D01*
X88320571Y-38730285D01*
X88349142Y-38701714D01*
X88377714Y-38644571D01*
X88377714Y-38416000D01*
X88349142Y-39216000D02*
X88349142Y-39016000D01*
X88663428Y-39016000D02*
X88063428Y-39016000D01*
X88063428Y-39301714D01*
X88663428Y-39844571D02*
X88663428Y-39501714D01*
X88663428Y-39673142D02*
X88063428Y-39673142D01*
X88149142Y-39616000D01*
X88206285Y-39558857D01*
X88234857Y-39501714D01*
X88663428Y-63698571D02*
X88063428Y-63698571D01*
X88063428Y-63927142D01*
X88092000Y-63984285D01*
X88120571Y-64012857D01*
X88177714Y-64041428D01*
X88263428Y-64041428D01*
X88320571Y-64012857D01*
X88349142Y-63984285D01*
X88377714Y-63927142D01*
X88377714Y-63698571D01*
X88663428Y-64641428D02*
X88377714Y-64441428D01*
X88663428Y-64298571D02*
X88063428Y-64298571D01*
X88063428Y-64527142D01*
X88092000Y-64584285D01*
X88120571Y-64612857D01*
X88177714Y-64641428D01*
X88263428Y-64641428D01*
X88320571Y-64612857D01*
X88349142Y-64584285D01*
X88377714Y-64527142D01*
X88377714Y-64298571D01*
X88063428Y-65012857D02*
X88063428Y-65127142D01*
X88092000Y-65184285D01*
X88149142Y-65241428D01*
X88263428Y-65270000D01*
X88463428Y-65270000D01*
X88577714Y-65241428D01*
X88634857Y-65184285D01*
X88663428Y-65127142D01*
X88663428Y-65012857D01*
X88634857Y-64955714D01*
X88577714Y-64898571D01*
X88463428Y-64870000D01*
X88263428Y-64870000D01*
X88149142Y-64898571D01*
X88092000Y-64955714D01*
X88063428Y-65012857D01*
X88092000Y-65841428D02*
X88063428Y-65784285D01*
X88063428Y-65698571D01*
X88092000Y-65612857D01*
X88149142Y-65555714D01*
X88206285Y-65527142D01*
X88320571Y-65498571D01*
X88406285Y-65498571D01*
X88520571Y-65527142D01*
X88577714Y-65555714D01*
X88634857Y-65612857D01*
X88663428Y-65698571D01*
X88663428Y-65755714D01*
X88634857Y-65841428D01*
X88606285Y-65870000D01*
X88406285Y-65870000D01*
X88406285Y-65755714D01*
X88663428Y-58736000D02*
X88063428Y-58736000D01*
X88063428Y-58964571D01*
X88092000Y-59021714D01*
X88120571Y-59050285D01*
X88177714Y-59078857D01*
X88263428Y-59078857D01*
X88320571Y-59050285D01*
X88349142Y-59021714D01*
X88377714Y-58964571D01*
X88377714Y-58736000D01*
X88492000Y-59307428D02*
X88492000Y-59593142D01*
X88663428Y-59250285D02*
X88063428Y-59450285D01*
X88663428Y-59650285D01*
X88063428Y-59793142D02*
X88063428Y-60193142D01*
X88663428Y-59936000D01*
X88092000Y-69900857D02*
X88063428Y-69843714D01*
X88063428Y-69758000D01*
X88092000Y-69672285D01*
X88149142Y-69615142D01*
X88206285Y-69586571D01*
X88320571Y-69558000D01*
X88406285Y-69558000D01*
X88520571Y-69586571D01*
X88577714Y-69615142D01*
X88634857Y-69672285D01*
X88663428Y-69758000D01*
X88663428Y-69815142D01*
X88634857Y-69900857D01*
X88606285Y-69929428D01*
X88406285Y-69929428D01*
X88406285Y-69815142D01*
X88663428Y-70186571D02*
X88063428Y-70186571D01*
X88663428Y-70529428D01*
X88063428Y-70529428D01*
X88663428Y-70815142D02*
X88063428Y-70815142D01*
X88063428Y-70958000D01*
X88092000Y-71043714D01*
X88149142Y-71100857D01*
X88206285Y-71129428D01*
X88320571Y-71158000D01*
X88406285Y-71158000D01*
X88520571Y-71129428D01*
X88577714Y-71100857D01*
X88634857Y-71043714D01*
X88663428Y-70958000D01*
X88663428Y-70815142D01*
X88606285Y-35647428D02*
X88634857Y-35618857D01*
X88663428Y-35533142D01*
X88663428Y-35476000D01*
X88634857Y-35390285D01*
X88577714Y-35333142D01*
X88520571Y-35304571D01*
X88406285Y-35276000D01*
X88320571Y-35276000D01*
X88206285Y-35304571D01*
X88149142Y-35333142D01*
X88092000Y-35390285D01*
X88063428Y-35476000D01*
X88063428Y-35533142D01*
X88092000Y-35618857D01*
X88120571Y-35647428D01*
X88663428Y-36190285D02*
X88663428Y-35904571D01*
X88063428Y-35904571D01*
X88663428Y-36390285D02*
X88063428Y-36390285D01*
X88663428Y-36733142D02*
X88320571Y-36476000D01*
X88063428Y-36733142D02*
X88406285Y-36390285D01*
X88663428Y-37304571D02*
X88663428Y-36961714D01*
X88663428Y-37133142D02*
X88063428Y-37133142D01*
X88149142Y-37076000D01*
X88206285Y-37018857D01*
X88234857Y-36961714D01*
X88063428Y-37818857D02*
X88063428Y-37704571D01*
X88092000Y-37647428D01*
X88120571Y-37618857D01*
X88206285Y-37561714D01*
X88320571Y-37533142D01*
X88549142Y-37533142D01*
X88606285Y-37561714D01*
X88634857Y-37590285D01*
X88663428Y-37647428D01*
X88663428Y-37761714D01*
X88634857Y-37818857D01*
X88606285Y-37847428D01*
X88549142Y-37876000D01*
X88406285Y-37876000D01*
X88349142Y-37847428D01*
X88320571Y-37818857D01*
X88292000Y-37761714D01*
X88292000Y-37647428D01*
X88320571Y-37590285D01*
X88349142Y-37561714D01*
X88406285Y-37533142D01*
X118289428Y-38824000D02*
X118889428Y-39024000D01*
X118289428Y-39224000D01*
X118889428Y-39424000D02*
X118289428Y-39424000D01*
X118289428Y-39566857D01*
X118318000Y-39652571D01*
X118375142Y-39709714D01*
X118432285Y-39738285D01*
X118546571Y-39766857D01*
X118632285Y-39766857D01*
X118746571Y-39738285D01*
X118803714Y-39709714D01*
X118860857Y-39652571D01*
X118889428Y-39566857D01*
X118889428Y-39424000D01*
X118889428Y-40024000D02*
X118289428Y-40024000D01*
X118289428Y-40166857D01*
X118318000Y-40252571D01*
X118375142Y-40309714D01*
X118432285Y-40338285D01*
X118546571Y-40366857D01*
X118632285Y-40366857D01*
X118746571Y-40338285D01*
X118803714Y-40309714D01*
X118860857Y-40252571D01*
X118889428Y-40166857D01*
X118889428Y-40024000D01*
X118889428Y-51327142D02*
X118289428Y-51327142D01*
X118289428Y-51555714D01*
X118318000Y-51612857D01*
X118346571Y-51641428D01*
X118403714Y-51670000D01*
X118489428Y-51670000D01*
X118546571Y-51641428D01*
X118575142Y-51612857D01*
X118603714Y-51555714D01*
X118603714Y-51327142D01*
X118575142Y-52127142D02*
X118603714Y-52212857D01*
X118632285Y-52241428D01*
X118689428Y-52270000D01*
X118775142Y-52270000D01*
X118832285Y-52241428D01*
X118860857Y-52212857D01*
X118889428Y-52155714D01*
X118889428Y-51927142D01*
X118289428Y-51927142D01*
X118289428Y-52127142D01*
X118318000Y-52184285D01*
X118346571Y-52212857D01*
X118403714Y-52241428D01*
X118460857Y-52241428D01*
X118518000Y-52212857D01*
X118546571Y-52184285D01*
X118575142Y-52127142D01*
X118575142Y-51927142D01*
X118489428Y-52784285D02*
X118889428Y-52784285D01*
X118260857Y-52641428D02*
X118689428Y-52498571D01*
X118689428Y-52870000D01*
X118318000Y-69900857D02*
X118289428Y-69843714D01*
X118289428Y-69758000D01*
X118318000Y-69672285D01*
X118375142Y-69615142D01*
X118432285Y-69586571D01*
X118546571Y-69558000D01*
X118632285Y-69558000D01*
X118746571Y-69586571D01*
X118803714Y-69615142D01*
X118860857Y-69672285D01*
X118889428Y-69758000D01*
X118889428Y-69815142D01*
X118860857Y-69900857D01*
X118832285Y-69929428D01*
X118632285Y-69929428D01*
X118632285Y-69815142D01*
X118889428Y-70186571D02*
X118289428Y-70186571D01*
X118889428Y-70529428D01*
X118289428Y-70529428D01*
X118889428Y-70815142D02*
X118289428Y-70815142D01*
X118289428Y-70958000D01*
X118318000Y-71043714D01*
X118375142Y-71100857D01*
X118432285Y-71129428D01*
X118546571Y-71158000D01*
X118632285Y-71158000D01*
X118746571Y-71129428D01*
X118803714Y-71100857D01*
X118860857Y-71043714D01*
X118889428Y-70958000D01*
X118889428Y-70815142D01*
X118889428Y-49041142D02*
X118289428Y-49041142D01*
X118289428Y-49269714D01*
X118318000Y-49326857D01*
X118346571Y-49355428D01*
X118403714Y-49384000D01*
X118489428Y-49384000D01*
X118546571Y-49355428D01*
X118575142Y-49326857D01*
X118603714Y-49269714D01*
X118603714Y-49041142D01*
X118575142Y-49841142D02*
X118603714Y-49926857D01*
X118632285Y-49955428D01*
X118689428Y-49984000D01*
X118775142Y-49984000D01*
X118832285Y-49955428D01*
X118860857Y-49926857D01*
X118889428Y-49869714D01*
X118889428Y-49641142D01*
X118289428Y-49641142D01*
X118289428Y-49841142D01*
X118318000Y-49898285D01*
X118346571Y-49926857D01*
X118403714Y-49955428D01*
X118460857Y-49955428D01*
X118518000Y-49926857D01*
X118546571Y-49898285D01*
X118575142Y-49841142D01*
X118575142Y-49641142D01*
X118289428Y-50526857D02*
X118289428Y-50241142D01*
X118575142Y-50212571D01*
X118546571Y-50241142D01*
X118518000Y-50298285D01*
X118518000Y-50441142D01*
X118546571Y-50498285D01*
X118575142Y-50526857D01*
X118632285Y-50555428D01*
X118775142Y-50555428D01*
X118832285Y-50526857D01*
X118860857Y-50498285D01*
X118889428Y-50441142D01*
X118889428Y-50298285D01*
X118860857Y-50241142D01*
X118832285Y-50212571D01*
X118889428Y-53867142D02*
X118289428Y-53867142D01*
X118289428Y-54095714D01*
X118318000Y-54152857D01*
X118346571Y-54181428D01*
X118403714Y-54210000D01*
X118489428Y-54210000D01*
X118546571Y-54181428D01*
X118575142Y-54152857D01*
X118603714Y-54095714D01*
X118603714Y-53867142D01*
X118575142Y-54667142D02*
X118603714Y-54752857D01*
X118632285Y-54781428D01*
X118689428Y-54810000D01*
X118775142Y-54810000D01*
X118832285Y-54781428D01*
X118860857Y-54752857D01*
X118889428Y-54695714D01*
X118889428Y-54467142D01*
X118289428Y-54467142D01*
X118289428Y-54667142D01*
X118318000Y-54724285D01*
X118346571Y-54752857D01*
X118403714Y-54781428D01*
X118460857Y-54781428D01*
X118518000Y-54752857D01*
X118546571Y-54724285D01*
X118575142Y-54667142D01*
X118575142Y-54467142D01*
X118289428Y-55010000D02*
X118289428Y-55381428D01*
X118518000Y-55181428D01*
X118518000Y-55267142D01*
X118546571Y-55324285D01*
X118575142Y-55352857D01*
X118632285Y-55381428D01*
X118775142Y-55381428D01*
X118832285Y-55352857D01*
X118860857Y-55324285D01*
X118889428Y-55267142D01*
X118889428Y-55095714D01*
X118860857Y-55038571D01*
X118832285Y-55010000D01*
X118889428Y-43961142D02*
X118289428Y-43961142D01*
X118289428Y-44189714D01*
X118318000Y-44246857D01*
X118346571Y-44275428D01*
X118403714Y-44304000D01*
X118489428Y-44304000D01*
X118546571Y-44275428D01*
X118575142Y-44246857D01*
X118603714Y-44189714D01*
X118603714Y-43961142D01*
X118575142Y-44761142D02*
X118603714Y-44846857D01*
X118632285Y-44875428D01*
X118689428Y-44904000D01*
X118775142Y-44904000D01*
X118832285Y-44875428D01*
X118860857Y-44846857D01*
X118889428Y-44789714D01*
X118889428Y-44561142D01*
X118289428Y-44561142D01*
X118289428Y-44761142D01*
X118318000Y-44818285D01*
X118346571Y-44846857D01*
X118403714Y-44875428D01*
X118460857Y-44875428D01*
X118518000Y-44846857D01*
X118546571Y-44818285D01*
X118575142Y-44761142D01*
X118575142Y-44561142D01*
X118289428Y-45104000D02*
X118289428Y-45504000D01*
X118889428Y-45246857D01*
X118889428Y-72272571D02*
X118889428Y-71929714D01*
X118889428Y-72101142D02*
X118289428Y-72101142D01*
X118375142Y-72044000D01*
X118432285Y-71986857D01*
X118460857Y-71929714D01*
X118346571Y-72501142D02*
X118318000Y-72529714D01*
X118289428Y-72586857D01*
X118289428Y-72729714D01*
X118318000Y-72786857D01*
X118346571Y-72815428D01*
X118403714Y-72844000D01*
X118460857Y-72844000D01*
X118546571Y-72815428D01*
X118889428Y-72472571D01*
X118889428Y-72844000D01*
X118289428Y-73015428D02*
X118889428Y-73215428D01*
X118289428Y-73415428D01*
X118889428Y-56164285D02*
X118289428Y-56164285D01*
X118289428Y-56392857D01*
X118318000Y-56450000D01*
X118346571Y-56478571D01*
X118403714Y-56507142D01*
X118489428Y-56507142D01*
X118546571Y-56478571D01*
X118575142Y-56450000D01*
X118603714Y-56392857D01*
X118603714Y-56164285D01*
X118718000Y-56735714D02*
X118718000Y-57021428D01*
X118889428Y-56678571D02*
X118289428Y-56878571D01*
X118889428Y-57078571D01*
X118889428Y-57592857D02*
X118889428Y-57250000D01*
X118889428Y-57421428D02*
X118289428Y-57421428D01*
X118375142Y-57364285D01*
X118432285Y-57307142D01*
X118460857Y-57250000D01*
X118289428Y-58135714D02*
X118289428Y-57850000D01*
X118575142Y-57821428D01*
X118546571Y-57850000D01*
X118518000Y-57907142D01*
X118518000Y-58050000D01*
X118546571Y-58107142D01*
X118575142Y-58135714D01*
X118632285Y-58164285D01*
X118775142Y-58164285D01*
X118832285Y-58135714D01*
X118860857Y-58107142D01*
X118889428Y-58050000D01*
X118889428Y-57907142D01*
X118860857Y-57850000D01*
X118832285Y-57821428D01*
X118860857Y-58586857D02*
X118889428Y-58672571D01*
X118889428Y-58815428D01*
X118860857Y-58872571D01*
X118832285Y-58901142D01*
X118775142Y-58929714D01*
X118718000Y-58929714D01*
X118660857Y-58901142D01*
X118632285Y-58872571D01*
X118603714Y-58815428D01*
X118575142Y-58701142D01*
X118546571Y-58644000D01*
X118518000Y-58615428D01*
X118460857Y-58586857D01*
X118403714Y-58586857D01*
X118346571Y-58615428D01*
X118318000Y-58644000D01*
X118289428Y-58701142D01*
X118289428Y-58844000D01*
X118318000Y-58929714D01*
X118289428Y-59129714D02*
X118889428Y-59272571D01*
X118460857Y-59386857D01*
X118889428Y-59501142D01*
X118289428Y-59644000D01*
X118832285Y-60215428D02*
X118860857Y-60186857D01*
X118889428Y-60101142D01*
X118889428Y-60044000D01*
X118860857Y-59958285D01*
X118803714Y-59901142D01*
X118746571Y-59872571D01*
X118632285Y-59844000D01*
X118546571Y-59844000D01*
X118432285Y-59872571D01*
X118375142Y-59901142D01*
X118318000Y-59958285D01*
X118289428Y-60044000D01*
X118289428Y-60101142D01*
X118318000Y-60186857D01*
X118346571Y-60215428D01*
X118889428Y-60758285D02*
X118889428Y-60472571D01*
X118289428Y-60472571D01*
X118889428Y-60958285D02*
X118289428Y-60958285D01*
X118889428Y-61301142D02*
X118546571Y-61044000D01*
X118289428Y-61301142D02*
X118632285Y-60958285D01*
X118860857Y-61766571D02*
X118889428Y-61852285D01*
X118889428Y-61995142D01*
X118860857Y-62052285D01*
X118832285Y-62080857D01*
X118775142Y-62109428D01*
X118718000Y-62109428D01*
X118660857Y-62080857D01*
X118632285Y-62052285D01*
X118603714Y-61995142D01*
X118575142Y-61880857D01*
X118546571Y-61823714D01*
X118518000Y-61795142D01*
X118460857Y-61766571D01*
X118403714Y-61766571D01*
X118346571Y-61795142D01*
X118318000Y-61823714D01*
X118289428Y-61880857D01*
X118289428Y-62023714D01*
X118318000Y-62109428D01*
X118289428Y-62309428D02*
X118889428Y-62452285D01*
X118460857Y-62566571D01*
X118889428Y-62680857D01*
X118289428Y-62823714D01*
X118889428Y-63052285D02*
X118289428Y-63052285D01*
X118289428Y-63452285D02*
X118289428Y-63566571D01*
X118318000Y-63623714D01*
X118375142Y-63680857D01*
X118489428Y-63709428D01*
X118689428Y-63709428D01*
X118803714Y-63680857D01*
X118860857Y-63623714D01*
X118889428Y-63566571D01*
X118889428Y-63452285D01*
X118860857Y-63395142D01*
X118803714Y-63338000D01*
X118689428Y-63309428D01*
X118489428Y-63309428D01*
X118375142Y-63338000D01*
X118318000Y-63395142D01*
X118289428Y-63452285D01*
X118889428Y-41421142D02*
X118289428Y-41421142D01*
X118289428Y-41649714D01*
X118318000Y-41706857D01*
X118346571Y-41735428D01*
X118403714Y-41764000D01*
X118489428Y-41764000D01*
X118546571Y-41735428D01*
X118575142Y-41706857D01*
X118603714Y-41649714D01*
X118603714Y-41421142D01*
X118575142Y-42221142D02*
X118603714Y-42306857D01*
X118632285Y-42335428D01*
X118689428Y-42364000D01*
X118775142Y-42364000D01*
X118832285Y-42335428D01*
X118860857Y-42306857D01*
X118889428Y-42249714D01*
X118889428Y-42021142D01*
X118289428Y-42021142D01*
X118289428Y-42221142D01*
X118318000Y-42278285D01*
X118346571Y-42306857D01*
X118403714Y-42335428D01*
X118460857Y-42335428D01*
X118518000Y-42306857D01*
X118546571Y-42278285D01*
X118575142Y-42221142D01*
X118575142Y-42021142D01*
X118546571Y-42706857D02*
X118518000Y-42649714D01*
X118489428Y-42621142D01*
X118432285Y-42592571D01*
X118403714Y-42592571D01*
X118346571Y-42621142D01*
X118318000Y-42649714D01*
X118289428Y-42706857D01*
X118289428Y-42821142D01*
X118318000Y-42878285D01*
X118346571Y-42906857D01*
X118403714Y-42935428D01*
X118432285Y-42935428D01*
X118489428Y-42906857D01*
X118518000Y-42878285D01*
X118546571Y-42821142D01*
X118546571Y-42706857D01*
X118575142Y-42649714D01*
X118603714Y-42621142D01*
X118660857Y-42592571D01*
X118775142Y-42592571D01*
X118832285Y-42621142D01*
X118860857Y-42649714D01*
X118889428Y-42706857D01*
X118889428Y-42821142D01*
X118860857Y-42878285D01*
X118832285Y-42906857D01*
X118775142Y-42935428D01*
X118660857Y-42935428D01*
X118603714Y-42906857D01*
X118575142Y-42878285D01*
X118546571Y-42821142D01*
X118318000Y-36626857D02*
X118289428Y-36569714D01*
X118289428Y-36484000D01*
X118318000Y-36398285D01*
X118375142Y-36341142D01*
X118432285Y-36312571D01*
X118546571Y-36284000D01*
X118632285Y-36284000D01*
X118746571Y-36312571D01*
X118803714Y-36341142D01*
X118860857Y-36398285D01*
X118889428Y-36484000D01*
X118889428Y-36541142D01*
X118860857Y-36626857D01*
X118832285Y-36655428D01*
X118632285Y-36655428D01*
X118632285Y-36541142D01*
X118889428Y-36912571D02*
X118289428Y-36912571D01*
X118889428Y-37255428D01*
X118289428Y-37255428D01*
X118889428Y-37541142D02*
X118289428Y-37541142D01*
X118289428Y-37684000D01*
X118318000Y-37769714D01*
X118375142Y-37826857D01*
X118432285Y-37855428D01*
X118546571Y-37884000D01*
X118632285Y-37884000D01*
X118746571Y-37855428D01*
X118803714Y-37826857D01*
X118860857Y-37769714D01*
X118889428Y-37684000D01*
X118889428Y-37541142D01*
X118318000Y-67106857D02*
X118289428Y-67049714D01*
X118289428Y-66964000D01*
X118318000Y-66878285D01*
X118375142Y-66821142D01*
X118432285Y-66792571D01*
X118546571Y-66764000D01*
X118632285Y-66764000D01*
X118746571Y-66792571D01*
X118803714Y-66821142D01*
X118860857Y-66878285D01*
X118889428Y-66964000D01*
X118889428Y-67021142D01*
X118860857Y-67106857D01*
X118832285Y-67135428D01*
X118632285Y-67135428D01*
X118632285Y-67021142D01*
X118889428Y-67392571D02*
X118289428Y-67392571D01*
X118889428Y-67735428D01*
X118289428Y-67735428D01*
X118889428Y-68021142D02*
X118289428Y-68021142D01*
X118289428Y-68164000D01*
X118318000Y-68249714D01*
X118375142Y-68306857D01*
X118432285Y-68335428D01*
X118546571Y-68364000D01*
X118632285Y-68364000D01*
X118746571Y-68335428D01*
X118803714Y-68306857D01*
X118860857Y-68249714D01*
X118889428Y-68164000D01*
X118889428Y-68021142D01*
X118889428Y-64038285D02*
X118289428Y-64038285D01*
X118889428Y-64381142D01*
X118289428Y-64381142D01*
X118889428Y-65009714D02*
X118603714Y-64809714D01*
X118889428Y-64666857D02*
X118289428Y-64666857D01*
X118289428Y-64895428D01*
X118318000Y-64952571D01*
X118346571Y-64981142D01*
X118403714Y-65009714D01*
X118489428Y-65009714D01*
X118546571Y-64981142D01*
X118575142Y-64952571D01*
X118603714Y-64895428D01*
X118603714Y-64666857D01*
X118860857Y-65238285D02*
X118889428Y-65324000D01*
X118889428Y-65466857D01*
X118860857Y-65524000D01*
X118832285Y-65552571D01*
X118775142Y-65581142D01*
X118718000Y-65581142D01*
X118660857Y-65552571D01*
X118632285Y-65524000D01*
X118603714Y-65466857D01*
X118575142Y-65352571D01*
X118546571Y-65295428D01*
X118518000Y-65266857D01*
X118460857Y-65238285D01*
X118403714Y-65238285D01*
X118346571Y-65266857D01*
X118318000Y-65295428D01*
X118289428Y-65352571D01*
X118289428Y-65495428D01*
X118318000Y-65581142D01*
X118289428Y-65752571D02*
X118289428Y-66095428D01*
X118889428Y-65924000D02*
X118289428Y-65924000D01*
X118889428Y-46501142D02*
X118289428Y-46501142D01*
X118289428Y-46729714D01*
X118318000Y-46786857D01*
X118346571Y-46815428D01*
X118403714Y-46844000D01*
X118489428Y-46844000D01*
X118546571Y-46815428D01*
X118575142Y-46786857D01*
X118603714Y-46729714D01*
X118603714Y-46501142D01*
X118575142Y-47301142D02*
X118603714Y-47386857D01*
X118632285Y-47415428D01*
X118689428Y-47444000D01*
X118775142Y-47444000D01*
X118832285Y-47415428D01*
X118860857Y-47386857D01*
X118889428Y-47329714D01*
X118889428Y-47101142D01*
X118289428Y-47101142D01*
X118289428Y-47301142D01*
X118318000Y-47358285D01*
X118346571Y-47386857D01*
X118403714Y-47415428D01*
X118460857Y-47415428D01*
X118518000Y-47386857D01*
X118546571Y-47358285D01*
X118575142Y-47301142D01*
X118575142Y-47101142D01*
X118289428Y-47958285D02*
X118289428Y-47844000D01*
X118318000Y-47786857D01*
X118346571Y-47758285D01*
X118432285Y-47701142D01*
X118546571Y-47672571D01*
X118775142Y-47672571D01*
X118832285Y-47701142D01*
X118860857Y-47729714D01*
X118889428Y-47786857D01*
X118889428Y-47901142D01*
X118860857Y-47958285D01*
X118832285Y-47986857D01*
X118775142Y-48015428D01*
X118632285Y-48015428D01*
X118575142Y-47986857D01*
X118546571Y-47958285D01*
X118518000Y-47901142D01*
X118518000Y-47786857D01*
X118546571Y-47729714D01*
X118575142Y-47701142D01*
X118632285Y-47672571D01*
%TO.C,R3*%
X91711428Y-64924000D02*
X91425714Y-64724000D01*
X91711428Y-64581142D02*
X91111428Y-64581142D01*
X91111428Y-64809714D01*
X91140000Y-64866857D01*
X91168571Y-64895428D01*
X91225714Y-64924000D01*
X91311428Y-64924000D01*
X91368571Y-64895428D01*
X91397142Y-64866857D01*
X91425714Y-64809714D01*
X91425714Y-64581142D01*
X91111428Y-65124000D02*
X91111428Y-65495428D01*
X91340000Y-65295428D01*
X91340000Y-65381142D01*
X91368571Y-65438285D01*
X91397142Y-65466857D01*
X91454285Y-65495428D01*
X91597142Y-65495428D01*
X91654285Y-65466857D01*
X91682857Y-65438285D01*
X91711428Y-65381142D01*
X91711428Y-65209714D01*
X91682857Y-65152571D01*
X91654285Y-65124000D01*
%TO.C,JP4*%
X113022000Y-51487428D02*
X113022000Y-51916000D01*
X113050571Y-52001714D01*
X113107714Y-52058857D01*
X113193428Y-52087428D01*
X113250571Y-52087428D01*
X112736285Y-52087428D02*
X112736285Y-51487428D01*
X112507714Y-51487428D01*
X112450571Y-51516000D01*
X112422000Y-51544571D01*
X112393428Y-51601714D01*
X112393428Y-51687428D01*
X112422000Y-51744571D01*
X112450571Y-51773142D01*
X112507714Y-51801714D01*
X112736285Y-51801714D01*
X111879142Y-51687428D02*
X111879142Y-52087428D01*
X112022000Y-51458857D02*
X112164857Y-51887428D01*
X111793428Y-51887428D01*
%TO.C,JP7*%
X97274000Y-48947428D02*
X97274000Y-49376000D01*
X97302571Y-49461714D01*
X97359714Y-49518857D01*
X97445428Y-49547428D01*
X97502571Y-49547428D01*
X96988285Y-49547428D02*
X96988285Y-48947428D01*
X96759714Y-48947428D01*
X96702571Y-48976000D01*
X96674000Y-49004571D01*
X96645428Y-49061714D01*
X96645428Y-49147428D01*
X96674000Y-49204571D01*
X96702571Y-49233142D01*
X96759714Y-49261714D01*
X96988285Y-49261714D01*
X96445428Y-48947428D02*
X96045428Y-48947428D01*
X96302571Y-49547428D01*
%TO.C,JP2*%
X103370000Y-51487428D02*
X103370000Y-51916000D01*
X103398571Y-52001714D01*
X103455714Y-52058857D01*
X103541428Y-52087428D01*
X103598571Y-52087428D01*
X103084285Y-52087428D02*
X103084285Y-51487428D01*
X102855714Y-51487428D01*
X102798571Y-51516000D01*
X102770000Y-51544571D01*
X102741428Y-51601714D01*
X102741428Y-51687428D01*
X102770000Y-51744571D01*
X102798571Y-51773142D01*
X102855714Y-51801714D01*
X103084285Y-51801714D01*
X102512857Y-51544571D02*
X102484285Y-51516000D01*
X102427142Y-51487428D01*
X102284285Y-51487428D01*
X102227142Y-51516000D01*
X102198571Y-51544571D01*
X102170000Y-51601714D01*
X102170000Y-51658857D01*
X102198571Y-51744571D01*
X102541428Y-52087428D01*
X102170000Y-52087428D01*
%TO.C,JP1*%
X100068000Y-51487428D02*
X100068000Y-51916000D01*
X100096571Y-52001714D01*
X100153714Y-52058857D01*
X100239428Y-52087428D01*
X100296571Y-52087428D01*
X99782285Y-52087428D02*
X99782285Y-51487428D01*
X99553714Y-51487428D01*
X99496571Y-51516000D01*
X99468000Y-51544571D01*
X99439428Y-51601714D01*
X99439428Y-51687428D01*
X99468000Y-51744571D01*
X99496571Y-51773142D01*
X99553714Y-51801714D01*
X99782285Y-51801714D01*
X98868000Y-52087428D02*
X99210857Y-52087428D01*
X99039428Y-52087428D02*
X99039428Y-51487428D01*
X99096571Y-51573142D01*
X99153714Y-51630285D01*
X99210857Y-51658857D01*
%TO.C,JP3*%
X106926000Y-51741428D02*
X106926000Y-52170000D01*
X106954571Y-52255714D01*
X107011714Y-52312857D01*
X107097428Y-52341428D01*
X107154571Y-52341428D01*
X106640285Y-52341428D02*
X106640285Y-51741428D01*
X106411714Y-51741428D01*
X106354571Y-51770000D01*
X106326000Y-51798571D01*
X106297428Y-51855714D01*
X106297428Y-51941428D01*
X106326000Y-51998571D01*
X106354571Y-52027142D01*
X106411714Y-52055714D01*
X106640285Y-52055714D01*
X106097428Y-51741428D02*
X105726000Y-51741428D01*
X105926000Y-51970000D01*
X105840285Y-51970000D01*
X105783142Y-51998571D01*
X105754571Y-52027142D01*
X105726000Y-52084285D01*
X105726000Y-52227142D01*
X105754571Y-52284285D01*
X105783142Y-52312857D01*
X105840285Y-52341428D01*
X106011714Y-52341428D01*
X106068857Y-52312857D01*
X106097428Y-52284285D01*
%TO.C,JP6*%
X109974000Y-50725428D02*
X109974000Y-51154000D01*
X110002571Y-51239714D01*
X110059714Y-51296857D01*
X110145428Y-51325428D01*
X110202571Y-51325428D01*
X109688285Y-51325428D02*
X109688285Y-50725428D01*
X109459714Y-50725428D01*
X109402571Y-50754000D01*
X109374000Y-50782571D01*
X109345428Y-50839714D01*
X109345428Y-50925428D01*
X109374000Y-50982571D01*
X109402571Y-51011142D01*
X109459714Y-51039714D01*
X109688285Y-51039714D01*
X108831142Y-50725428D02*
X108945428Y-50725428D01*
X109002571Y-50754000D01*
X109031142Y-50782571D01*
X109088285Y-50868285D01*
X109116857Y-50982571D01*
X109116857Y-51211142D01*
X109088285Y-51268285D01*
X109059714Y-51296857D01*
X109002571Y-51325428D01*
X108888285Y-51325428D01*
X108831142Y-51296857D01*
X108802571Y-51268285D01*
X108774000Y-51211142D01*
X108774000Y-51068285D01*
X108802571Y-51011142D01*
X108831142Y-50982571D01*
X108888285Y-50954000D01*
X109002571Y-50954000D01*
X109059714Y-50982571D01*
X109088285Y-51011142D01*
X109116857Y-51068285D01*
D11*
%TO.C,R3*%
X89647500Y-64532742D02*
X89647500Y-65007258D01*
X90692500Y-64532742D02*
X90692500Y-65007258D01*
%TO.C,JP4*%
X111522000Y-47622000D02*
X111522000Y-50422000D01*
X112822000Y-46972000D02*
X112222000Y-46972000D01*
X113522000Y-50422000D02*
X113522000Y-47622000D01*
X111322000Y-50222000D02*
X111022000Y-49922000D01*
X111022000Y-50522000D02*
X111022000Y-49922000D01*
X111322000Y-50222000D02*
X111022000Y-50522000D01*
X112222000Y-51072000D02*
X112822000Y-51072000D01*
X112822000Y-51072000D02*
G75*
G03*
X113522000Y-50372000I1J699999D01*
G01*
X111522000Y-50372000D02*
G75*
G03*
X112222000Y-51072000I699999J-1D01*
G01*
X112222000Y-46972000D02*
G75*
G03*
X111522000Y-47672000I0J-700000D01*
G01*
X113522000Y-47672000D02*
G75*
G03*
X112822000Y-46972000I-700000J0D01*
G01*
%TO.C,JP7*%
X95774000Y-45590000D02*
X95774000Y-48390000D01*
X97774000Y-48390000D02*
X97774000Y-45590000D01*
X95774000Y-48390000D02*
X97774000Y-48390000D01*
X97774000Y-45590000D02*
X95774000Y-45590000D01*
%TO.C,JP2*%
X101670000Y-50222000D02*
X101370000Y-50522000D01*
X101370000Y-50522000D02*
X101370000Y-49922000D01*
X101670000Y-50222000D02*
X101370000Y-49922000D01*
X103870000Y-50422000D02*
X103870000Y-47622000D01*
X101870000Y-47622000D02*
X101870000Y-50422000D01*
X103170000Y-46972000D02*
X102570000Y-46972000D01*
X102570000Y-51072000D02*
X103170000Y-51072000D01*
X101870000Y-50372000D02*
G75*
G03*
X102570000Y-51072000I699999J-1D01*
G01*
X103870000Y-47672000D02*
G75*
G03*
X103170000Y-46972000I-700000J0D01*
G01*
X103170000Y-51072000D02*
G75*
G03*
X103870000Y-50372000I1J699999D01*
G01*
X102570000Y-46972000D02*
G75*
G03*
X101870000Y-47672000I0J-700000D01*
G01*
%TO.C,JP1*%
X98068000Y-50522000D02*
X98068000Y-49922000D01*
X99868000Y-46972000D02*
X99268000Y-46972000D01*
X98368000Y-50222000D02*
X98068000Y-50522000D01*
X100568000Y-50422000D02*
X100568000Y-47622000D01*
X98368000Y-50222000D02*
X98068000Y-49922000D01*
X98568000Y-47622000D02*
X98568000Y-50422000D01*
X99268000Y-51072000D02*
X99868000Y-51072000D01*
X99868000Y-51072000D02*
G75*
G03*
X100568000Y-50372000I1J699999D01*
G01*
X100568000Y-47672000D02*
G75*
G03*
X99868000Y-46972000I-700000J0D01*
G01*
X98568000Y-50372000D02*
G75*
G03*
X99268000Y-51072000I699999J-1D01*
G01*
X99268000Y-46972000D02*
G75*
G03*
X98568000Y-47672000I0J-700000D01*
G01*
%TO.C,JP3*%
X105426000Y-47622000D02*
X105426000Y-50422000D01*
X106126000Y-51072000D02*
X106726000Y-51072000D01*
X106726000Y-46972000D02*
X106126000Y-46972000D01*
X107426000Y-50422000D02*
X107426000Y-47622000D01*
X105226000Y-50222000D02*
X104926000Y-49922000D01*
X104926000Y-50522000D02*
X104926000Y-49922000D01*
X105226000Y-50222000D02*
X104926000Y-50522000D01*
X106126000Y-46972000D02*
G75*
G03*
X105426000Y-47672000I0J-700000D01*
G01*
X107426000Y-47672000D02*
G75*
G03*
X106726000Y-46972000I-700000J0D01*
G01*
X105426000Y-50372000D02*
G75*
G03*
X106126000Y-51072000I699999J-1D01*
G01*
X106726000Y-51072000D02*
G75*
G03*
X107426000Y-50372000I1J699999D01*
G01*
%TO.C,JP6*%
X108474000Y-50168000D02*
X110474000Y-50168000D01*
X108474000Y-47368000D02*
X108474000Y-50168000D01*
X110474000Y-50168000D02*
X110474000Y-47368000D01*
X110474000Y-47368000D02*
X108474000Y-47368000D01*
%TD*%
M02*
