M48
; DRILL file {KiCad 6.0.6} date ven. 11 nov. 2022 11:53:53
; FORMAT={-:-/ absolute / inch / decimal}
; #@! TF.CreationDate,2022-11-11T11:53:53+01:00
; #@! TF.GenerationSoftware,Kicad,Pcbnew,6.0.6
; #@! TF.FileFunction,Plated,1,2,PTH
FMAT,2
INCH
; #@! TA.AperFunction,Plated,PTH,ViaDrill
T1C0.0157
; #@! TA.AperFunction,Plated,PTH,ComponentDrill
T2C0.0394
; #@! TA.AperFunction,Plated,PTH,ComponentDrill
T3C0.0472
%
G90
G05
T1
X3.5Y-2.15
X3.53Y-2.2
X3.57Y-1.76
X3.6Y-2.25
X3.61Y-1.47
X3.63Y-2.5
X3.63Y-2.69
X3.6607Y-2.2393
X3.67Y-1.87
X3.69Y-1.47
X3.7237Y-2.1466
X3.74Y-1.71
X3.78Y-2.28
X3.81Y-1.81
X3.81Y-2.24
X3.82Y-2.16
X3.83Y-2.06
X3.84Y-1.68
X3.84Y-1.966
X3.8461Y-2.38
X3.86Y-1.54
X3.87Y-2.42
X3.89Y-2.05
X3.9Y-1.56
X3.91Y-1.716
X3.91Y-2.38
X3.93Y-1.59
X3.95Y-2.03
X3.96Y-2.18
X3.96Y-2.22
X3.96Y-2.26
X4.0Y-2.18
X4.0Y-2.2199
X4.0Y-2.26
X4.01Y-2.62
X4.02Y-1.72
X4.02Y-2.03
X4.04Y-1.93
X4.04Y-2.18
X4.04Y-2.22
X4.04Y-2.26
X4.08Y-2.4
X4.12Y-1.59
X4.12Y-1.63
X4.12Y-1.67
X4.13Y-2.04
X4.15Y-2.08
X4.16Y-1.45
X4.16Y-1.59
X4.16Y-1.63
X4.16Y-1.67
X4.17Y-2.41
X4.18Y-1.82
X4.18Y-2.56
X4.19Y-1.93
X4.19Y-2.21
X4.2Y-1.59
X4.2Y-1.63
X4.2Y-1.67
X4.2Y-2.31
X4.21Y-1.79
X4.22Y-2.15
X4.22Y-2.27
X4.24Y-1.41
X4.25Y-2.41
X4.26Y-2.0
X4.31Y-1.52
X4.32Y-2.3675
X4.32Y-2.43
X4.33Y-1.59
X4.37Y-1.7
X4.3869Y-2.114
X4.41Y-1.52
X4.43Y-2.19
X4.46Y-2.36
X4.46Y-2.44
X4.466Y-1.824
X4.58Y-1.89
X4.6Y-1.8
T2
X3.4Y-1.45
X3.4Y-1.55
X3.4Y-1.65
X3.4Y-1.75
X3.4Y-1.85
X3.4Y-1.95
X3.4Y-2.05
X3.4Y-2.15
X3.4Y-2.25
X3.4Y-2.35
X3.4Y-2.45
X3.4Y-2.55
X3.4Y-2.65
X3.4Y-2.75
X3.4Y-2.85
X4.75Y-1.45
X4.75Y-1.55
X4.75Y-1.65
X4.75Y-1.75
X4.75Y-1.85
X4.75Y-1.95
X4.75Y-2.05
X4.75Y-2.15
X4.75Y-2.25
X4.75Y-2.35
X4.75Y-2.45
X4.75Y-2.55
X4.75Y-2.65
X4.75Y-2.75
X4.75Y-2.85
T3
X3.9568Y-2.8596
X4.1832Y-2.8596
T0
M30
